<svg width="50" height="50" viewBox="0 0 50 50" fill="none" xmlns="http://www.w3.org/2000/svg">
<path d="M0.5 11.9933V49.5H38.5067L49.5 38.5067V0.5H11.9933L0.5 11.9933Z" stroke="#101010"/>
<path fill-rule="evenodd" clip-rule="evenodd" d="M36.0911 21.2444L39.3459 24.9526L36.0911 28.6609L36.5447 33.5696L31.7293 34.6634L29.2082 38.9053L24.6729 36.9578L20.1377 38.9186L17.6166 34.6768L12.8012 33.583L13.2547 28.6609L10 24.9526L13.2547 21.231L12.8012 16.3223L17.6166 15.2418L20.1377 11L24.6729 12.9475L29.2082 11L31.7293 15.2418L36.5447 16.3356L36.0911 21.2444ZM24.3408 31.837C24.396 32.0149 24.439 32.1469 24.4697 32.2328H26.8996C26.875 32.153 26.8321 32.0149 26.7707 31.8186C26.7093 31.6222 26.6388 31.386 26.559 31.1099C26.4854 30.8337 26.4025 30.5392 26.3105 30.2262C26.2184 29.9072 26.1264 29.5912 26.0344 29.2782C25.9485 28.9653 25.8687 28.6738 25.7951 28.4038C25.5619 27.5693 25.2397 26.9864 24.8286 26.655C24.4236 26.3237 23.9297 26.1457 23.3467 26.1212C23.6167 26.0966 23.9481 26.0291 24.3408 25.9187C24.7335 25.8082 25.117 25.6303 25.4913 25.3848C25.8656 25.1394 26.1786 24.8019 26.4301 24.3724C26.5937 24.0959 26.7053 23.7738 26.7651 23.4059H27.9212V22.0529H26.7691C26.7061 21.6305 26.5809 21.2501 26.3933 20.9116C26.2608 20.6671 26.1042 20.4432 25.9236 20.2397H27.8752V18.6566H21.6348H19.5546V20.2397V20.2489H21.4139C21.9722 20.2489 22.4693 20.3195 22.9049 20.4606C23.3406 20.6017 23.6842 20.8503 23.9358 21.2061C24.0947 21.4309 24.2034 21.7132 24.2619 22.0529H19.5546V23.4059H24.2552C24.2169 23.6152 24.1595 23.8023 24.0831 23.9674C23.9297 24.2926 23.7149 24.5473 23.4388 24.7314C23.1688 24.9093 22.8589 25.0351 22.5092 25.1087C22.1594 25.1762 21.7912 25.21 21.4047 25.21H19.5546V26.8023H21.1469C21.8342 26.8023 22.3343 26.968 22.6472 27.2993C22.9663 27.6245 23.2087 28.0694 23.3744 28.6339C23.4664 28.9223 23.5554 29.2199 23.6413 29.5267C23.7333 29.8335 23.8223 30.1311 23.9082 30.4195C24.0002 30.7018 24.08 30.9657 24.1475 31.2111C24.2211 31.4504 24.2856 31.659 24.3408 31.837Z" fill="#101010"/>
</svg>
