<svg width="276" height="137" viewBox="0 0 276 137" fill="none" xmlns="http://www.w3.org/2000/svg">
<path opacity="0.1" d="M33.5801 -37.8636C-2.57757 32.5134 -39.0412 173.986 104.366 176.863C283.625 180.458 226.604 192.877 235.124 270.989C241.941 333.479 320.548 319.033 359 303.999V270.989C348.841 277.852 316.004 287.461 265.929 270.989C203.336 250.399 295.751 156.926 222.671 150.389C149.591 143.853 4.74228 169.345 19.1612 37.9605C30.6964 -67.1474 99.5601 -96.4748 132.55 -98L77.8219 -63.3562L52.588 -41.4587C37.4039 -5.94339 18.4402 71.7546 64.0579 98.4238C121.08 131.76 251.838 96.136 257.081 131.76C262.325 167.385 251.182 220.004 283.626 238.633C309.581 253.536 328.96 244.843 335.405 238.633L325.246 204.643C308.095 207.911 273.795 204.12 273.795 162.809C273.795 111.17 277.072 80.1214 235.124 83.7165C193.177 87.3116 120.097 92.214 81.4268 77.1799C42.7566 62.1458 53.5711 -28.0588 64.0579 -41.4587C72.4474 -52.1787 76.7295 -50.2831 77.8219 -47.9953C71.377 -31.1092 63.0752 8.28453 81.4268 30.7703C104.366 58.8775 127.962 62.7995 192.522 54.3019C257.081 45.8044 291.819 54.9556 285.592 103.326C279.366 151.697 302.961 169.019 314.759 169.019C324.197 169.019 323.716 138.733 322.296 123.59C317.817 128.71 307.09 132.414 300.012 106.268C291.163 73.5848 312.465 31.424 273.795 19.985C235.124 8.546 158.767 41.2288 120.097 23.2533C89.1608 8.87283 86.6702 -30.2376 89.2919 -47.9953H107.644C109.064 -32.7433 119.966 -2.04324 152.213 -1.25885C192.522 -0.278365 258.392 -26.4246 288.542 -12.0442C312.661 -0.539827 319.347 29.7898 319.674 43.5166V-52.8977C282.861 -45.8164 204.516 -31.327 185.64 -30.0197C162.044 -28.3856 140.743 -32.6344 133.533 -47.9953" stroke="#2F2760"/>
</svg>
