<svg width="25" height="25" viewBox="0 0 25 25" fill="none" xmlns="http://www.w3.org/2000/svg">
<path d="M18.6048 23.4114C17.6898 23.4114 16.4045 23.0805 14.4798 22.0052C12.1393 20.6927 10.329 19.481 8.00118 17.1592C5.7568 14.9163 4.66462 13.4641 3.13602 10.6825C1.40915 7.5419 1.70352 5.89565 2.03258 5.19206C2.42446 4.35112 3.0029 3.84815 3.75055 3.34893C4.17522 3.0707 4.62462 2.83219 5.09305 2.63643C5.13993 2.61627 5.18352 2.59706 5.22243 2.57971C5.45446 2.47518 5.80602 2.31721 6.25133 2.48596C6.54852 2.59752 6.81383 2.82581 7.22915 3.23596C8.08087 4.07596 9.24477 5.94674 9.67415 6.86549C9.96243 7.48471 10.1532 7.89346 10.1537 8.3519C10.1537 8.88862 9.88368 9.30252 9.55602 9.74924C9.49462 9.83315 9.43368 9.91331 9.37462 9.99112C9.0179 10.4599 8.93962 10.5953 8.99118 10.8372C9.09571 11.3233 9.87524 12.7703 11.1563 14.0486C12.4374 15.3269 13.8427 16.0572 14.3307 16.1613C14.5829 16.2152 14.7212 16.1336 15.2049 15.7642C15.2743 15.7113 15.3456 15.6564 15.4201 15.6016C15.9198 15.2299 16.3145 14.9669 16.8385 14.9669H16.8413C17.2974 14.9669 17.6879 15.1647 18.3348 15.491C19.1785 15.9166 21.1056 17.0655 21.9507 17.9181C22.3618 18.3325 22.591 18.5969 22.7031 18.8936C22.8718 19.3403 22.7129 19.6905 22.6093 19.9249C22.592 19.9638 22.5727 20.0064 22.5526 20.0538C22.3553 20.5214 22.1154 20.9698 21.8359 21.3935C21.3376 22.1388 20.8327 22.7158 19.9899 23.1081C19.5571 23.3129 19.0835 23.4166 18.6048 23.4114Z" fill="white"/>
</svg>
