<svg width="76" height="76" viewBox="0 0 76 76" fill="none" xmlns="http://www.w3.org/2000/svg">
<path fill-rule="evenodd" clip-rule="evenodd" d="M28.6357 71V65.8694C23.3762 61.5282 12.8571 51.5828 12.8571 46.5312C12.8571 40.2166 17.4246 41.4006 19.5008 44.1632C19.7715 44.5234 20.1195 45.0178 20.5332 45.6052C23.2919 49.5233 28.9656 57.5816 34.0337 57.5816H38.179H38.6012H42.608C47.5226 57.5816 53.0244 49.5233 55.6995 45.6052C56.1005 45.0178 56.4381 44.5234 56.7006 44.1632C58.7138 41.4006 63.1429 40.2166 63.1429 46.5312C63.1429 51.5828 52.9426 61.5282 47.8424 65.8694V71H38.6012H38.179H28.6357Z" stroke="#2F2760" stroke-width="1.5"/>
<circle cx="38.7857" cy="47.4286" r="5.53571" stroke="#2F2760" stroke-width="1.5"/>
<path d="M41.9286 10.8929L41.3045 11.3089L41.6281 11.7942L42.1782 11.6001L41.9286 10.8929ZM38 5L38.624 4.58397L37.9797 3.61743L37.364 4.6025L38 5ZM48.6071 8.53571H49.3571V7.47567L48.3575 7.82847L48.6071 8.53571ZM48.6071 16.3929H47.8571V16.8315L48.2395 17.0465L48.6071 16.3929ZM54.8929 19.9286L55.3198 20.5452L56.3056 19.8627L55.2606 19.2749L54.8929 19.9286ZM49.7857 23.4643L49.3588 22.8476L48.8722 23.1845L49.0867 23.7361L49.7857 23.4643ZM52.5357 30.5357V31.2857H53.6321L53.2347 30.2639L52.5357 30.5357ZM45.8571 30.5357V29.7857H45.2648L45.1275 30.362L45.8571 30.5357ZM43.8929 38.7857L43.4017 39.3525L44.3361 40.1623L44.6225 38.9594L43.8929 38.7857ZM38 33.6786L38.4912 33.1118L37.9814 32.67L37.4883 33.1303L38 33.6786ZM32.1071 39.1786L31.3775 39.3523L31.6762 40.6067L32.6189 39.7269L32.1071 39.1786ZM30.1429 30.9286L30.8725 30.7549L30.7353 30.1786H30.1429V30.9286ZM23.4643 30.9286L22.7653 30.6567L22.3679 31.6786H23.4643V30.9286ZM26.2143 23.8571L26.9133 24.129L27.1278 23.5774L26.6412 23.2405L26.2143 23.8571ZM21.1071 20.3214L20.7395 19.6677L19.6944 20.2556L20.6802 20.9381L21.1071 20.3214ZM27.3929 16.7857L27.7606 17.4394L28.1429 17.2244V16.7857H27.3929ZM27.3929 8.92857L27.6425 8.22133L26.6429 7.86852V8.92857H27.3929ZM34.0714 11.2857L33.8218 11.993L34.3888 12.1931L34.7074 11.6832L34.0714 11.2857ZM42.5526 10.4768L38.624 4.58397L37.376 5.41603L41.3045 11.3089L42.5526 10.4768ZM48.3575 7.82847L41.679 10.1856L42.1782 11.6001L48.8568 9.24296L48.3575 7.82847ZM49.3571 16.3929V8.53571H47.8571V16.3929H49.3571ZM55.2606 19.2749L48.9748 15.7392L48.2395 17.0465L54.5252 20.5823L55.2606 19.2749ZM50.2126 24.0809L55.3198 20.5452L54.466 19.3119L49.3588 22.8476L50.2126 24.0809ZM53.2347 30.2639L50.4847 23.1925L49.0867 23.7361L51.8367 30.8075L53.2347 30.2639ZM45.8571 31.2857H52.5357V29.7857H45.8571V31.2857ZM44.6225 38.9594L46.5868 30.7094L45.1275 30.362L43.1633 38.612L44.6225 38.9594ZM37.5088 34.2453L43.4017 39.3525L44.3841 38.219L38.4912 33.1118L37.5088 34.2453ZM32.6189 39.7269L38.5117 34.2269L37.4883 33.1303L31.5954 38.6303L32.6189 39.7269ZM29.4133 31.1023L31.3775 39.3523L32.8368 39.0049L30.8725 30.7549L29.4133 31.1023ZM23.4643 31.6786H30.1429V30.1786H23.4643V31.6786ZM25.5153 23.5853L22.7653 30.6567L24.1633 31.2004L26.9133 24.129L25.5153 23.5853ZM20.6802 20.9381L25.7874 24.4738L26.6412 23.2405L21.5341 19.7048L20.6802 20.9381ZM27.0252 16.132L20.7395 19.6677L21.4748 20.9751L27.7606 17.4394L27.0252 16.132ZM26.6429 8.92857V16.7857H28.1429V8.92857H26.6429ZM34.321 10.5785L27.6425 8.22133L27.1432 9.63581L33.8218 11.993L34.321 10.5785ZM37.364 4.6025L33.4354 10.8882L34.7074 11.6832L38.636 5.3975L37.364 4.6025ZM43.5358 22.2857C43.5358 25.343 41.0573 27.8214 38 27.8214V29.3214C41.8858 29.3214 45.0358 26.1714 45.0358 22.2857H43.5358ZM38 16.75C41.0573 16.75 43.5358 19.2284 43.5358 22.2857H45.0358C45.0358 18.4 41.8858 15.25 38 15.25V16.75ZM32.4643 22.2857C32.4643 19.2284 34.9427 16.75 38 16.75V15.25C34.1143 15.25 30.9643 18.4 30.9643 22.2857H32.4643ZM38 27.8214C34.9427 27.8214 32.4643 25.343 32.4643 22.2857H30.9643C30.9643 26.1714 34.1143 29.3214 38 29.3214V27.8214Z" fill="#2F2760"/>
</svg>
