<svg width="24" height="24" viewBox="0 0 24 24" fill="none" xmlns="http://www.w3.org/2000/svg">
<g clip-path="url(#clip0_9476_7053)">
<path fill-rule="evenodd" clip-rule="evenodd" d="M19.4793 4.5207C19.1459 4.1873 18.6937 4 18.2222 4H5.77778C5.30628 4 4.8541 4.1873 4.5207 4.5207C4.1873 4.8541 4 5.30628 4 5.77778V18.2222C4 18.6937 4.1873 19.1459 4.5207 19.4793C4.8541 19.8127 5.30628 20 5.77778 20H18.2222C18.6937 20 19.1459 19.8127 19.4793 19.4793C19.8127 19.1459 20 18.6937 20 18.2222V5.77778C20 5.30628 19.8127 4.8541 19.4793 4.5207ZM12.8978 12.5351V18H10.7693V12.5311H9V10.3915H10.7654V8.82122C10.7654 6.99494 11.8438 6.00011 13.4145 6.00011C13.9441 5.99797 14.4734 6.02624 15 6.08479V7.99243H13.9177C13.0636 7.99243 12.8978 8.41516 12.8978 9.03259V10.3955H14.9389L14.6748 12.5351H12.8978Z" fill="white"/>
</g>
<defs>
<clipPath id="clip0_9476_7053">
<rect width="16" height="16" fill="white" transform="translate(4 4)"/>
</clipPath>
</defs>
</svg>
