<svg width="125" height="115" viewBox="0 0 125 115" fill="none" xmlns="http://www.w3.org/2000/svg">
<rect width="124.401" height="114.586" fill="#005D52"/>
<path fill-rule="evenodd" clip-rule="evenodd" d="M57.9797 68.2038C60.4139 66.4841 63.7237 66.2261 66.4741 67.8141C70.2443 69.9908 71.536 74.8116 69.3593 78.5818C67.1826 82.3519 62.3618 83.6436 58.5917 81.4669C55.8412 79.8789 54.4098 76.8836 54.6819 73.9156L17.5092 52.4539V83.4703L62.2546 109.304L107 83.4703V70.269L66.9107 47.1234C64.4698 48.8908 61.1204 49.1705 58.3418 47.5663C54.5717 45.3896 53.28 40.5688 55.4566 36.7986C57.6333 33.0285 62.4542 31.7368 66.2243 33.9134C69.0028 35.5176 70.4352 38.5578 70.1252 41.5552L107 62.8449V31.8028L62.2546 5.96899L17.5092 31.8028V44.8381L57.9797 68.2038Z" fill="url(#paint0_linear_165_1004)"/>
<defs>
<linearGradient id="paint0_linear_165_1004" x1="62.2546" y1="5.96899" x2="62.2546" y2="109.304" gradientUnits="userSpaceOnUse">
<stop stop-color="#66C56B"/>
<stop offset="1" stop-color="#FFD600"/>
</linearGradient>
</defs>
</svg>
