<svg width="570" height="269" viewBox="0 0 570 269" fill="none" xmlns="http://www.w3.org/2000/svg">
<g clip-path="url(#clip0_66_493)">
<mask id="mask0_66_493" style="mask-type:alpha" maskUnits="userSpaceOnUse" x="0" y="43" width="568" height="232">
<path d="M390.023 122.792C360.905 177.904 337.918 194.744 208.421 166.422C137.517 150.915 0 185.374 0 274.35H567.794V43.9511C460.518 39.3584 419.141 67.6799 390.023 122.792Z" fill="#D9D9D9"/>
</mask>
<g mask="url(#mask0_66_493)">
<mask id="mask1_66_493" style="mask-type:luminance" maskUnits="userSpaceOnUse" x="0" y="43" width="710" height="474">
<path d="M709.586 43.4684H0V516.525H709.586V43.4684Z" fill="white"/>
</mask>
<g mask="url(#mask1_66_493)">
<path fill-rule="evenodd" clip-rule="evenodd" d="M-3.18389e-05 43.4684H21.6452C17.6298 48.4876 7.84243 49.9934 -3.18389e-05 51.1227V43.4684ZM-3.18389e-05 66.0547V60.4081C14.1164 60.5336 31.1188 54.0087 34.444 43.4684H42.4747V43.5939C41.2827 47.7975 40.8435 51.2482 38.6476 54.2597C32.1227 63.2942 15.1202 65.8038 -3.18389e-05 66.0547ZM50.129 43.4684H51.572C52.3876 50.1816 53.1405 57.5221 55.0226 63.4196C56.0265 65.4273 57.0303 67.4977 58.0342 69.5054H57.9087C53.9561 68.5016 49.2506 68.3761 47.6194 65.1764C46.3646 62.7295 48.0585 59.3416 48.6859 57.3966C49.9407 53.3186 50.0662 48.864 50.129 43.5312V43.4684ZM58.5988 43.4684H65.1865C65.6884 47.6093 67.4451 51.6873 68.8881 55.0753C78.801 77.9752 104.211 87.3862 110.485 112.106C114.5 127.979 104.336 138.017 98.313 146.675C95.1133 151.255 91.4744 159.16 95.427 165.685C100.007 173.214 109.732 174.406 117.323 178.861C126.107 184.005 132.381 190.718 140.035 196.804C142.921 199.126 152.081 205.149 152.332 209.227C149.822 215.501 140.976 207.156 139.157 205.274C137.023 202.702 134.828 200.192 132.694 197.62C128.24 192.036 122.029 187.08 115.817 183.252C107.661 178.17 95.7407 175.975 90.2196 168.32C86.2043 162.799 87.8982 154.392 91.1607 149.31C97.121 139.962 109.292 129.422 105.026 112.733C101.638 99.5577 89.153 87.5117 79.8048 79.9829C70.0174 72.2032 60.9829 58.4632 58.5988 43.4684ZM74.9739 43.4684H78.6755C80.4322 49.1777 85.0122 54.1342 88.3374 58.526C99.8815 73.7717 118.452 83.9355 125.542 103.259C130.561 116.999 125.73 130.865 119.707 139.837C116.57 144.605 110.547 150.628 112.555 159.349C115.127 170.391 125.417 172.9 131.44 180.053L123.409 176.226C115.065 172.022 106.783 169.512 104.901 158.784C103.52 151.004 110.422 144.103 113.496 140.15C119.394 132.621 124.915 121.391 120.774 108.216C114.876 89.5193 99.1286 80.1711 88.1492 66.4939C83.0045 60.0944 76.6678 53.2558 74.9739 43.4684ZM-3.18389e-05 80.0457V73.3325C37.3928 72.9561 64.5591 78.2262 83.8202 97.4873C89.404 103.071 98.6895 113.298 96.3681 125.846C93.1684 143.35 79.3029 146.863 76.4169 163.05C75.0993 170.328 79.3029 175.975 82.8791 178.61C87.3336 181.935 93.2938 183.252 99.1286 185.323C105.152 187.519 110.735 190.217 115.629 193.479C120.46 196.741 124.977 201.321 128.428 206.027C130.749 209.227 132.757 213.116 135.831 215.501C139.596 218.449 146.372 222.151 153.273 219.704C160.551 217.195 164.19 208.286 159.484 200.318C156.535 195.361 151.83 191.032 147.501 187.519C145.619 185.574 143.737 183.629 141.854 181.684C136.835 176.288 131 171.332 127.487 164.493C116.821 144.04 140.6 127.351 134.326 102.695C131.691 92.2799 126.107 85.8177 120.335 78.6654L115.441 73.7717C112.429 70.6347 109.481 67.4977 106.469 64.4235C100.885 57.7731 94.8623 51.5619 90.5333 43.4684H98.0621C109.042 64.6744 132.506 74.65 138.968 100.122C145.054 123.963 123.911 140.84 133.949 163.113C141.039 178.735 158.669 185.072 166.135 200.192C171.781 211.548 164.692 222.151 155.72 225.037C148.442 227.358 139.533 225.037 134.702 222.025C126.671 217.006 123.032 207.721 115.817 201.949C111.175 198.247 106.093 194.796 100.258 192.287C90.847 188.272 81.3106 186.327 74.9111 179.488C72.0251 176.414 68.4489 171.206 69.641 164.305C72.5898 147.114 87.0826 143.475 90.0941 126.41C91.8508 116.372 82.6908 105.894 77.7971 102.005C74.7229 99.495 71.8996 96.6717 68.4489 94.4758C51.1955 83.5591 28.421 79.9829 -3.18389e-05 80.0457ZM-3.18389e-05 93.3465V87.2607C24.0293 87.1352 47.5566 91.0878 59.6654 103.259C63.8062 107.4 69.5155 114.678 66.8177 123.712C64.3081 132.12 58.1596 135.947 53.3287 141.907C48.2468 148.244 44.5451 154.267 42.3492 163.678C41.5336 167.317 40.9062 172.649 41.6591 176.853C42.161 179.676 42.7257 182.311 43.7923 184.633C49.3761 197.432 60.481 194.734 75.4758 197.432C86.7062 199.439 96.6191 201.51 104.65 206.529C108.853 209.164 113.12 212.615 116.131 216.442C118.954 220.018 121.527 224.096 125.103 226.856C129.557 230.37 134.137 232.315 140.662 233.883C143.987 234.636 148.756 235.326 152.834 234.699C155.971 234.197 159.045 234.009 161.68 233.005C174.793 228.049 183.012 212.301 174.73 196.177C166.762 180.492 148.944 173.967 141.98 157.215C133.447 136.637 152.457 118.693 146.874 96.4834C143.172 81.8024 133.573 74.0854 125.479 63.9843C120.084 57.2712 114.625 51.1854 110.045 43.5312V43.4684C111.551 43.4684 115.629 42.9038 116.508 43.7194C117.637 45.5388 118.766 47.421 119.958 49.2405C122.405 52.3775 124.915 55.5772 127.361 58.7142C135.141 68.5643 145.054 76.344 150.073 89.0802C151.579 92.9073 151.955 96.9854 152.708 101.754C153.587 107.024 151.767 112.733 150.575 116.56C147.438 126.724 142.105 139.837 146.058 152.447C152.646 173.277 176.424 179.237 183.012 199.439C189.599 219.579 178.996 235.201 164.001 239.844C160.802 240.847 157.288 240.973 153.712 241.538C150.826 242.039 146.999 241.851 144.364 241.412C142.168 241.161 139.972 240.973 137.776 240.722C128.93 238.84 121.527 235.577 116.758 229.617C113.81 225.915 111.049 221.335 107.41 218.387C102.14 214.12 96.6818 210.293 89.3412 207.972C84.1966 206.341 78.6755 205.839 72.7152 204.835C64.4963 203.455 56.3402 204.396 50.0035 201.698C42.6002 198.498 38.3339 192.161 36.389 183.503C31.9972 163.74 41.4081 147.052 49.4388 136.888C54.1443 130.865 63.9944 122.771 57.344 111.541C48.1213 95.7933 23.5901 94.8522 -3.18389e-05 93.3465ZM128.303 43.4684H135.706C136.835 47.8602 142.795 54.3851 145.493 57.8358C154.779 69.7564 165.821 80.4221 183.388 84.1237C196.25 86.8215 210.68 82.3043 222.726 85.5667C225.8 86.3824 233.705 90.2095 229.062 94.1621L225.486 92.0289C221.847 90.8996 217.079 91.0878 212.562 91.0878C202.022 91.0878 191.921 92.2172 182.321 90.2722C163.249 86.5078 151.516 74.7128 141.415 62.0394C136.961 56.581 130.687 50.7462 128.303 43.4684ZM145.619 43.4684C146.874 43.4684 149.822 43.092 150.512 43.7194L156.347 52.5657C163.06 61.3492 171.718 68.5016 183.702 72.0777C199.136 76.6577 223.73 70.0073 237.846 75.9048C240.795 77.1596 244.12 79.732 245.124 82.9317C246.441 87.0098 244.183 92.0289 240.105 92.0289L239.289 91.6525C239.101 89.8958 239.226 87.7626 238.599 86.3824C232.576 71.764 200.265 79.9202 184.329 75.9676C164.817 71.1366 154.904 58.4005 145.619 43.4684ZM160.802 43.4684H168.832C173.852 52.1265 183.89 56.581 195.622 58.6514C198.947 59.2161 203.716 59.467 207.104 58.9024C212.562 58.7769 218.02 58.6514 223.479 58.526C241.736 56.7692 256.793 63.4196 261.499 75.2774C265.953 86.5706 258.55 96.8599 251.335 101.126C242.489 106.334 228.749 104.702 216.326 106.773C194.305 110.537 176.173 113.988 168.268 131.869C165.444 138.205 162.433 149.122 165.758 157.215C168.958 165.058 176.612 170.642 182.761 175.535C193.301 183.943 203.527 201.384 199.01 222.025C197.944 226.794 196.501 230.935 194.493 234.699C191.67 240.032 187.466 244.737 182.51 247.874C165.194 258.979 126.86 260.799 109.794 247.874C104.211 243.671 101.011 237.146 96.87 231.499C93.2938 226.605 88.0865 222.653 81.938 220.269C75.0366 217.571 66.8177 217.947 58.1596 216.567C52.5131 215.689 47.2429 216.379 42.4747 214.999C34.6323 212.677 29.0484 208.411 25.2841 202.074C19.763 192.726 18.7591 174.343 21.0805 160.227C22.398 151.945 23.0882 141.719 21.7706 133.939C20.6413 127.477 19.512 121.391 16.7515 116.497C14.9947 113.423 10.2893 109.471 9.91284 105.832C12.3597 101.942 21.2687 103.197 26.1624 104.263C35.8243 106.271 53.9561 111.666 47.4312 125.532C46.741 116.811 30.6797 107.024 26.0369 117.878C23.5273 123.775 26.9153 133.876 27.1035 140.715C27.4799 156.964 23.1509 176.477 27.6054 191.283C30.6169 201.259 36.7654 207.658 46.741 210.67C57.595 213.932 72.9035 211.611 83.3182 214.873C91.8508 217.571 98.0621 222.716 102.705 229.241C105.089 232.629 107.285 236.267 110.359 239.028C121.715 249.192 148.003 254.587 168.205 248.251C182.949 243.671 190.917 234.009 193.928 217.508C194.807 212.866 194.556 206.717 193.552 202.325C192.673 198.624 191.607 194.859 189.85 191.91C179.875 174.783 160.049 168.132 153.838 147.177C149.383 132.308 157.602 118.882 160.676 106.773C161.868 102.13 161.178 97.0481 160.927 92.2799C164.064 92.9073 166.511 95.7933 169.397 97.0481C173.099 98.6793 177.553 98.6793 181.82 99.3067L192.799 99.0558C196.814 98.8048 200.83 98.6166 204.782 98.3656C206.539 98.1147 212.499 97.2363 214.005 97.8637C208.798 98.6793 203.527 99.5577 198.32 100.373C178.62 104.577 167.64 105.832 160.551 123.085C158.104 128.983 156.034 139.899 159.233 146.989H159.359C159.547 140.715 161.743 135.131 163.688 130.488C171.718 111.478 187.341 108.028 209.739 103.573C226.427 100.248 245.438 102.632 252.904 90.2095C253.907 88.5155 255.162 85.3158 254.911 82.8062C253.907 72.8306 245.751 68.7525 236.842 66.6821C233.58 65.9292 230.317 66.4311 226.678 65.8665H218.209C213.252 65.8665 208.233 65.9292 203.276 65.992C185.772 67.4977 172.597 59.4043 165.131 49.7424C163.688 47.8602 161.617 45.7898 160.802 43.4057V43.4684ZM180.314 43.4684H222.538C233.58 43.4684 244.183 43.2802 252.653 45.8525C271.224 51.5619 284.775 69.0662 289.606 88.5155C295.127 110.6 281.764 127.791 268.902 135.508C264.761 138.017 259.805 139.146 254.096 140.15C238.599 142.785 222.977 135.758 211.746 144.103C209.299 145.922 207.543 148.055 206.853 151.632C205.096 161.105 215.573 170.14 219.275 175.786C223.479 182.186 226.302 189.777 228.121 198.498C228.498 202.074 228.812 205.65 229.188 209.164C229.815 213.305 229.125 218.575 228.498 222.088C226.302 235.201 224.106 245.741 219.652 256.156C217.958 260.046 212.248 269.143 215.134 273.723C219.589 280.687 234.709 284.891 241.924 290.098C251.398 296.999 258.425 306.034 261.75 319.146C262.879 323.538 263.067 328.369 263.883 333.137C264.51 337.027 264.761 342.925 264.134 346.752C263.569 350.516 264.071 354.971 263.318 358.735C261.248 369.84 257.985 378.185 252.464 385.651C246.504 393.744 237.972 399.453 233.705 409.303C228.937 420.283 226.678 444.124 233.956 454.288C241.297 464.64 266.895 463.259 279.882 458.617C283.709 457.236 287.599 455.292 290.736 453.096C294.814 450.272 298.139 446.633 302.091 443.747C301.213 445.881 299.205 447.575 297.888 449.269C289.857 459.495 279.066 465.581 263.569 468.404C260.307 469.032 255.539 469.471 252.088 468.906C249.453 468.781 246.818 468.655 244.183 468.53C235.964 467.024 231.07 464.201 228.059 457.55C221.973 444.061 223.541 415.766 230.317 404.221C235.462 395.375 243.43 389.478 249.202 381.259C256.919 370.342 261.938 348.32 258.425 329.624C257.484 324.417 256.731 319.46 254.974 315.131C250.268 303.273 240.293 293.8 228.812 288.718C221.659 285.581 203.214 280.875 199.763 275.229C196.312 269.582 206.79 262.367 209.425 259.418C215.887 252.015 219.463 242.918 222.098 231.562C222.475 228.299 222.789 225.037 223.165 221.775C223.228 218.449 223.353 215.187 223.416 211.862C223.039 208.474 222.6 205.086 222.224 201.698C219.965 191.973 216.577 184.005 211.684 177.041C207.856 171.646 197.128 161.67 198.759 151.945C200.453 141.907 207.543 138.394 217.393 136.511C219.84 136.386 222.224 136.26 224.671 136.135C227.369 136.135 230.066 136.072 232.701 136.009H248.7C265.012 133.312 274.172 127.226 281.199 115.431C283.646 111.29 286.783 104.389 285.967 97.7382C283.583 78.2889 271.851 60.4709 257.044 53.7577C252.653 51.8128 247.947 50.8717 242.363 49.9306C238.536 49.3032 233.58 49.4914 229.69 49.8051C225.173 49.8051 220.655 49.8679 216.075 49.9306C208.045 51.1854 195.434 50.4325 189.411 48.4876C186.4 47.4838 181.757 45.978 180.314 43.4684ZM267.334 43.4684H277.874C281.262 45.0369 286.532 52.0638 288.853 55.2008C296.884 66.3057 308.993 89.0802 304.413 109.722C300.774 126.034 292.179 137.766 280.509 146.048C274.8 150.063 268.338 152.573 260.056 154.078C252.527 155.459 243.304 153.514 239.728 158.721C237.344 162.172 240.481 166.877 241.736 169.261C244.496 174.72 245.563 179.927 246.755 187.33C246.755 190.091 246.818 192.852 246.881 195.675C246.002 184.382 241.359 175.786 236.215 168.76C234.082 165.874 229.125 160.352 231.321 154.894C234.96 145.922 248.825 149.561 259.303 147.491C265.514 146.299 270.722 144.291 275.302 141.405C288.665 132.998 304.162 112.67 298.264 88.7037C296.821 82.7435 294.876 77.4106 292.618 72.3287C289.23 64.7372 282.391 54.6988 276.243 49.7424C274.423 48.3621 272.604 46.9191 270.847 45.5388L267.334 43.4684ZM290.422 43.4684C291.802 43.4684 295.567 42.9665 296.382 43.7194C300.397 46.9819 303.66 54.3851 306.42 59.0279C318.906 80.1084 329.634 125.72 313.447 151.569C308.993 158.658 302.029 161.858 295.253 166.626C288.038 171.646 281.262 178.484 277.686 187.08C275.176 193.228 274.737 200.255 273.482 207.909C273.231 211.799 273.043 215.752 272.792 219.641C272.541 224.096 272.353 228.55 272.102 233.005C271.851 236.769 271.663 240.596 271.412 244.361C270.847 248 271.412 252.517 272.102 255.34C277.811 281.189 305.793 272.594 318.278 289.533C325.619 299.509 324.239 315.633 326.999 330.565C327.94 335.584 328.568 340.541 329.885 345.246C331.516 351.018 334.716 358.233 333.21 364.633C331.203 373.228 322.921 375.298 318.404 381.384C314.765 386.341 312.506 392.301 309.557 398.01C304.413 408.174 297.825 417.648 288.853 424.047C282.642 428.439 268.275 434.462 262.691 424.988C261.75 423.357 260.746 420.283 261.248 417.334L262.064 413.256C265.012 403.343 272.792 397.822 277.372 389.352C280.823 382.953 282.83 375.549 284.524 367.331L285.591 355.849C286.093 352.085 285.591 348.132 285.089 345.183C284.901 342.611 284.713 339.976 284.587 337.404C283.207 329.436 282.517 321.531 280.634 314.19C279.693 310.551 276.243 301.642 277.999 298.631H278.25C281.764 297.815 283.144 302.27 284.085 304.716C287.159 312.747 287.85 322.346 289.606 331.632C292.869 348.948 292.053 369.966 286.469 384.145C283.144 392.552 278.25 399.328 273.921 406.606C271.286 410.997 268.902 419.53 275.929 421.098C279.882 421.977 283.771 419.342 285.967 418.087C294.814 412.88 298.641 404.849 303.66 395.752C307.362 389.101 309.997 381.321 314.514 375.424C317.776 371.095 323.988 368.523 325.995 363.127C328.066 357.543 325.807 349.763 324.552 344.807C322.168 335.271 322.482 324.605 320.6 314.19C318.717 303.713 317.149 294.866 310.31 289.533C300.397 281.816 284.148 280.248 274.423 272.343C268.902 267.888 267.396 261.112 265.953 252.391C265.389 248.815 265.702 244.486 266.204 241.036C266.518 236.079 266.832 231.06 267.145 226.104L267.522 215.94C268.965 206.968 268.4 197.557 270.659 189.652C272.667 182.813 275.804 177.669 279.631 172.775C289.418 160.415 304.852 158.407 311.816 142.409C322.356 118.191 313.322 79.23 303.095 61.7257C300.523 57.3339 297.951 52.9421 295.065 48.9268C293.559 47.1073 292.053 45.2879 290.547 43.5312L290.422 43.4684ZM305.605 43.4684C306.985 43.4684 310.624 43.0293 311.44 43.7194C312.632 44.786 313.196 46.4172 314.075 47.7975C316.647 51.9383 318.906 56.2673 321.478 60.5964C326.121 68.5016 329.885 77.3479 332.834 86.8843C338.857 106.334 340.363 138.519 330.701 154.894C327.564 160.227 323.047 165.183 317.902 168.509C311.44 172.649 303.723 175.661 299.017 181.558C291.049 191.597 287.473 208.599 287.912 226.417L287.536 238.714C287.975 247.31 288.665 253.96 292.555 258.916C296.821 264.375 305.04 265.504 311.816 268.39C320.537 272.092 328.066 277.174 332.646 285.016C339.359 296.372 337.539 314.88 340.676 330.189C342.37 338.219 344.315 345.372 347.139 352.085C349.021 356.539 352.22 362.625 350.84 368.836C348.142 381.133 335.908 384.647 329.446 393.368C323.36 401.586 320.223 412.754 314.263 421.224C303.66 436.281 286.218 445.316 264.887 449.708C255.915 451.59 244.559 450.837 240.732 444.689C239.101 442.053 238.85 439.167 238.222 435.466C237.783 432.58 237.783 428.69 238.348 425.553C238.975 422.792 239.603 420.032 240.167 417.209C244.057 405.288 253.405 398.951 259.679 389.478C267.961 377.118 274.925 356.602 271.412 335.208C271.161 332.008 270.91 328.808 270.596 325.546C267.836 311.053 264.008 297.94 254.472 290.286C252.276 288.53 250.08 286.773 247.884 285.016C241.422 280.436 233.893 277.425 230.882 269.457C227.996 261.928 231.384 251.952 233.141 245.678C234.082 241.475 234.96 237.208 235.901 233.005C239.665 214.999 237.658 192.412 230.505 179.676C228.623 176.602 226.741 173.528 224.859 170.454C222.475 167.066 219.401 164.054 217.456 160.29C214.256 153.953 215.887 146.989 223.667 146.299C219.902 150.879 219.589 156.023 222.851 161.607C225.11 165.434 228.121 168.822 230.631 172.461C234.584 178.045 237.658 184.633 239.854 191.848C243.932 205.149 243.43 225.476 240.356 239.655C238.85 246.619 235.65 257.85 237.846 265.692C240.732 275.919 251.962 282.569 259.366 288.53C268.024 295.494 271.851 308.418 274.674 321.28C279.756 344.431 276.933 370.969 267.522 386.654C261.562 396.63 252.402 403.845 247.822 415.013C241.109 431.576 246.881 444.689 266.832 440.485C286.407 436.344 301.652 427.184 310.812 412.629C315.455 405.288 318.153 396.191 323.235 389.289C329.258 381.071 340.614 378.31 343.186 366.703C344.692 359.927 341.555 353.653 339.861 348.885C337.728 342.925 336.41 336.651 335.093 329.875C332.395 315.884 334.214 298.819 328.066 288.404C323.486 280.562 315.643 275.354 306.546 272.029C299.582 269.519 293.245 267.825 288.226 263.559C283.332 259.418 282.893 252.893 281.638 244.925C281.701 241.349 281.827 237.773 281.889 234.26L282.266 226.605C282.517 221.461 282.768 216.316 283.081 211.172C282.768 197.933 289.104 181.809 296.257 176.037C308.052 166.501 320.6 163.929 327.25 148.683C339.045 121.642 328.317 81.4887 316.835 61.8512C314.388 57.6476 311.879 53.5068 309.432 49.3032C308.052 47.2956 306.734 45.3506 305.354 43.343L305.605 43.4684ZM321.729 43.4684H329.634C333.775 52.3775 339.233 60.4709 343.249 69.8818C349.836 85.4413 352.534 103.761 352.471 125.971C352.095 130.488 351.781 135.006 351.405 139.586C350.025 146.801 348.582 153.514 345.758 159.286C339.986 171.018 329.258 176.853 319.596 184.633C311.565 191.095 307.55 202.137 305.103 214.183C304.162 218.763 303.033 225.413 303.911 231.185C305.417 240.659 306.232 245.176 311.063 251.137C315.204 256.281 321.792 258.665 327.689 262.116C336.096 267.01 343.437 272.029 347.515 281.252C349.774 286.396 350.652 292.168 351.719 298.693C351.969 302.019 352.158 305.406 352.409 308.732C352.597 312.935 352.785 317.202 352.911 321.405C354.354 330.565 355.044 338.972 357.93 346.375C360.816 353.653 369.223 363.19 366.274 373.855C364.455 380.38 358.934 383.706 354.103 387.344C348.895 391.234 343.939 396.065 340.112 401.335C332.395 411.938 327.752 425.678 322.168 438.415C317.965 447.951 312.255 456.421 305.668 463.636C297.762 472.294 287.536 478.442 274.8 482.27C269.969 483.713 264.761 484.026 259.366 484.905C247.696 486.787 231.572 484.277 225.173 479.76C216.452 473.612 215.636 464.201 215.95 450.586C216.264 444.5 216.577 438.415 216.891 432.392C217.267 434.776 217.707 437.16 218.083 439.544L218.459 449.582C219.965 458.993 219.84 465.33 224.545 471.353C234.897 484.654 273.357 478.254 285.403 471.227C298.829 463.385 307.424 452.531 315.267 439.167C322.294 427.121 326.246 412.566 334.151 401.398C337.414 396.818 341.429 392.113 345.758 388.599C350.84 384.521 356.738 380.631 359.122 373.793C362.635 363.441 355.671 354.72 353.036 347.254C349.962 338.659 349.334 329.122 347.64 318.582C347.515 315.759 347.389 312.935 347.264 310.112C346.448 303.587 346.511 297.501 345.005 291.604C343.186 284.514 339.986 279.307 336.034 274.413C328.128 264.751 311.063 262.681 303.409 253.144C299.833 248.69 298.327 243.545 297.072 236.518C296.445 233.13 296.257 228.299 296.821 224.786C297.072 221.147 297.261 217.508 297.511 213.807C299.958 200.255 303.597 188.585 312.444 181.433C322.858 173.089 334.842 167.442 340.802 154.643C343.311 149.185 344.629 143.036 345.947 136.323C346.95 131.367 346.762 125.846 346.762 120.199C346.762 96.6717 341.868 77.9125 333.148 62.9177C329.383 56.4555 325.682 49.9934 321.917 43.5312L321.729 43.4684ZM610.959 516.588H606.316C606.316 506.111 605.626 495.131 607.257 485.156C608.198 479.572 609.077 471.918 606.755 467.338C602.426 458.93 588.184 459.119 577.581 456.923C562.022 453.66 548.658 449.896 537.742 442.116C528.142 435.34 520.99 425.992 516.724 413.883C514.591 407.735 514.214 401.022 512.771 393.932C509.634 379 504.49 369.401 490.75 365.135C483.472 362.876 472.806 362.123 464.462 362.374C461.137 362.437 457.874 362.562 454.549 362.625C450.345 362.876 446.079 363.127 441.875 363.441C434.598 363.943 427.383 364.382 420.105 364.884C410.631 366.389 395.636 366.138 387.731 363.692C379.136 360.994 373.175 355.41 368.972 348.383C365.647 342.862 364.015 336.274 362.384 328.997C361.882 324.542 361.443 320.088 360.941 315.633C360.816 311.994 360.69 308.355 360.565 304.654C359.185 295.807 359.686 287.463 356.863 280.499C353.35 271.778 347.201 265.19 339.673 260.422C327.877 253.019 318.717 250.007 315.141 234.009C314.514 231.123 313.761 226.731 314.326 223.029L315.769 212.615C317.776 204.647 321.164 198.059 325.556 192.412C330.199 186.389 336.786 181.872 342.747 177.104C346.574 174.03 349.836 169.387 352.409 165.121C356.11 158.909 357.679 151.82 359.436 143.475C360.314 139.021 360.251 133.939 361.004 129.108V116.811C360.941 113.925 360.816 110.976 360.753 108.09C359.624 101.063 359.561 94.0993 357.992 87.6372C353.726 70.5092 347.515 57.2084 340.174 43.5312V43.4684H346.762C348.331 46.6054 349.836 49.8051 351.405 52.9421C353.789 58.4005 356.236 63.7961 358.243 69.5681C366.149 91.9034 371.607 134.566 362.322 159.851C359.812 166.626 356.048 172.398 351.907 177.543C346.009 184.884 337.539 189.84 331.956 197.62C328.066 203.015 324.991 208.913 323.235 216.504C322.921 219.453 322.607 222.402 322.294 225.351C321.102 232.942 325.682 241.475 329.007 245.678C332.771 250.447 338.167 253.333 343.374 256.658C351.781 261.928 358.494 268.578 362.384 278.428C364.455 283.699 364.768 289.91 365.835 296.372C365.96 299.07 366.086 301.768 366.211 304.403C366.525 308.167 366.839 311.869 367.152 315.633C369.035 326.612 370.415 336.651 375.622 344.117C382.586 354.155 393.942 357.982 411.008 357.982L422.363 357.731C428.888 357.292 435.413 356.853 441.875 356.414C446.644 356.1 451.475 355.786 456.243 355.473C467.285 353.779 484.538 354.971 493.322 357.731C505.117 361.433 512.395 370.468 515.783 382.576C517.979 390.419 518.167 399.641 520.551 407.107C525.194 421.851 533.664 432.643 545.647 439.983C553.427 444.751 562.649 447.575 573.127 449.77C578.209 450.398 583.228 451.025 588.31 451.59C599.415 453.472 611.963 452.029 616.543 460.311C619.429 465.518 616.354 473.737 615.1 478.254C611.9 489.547 610.708 502.409 611.022 516.525L610.959 516.588ZM625.075 516.588H618.989C617.923 498.707 622.189 485.658 627.459 473.674C629.53 468.969 634.988 459.119 631.537 452.531C627.648 445.065 615.1 446.884 605.124 445.253C599.854 444.877 594.584 444.438 589.314 444.061C575.95 441.865 563.716 440.61 554.054 434.964C542.824 428.376 534.479 419.279 529.523 406.48C526.511 398.763 526.198 389.038 523.876 380.631C519.735 365.637 511.454 353.402 497.839 347.881C485.229 342.799 459.694 344.18 444.761 346.689C437.923 347.254 431.147 347.819 424.308 348.383C420.92 348.446 417.532 348.571 414.144 348.634C400.091 349.073 389.174 345.246 383.653 336.337C377.881 326.989 376.501 314.817 374.305 301.768C374.054 298.191 373.803 294.615 373.489 291.102C372.297 284.138 371.544 277.927 369.16 272.343C366.086 265.19 360.879 259.544 354.918 255.152C347.578 249.819 339.673 245.992 335.406 237.585C333.587 234.072 333.022 229.993 332.269 225.288C330.763 216.065 336.159 207.219 339.422 202.325C343.562 196.114 348.958 191.785 354.103 186.64C361.067 179.676 366.839 171.583 370.729 161.544C379.826 138.143 375.246 91.7152 367.027 70.572C364.706 64.6117 362.322 58.9024 359.749 53.2558C358.055 49.9306 356.424 46.6682 354.73 43.343H361.443L364.58 50.3698C367.152 56.8947 369.662 63.4196 372.234 69.8818C379.449 92.5936 384.72 134.315 376.312 160.164C372.736 171.206 366.651 178.798 360.188 186.829C356.424 191.471 351.53 195.173 347.766 199.878C343.939 204.772 336.598 214.685 338.292 224.535C341.116 241.412 349.899 244.361 361.004 252.517C366.588 256.658 371.67 262.43 374.618 269.143C376.94 274.476 377.944 280.311 379.136 286.961C379.575 292.168 380.014 297.376 380.453 302.52C382.336 312.684 384.469 321.844 389.3 329.059C394.821 337.341 403.792 340.666 417.658 340.666L427.006 340.415C432.778 339.913 438.55 339.349 444.322 338.847C460.321 336.086 486.358 334.455 499.91 340.039C516.034 346.626 525.068 361.621 530.276 379.251C532.848 387.972 532.911 398.198 536.236 405.915C540.69 416.33 547.717 423.671 557.065 429.129C569.802 436.595 588.31 438.666 608.387 438.603C621.625 438.603 637.623 437.285 641.513 446.633C645.026 455.166 638.941 466.836 636.117 472.357C631.788 480.764 628.024 489.045 625.828 499.523C624.762 504.668 625.138 510.565 625.138 516.274L625.075 516.588ZM368.407 43.4684C369.348 43.4684 370.478 43.4684 371.042 43.7194L376.877 53.0676C381.708 61.8512 385.786 70.0073 395.385 74.0854C415.274 82.4925 442.691 81.8651 449.655 103.259C452.478 112.043 452.478 125.218 450.596 134.943C447.397 151.255 444.009 165.685 440.181 180.868C437.233 192.412 434.723 209.54 437.797 222.841C439.617 230.872 442.189 237.836 445.075 244.612C447.898 251.325 450.533 257.724 454.737 263.12C465.967 277.613 489.118 274.978 509.509 279.997C532.722 285.769 549.85 294.239 558.634 314.316C561.018 319.774 563.339 326.173 564.03 333.2H563.904C563.088 328.997 560.704 324.354 558.885 320.778C549.098 301.266 532.221 290.976 508.693 285.142C486.985 279.683 462.58 283.259 450.722 267.574C446.079 261.426 443.193 253.521 440.181 245.804C436.605 236.707 433.531 227.609 431.461 216.63C429.39 205.525 431.9 192.914 434.096 183.629C437.923 167.693 442.315 152.886 445.577 135.821C447.208 127.351 447.647 115.431 445.075 107.714C438.927 89.2056 421.422 89.0802 402.726 83.5591C397.519 81.9906 392.311 81.175 388.045 78.6654C377.316 72.3287 374.117 55.0125 368.533 43.4057L368.407 43.4684ZM379.01 43.4684H386.163C387.417 44.786 388.609 46.1035 389.864 47.421C396.828 54.3851 405.235 58.3377 415.211 62.4786C434.849 70.572 455.302 76.8459 461.952 97.9892C465.152 108.028 465.089 122.96 463.019 134.315C459.505 153.137 456.368 169.638 452.729 188.334C450.596 199.376 450.408 214.622 453.545 224.661C455.678 231.562 458.69 237.773 462.642 242.855C470.171 252.517 481.276 258.916 494.326 263.057C519.861 271.088 550.98 272.029 565.598 290.914C569.864 296.435 571.433 302.834 573.001 311.241C573.88 316.009 574.256 323.225 573.378 328.432C573.064 333.137 572.75 337.843 572.437 342.548V350.454C571.37 323.915 572.437 301.328 556.626 288.655C539.498 274.978 515.846 274.413 492.632 267.135C478.892 262.869 467.222 256.783 459.505 246.557C454.235 239.593 450.471 231.123 448.024 221.335C444.448 207.219 447.271 189.777 450.032 177.104C452.165 167.003 454.235 156.839 456.368 146.738C459.443 133.061 462.329 112.67 457.435 98.8048C447.459 70.3837 404.734 72.8933 386.414 52.1892C384.029 49.4914 380.704 46.8564 379.136 43.4684H379.01ZM403.165 43.4684H418.223L426.253 47.7975C430.331 49.8051 434.347 51.7501 438.425 53.7577C455.239 63.4196 468.226 71.5131 474.437 91.9035C477.386 101.44 478.013 116.309 476.006 127.54L473.998 142.032C471.74 154.141 469.418 166.25 467.16 178.359C463.521 196.428 465.716 216.944 473.245 228.927C480.774 240.91 493.008 247.059 508.63 250.948C516.536 252.956 525.131 252.705 533.852 254.274C554.744 257.913 576.264 258.289 591.384 267.449C598.536 271.778 603.995 277.864 606.693 286.585C610.771 299.885 608.7 317.641 612.653 330.816C614.033 335.396 616.103 339.035 618.739 342.297C620.433 343.991 622.064 345.623 623.758 347.317V347.442H623.507C617.17 350.767 610.08 341.545 608.575 338.094C603.807 327.24 606.755 310.363 603.932 296.748C601.987 287.212 598.976 280.311 592.451 275.48C578.962 265.567 560.14 265.002 540.063 261.489C534.165 260.861 528.268 260.234 522.37 259.669C501.29 255.779 482.844 251.89 471.928 238.024C468.038 233.068 464.775 227.358 462.705 220.582C459.317 209.854 459.756 193.793 462.015 182.186C465.403 165.183 467.912 149.687 470.987 132.308C472.932 121.517 473.433 108.592 470.861 98.2402C464.901 74.5246 446.769 64.549 426.253 55.4517C419.854 52.6284 413.58 49.6169 407.745 46.229C406.239 45.3506 404.232 44.7232 403.102 43.4684H403.165ZM439.617 43.4684H453.984C455.364 44.4095 456.682 45.2879 458.062 46.229C463.019 49.5542 467.41 53.0676 471.551 57.2084C479.394 65.1764 485.291 74.901 488.867 87.198C494.702 107.086 489.871 134.755 485.856 153.326C481.59 172.9 476.382 201.761 486.546 218.512C494.577 231.75 506.372 234.197 524.19 237.648L543.576 239.781C563.277 243.357 582.412 245.867 597.721 253.646C606.316 258.038 613.343 264.375 617.107 273.597C622.189 285.957 620.997 305.344 625.138 318.331C627.71 326.424 631.977 333.012 636.494 339.16C638 341.168 641.827 344.305 641.011 347.505C635.365 349.701 628.275 339.6 625.828 335.898C619.303 326.111 618.801 316.762 616.48 302.771C615.225 295.368 615.539 287.965 613.719 281.503C612.025 275.542 609.077 270.962 605.563 266.822C595.462 255.027 573.127 251.45 554.744 247.812C548.972 247.059 543.2 246.306 537.428 245.553C526.637 243.671 515.72 243.984 506.435 241.036C495.643 237.648 487.675 232.064 481.903 223.719C474.876 213.618 472.43 194.922 475.567 178.547C478.704 162.235 480.837 146.424 483.911 129.861C485.605 120.764 486.797 107.965 484.978 98.0519C481.213 77.4106 472.367 64.047 458.188 53.946C454.423 51.6873 450.722 49.366 446.957 47.1073C444.573 45.8525 442.189 44.6605 439.805 43.4057L439.617 43.4684ZM469.418 43.4684H478.264C479.77 44.9114 481.276 46.3545 482.782 47.7975C485.668 51.1854 488.679 54.6988 491.126 58.4632C499.721 72.1405 502.294 86.4451 503.298 106.271C503.799 117.125 501.855 129.171 499.972 138.456C498.216 149.436 496.459 160.478 494.702 171.457C492.444 184.382 493.573 200.694 498.655 209.101C508.505 225.476 526.386 224.096 547.655 228.488C566.916 232.503 584.985 236.33 600.983 243.294C614.472 249.129 624.824 258.54 629.342 273.409C632.541 283.95 632.102 297.564 635.302 307.728C640.258 323.476 649.293 337.216 661.339 345.999C669.244 351.771 679.533 354.469 688.254 359.614C694.214 363.127 699.171 367.456 703.186 372.977C706.198 377.055 709.837 379.565 709.774 386.717C708.08 384.207 706.449 381.698 704.755 379.188C701.053 374.106 696.41 369.213 691.266 365.574C683.109 359.739 672.318 356.853 663.535 351.583C653.183 345.372 644.65 335.898 638.439 325.546C634.361 318.77 631.475 310.928 629.467 302.019C627.334 292.419 627.71 281.064 624.699 272.468C621.436 263.183 615.288 256.658 607.947 251.45C591.886 240.157 568.61 236.393 546.023 231.625C523.186 226.856 504.929 228.99 494.263 211.297C488.93 202.451 487.738 186.578 490.31 173.528C492.695 158.847 495.079 144.228 497.463 129.547C498.341 124.905 498.09 119.948 498.906 114.741C499.408 111.604 499.91 106.835 499.282 103.259C497.965 94.9777 497.776 87.2607 495.581 80.2966C491.753 68.0624 484.162 55.2635 475.253 48.1112L469.418 43.4684ZM709.648 325.169V332.322C705.884 332.698 702.182 333.137 698.418 333.514C687.25 335.333 677.086 329.749 671.628 325.483C663.033 318.707 657.637 307.916 654.751 295.494C651.74 282.883 652.053 268.327 647.724 257.222C642.078 242.73 631.412 233.632 617.484 227.547C603.807 221.524 589.314 217.32 572.876 213.556C568.798 212.928 564.72 212.301 560.579 211.736C554.556 210.858 548.533 209.979 542.51 209.101C525.068 205.274 514.34 200.506 508.191 185.448C502.545 171.646 504.552 150.753 507.689 135.445C508.505 129.485 509.258 123.587 510.073 117.627C510.889 112.921 510.324 107.777 511.14 102.569L511.266 96.2325C510.073 89.0174 510.45 82.2415 508.881 75.9048C505.431 62.1021 500.349 53.3186 493.071 43.7194V43.4684C495.518 43.4684 499.847 42.841 501.792 43.7194C502.733 45.1624 503.737 46.6054 504.678 48.0484C506.811 51.5619 508.756 55.4517 510.324 59.4043C514.653 70.1955 515.846 83.9983 516.159 98.2402C516.787 128.481 500.6 167.003 518.292 189.589C530.025 204.584 556.124 202.702 578.209 207.533C599.854 212.301 618.048 219.139 633.671 229.68C637.435 232.252 641.262 235.013 644.085 238.526C648.979 244.612 652.367 251.513 654.751 260.171C656.947 268.076 657.135 276.86 658.829 285.393C662.217 302.332 667.613 316.951 681.541 323.162C689.885 326.863 699.233 325.86 709.648 325.169ZM709.648 313.312V318.331C702.621 318.707 695.406 319.021 689.823 316.762C663.66 306.159 669.432 270.837 658.39 245.741C651.175 229.303 636.306 221.586 621.311 212.866C616.48 210.042 611.398 207.093 606.128 204.835C599.477 201.886 592.2 200.129 584.106 198.498C579.714 197.996 575.323 197.432 570.931 196.93C559.136 194.985 547.341 196.051 537.804 192.161C529.585 188.836 524.002 182.5 520.614 174.343C514.214 158.596 519.045 135.006 522.057 118.756C526.825 92.9073 524.253 61.2865 514.653 43.5312H522.308C523.625 47.672 525.57 52.001 526.825 56.581C530.84 71.4503 530.715 93.5974 527.766 109.659C526.762 115.745 525.758 121.83 524.755 127.853C521.869 141.154 519.108 159.913 524.378 172.712C527.892 181.307 534.354 187.519 543.639 190.405C551.607 192.852 560.642 191.973 570.053 193.416C573.064 193.542 576.138 193.667 579.15 193.793C582.726 194.169 586.302 194.608 589.816 194.985C596.591 196.365 602.614 197.933 608.136 200.38C615.351 203.58 622.315 207.846 628.84 211.862C642.517 220.206 655.755 227.484 662.531 242.73C674.828 270.586 667.048 316.135 709.648 313.249V313.312ZM709.648 304.967C675.769 304.905 680.286 257.097 667.425 235.013C658.641 219.955 647.222 213.618 632.729 204.521C624.762 199.502 617.233 193.981 608.951 189.213C602.865 185.762 589.565 182.374 579.275 184.068H574.005C567.668 185.072 559.073 184.946 553.301 183.692C543.075 181.496 536.048 176.477 532.472 167.693C527.201 154.831 530.84 136.072 533.664 123.085C534.416 118.066 535.169 113.047 535.922 108.028C538.62 93.4719 539.687 74.5873 536.989 59.718C535.922 53.8832 535.546 48.4249 533.664 43.4684H537.867C543.012 63.8588 544.204 92.5936 539.875 115.431C537.428 128.292 532.911 151.318 538.181 163.489C541.255 170.642 547.404 174.532 555.873 176.288C560.453 177.229 568.108 177.543 573.19 176.665H580.467C591.823 177.041 602.175 176.916 609.641 181.307C617.421 185.887 623.507 192.412 630.785 197.557C637.937 202.012 645.152 206.466 652.304 210.921C660.147 216.379 666.107 222.841 671.063 231.248C675.706 239.153 678.467 249.192 681.227 258.728C684.552 270.335 686.686 282.13 694.026 289.596C696.787 292.419 700.551 294.615 704.88 295.807C706.574 296.058 708.205 296.309 709.899 296.623V305.093L709.648 304.967ZM549.411 43.4684L551.67 43.5939C552.109 45.8525 552.548 48.1112 552.987 50.3071C553.364 53.8205 553.677 57.3339 554.054 60.8473C554.87 65.741 554.493 75.7166 553.803 80.2339C553.615 83.2454 553.427 86.1941 553.301 89.2056C552.235 97.6755 551.168 106.083 550.164 114.552C548.094 125.344 544.016 144.793 548.596 155.208C551.858 162.611 561.959 165.058 573.001 163.238C589 160.666 609.892 159.6 621.436 166.564C629.969 171.646 634.674 180.241 642.266 186.264C651.049 193.165 661.276 198.686 669.997 205.65C674.389 209.164 677.526 214.371 680.412 219.39C690.889 237.334 689.572 271.339 709.711 279.056V286.459C705.947 285.204 703.186 284.138 700.488 281.942C695.281 277.801 693.085 270.649 690.45 263.873C685.368 250.823 683.172 235.389 676.459 223.845C666.985 207.595 652.994 201.761 638.564 190.844C631.036 185.135 625.954 176.916 617.735 171.959C612.778 168.948 607.132 168.007 600.168 166.815C596.09 166.124 590.443 166.626 586.804 167.191C583.793 167.442 580.718 167.63 577.707 167.881C563.967 170.077 550.164 168.007 545.898 158.094C541.82 148.683 545.584 130.802 547.717 121.015C549.976 110.663 549.725 100.06 551.544 88.9547C552.297 84.3747 552.736 78.1635 552.36 73.7717V65.1764C551.168 57.8358 551.733 49.9306 549.474 43.4057L549.411 43.4684ZM570.115 43.4684C570.492 46.7936 570.805 50.0561 571.182 53.3813C571.245 55.6399 571.37 57.9613 571.433 60.2199L571.307 64.298C570.743 69.5054 571.307 74.4618 570.492 79.23C570.115 83.2454 569.802 87.2607 569.425 91.2133C567.794 100.311 566.916 109.471 564.782 117.878C563.214 124.089 558.383 140.84 562.022 146.55C564.281 150.126 570.241 151.004 576.013 150C584.922 148.369 596.529 146.048 606.881 147.867C623.507 150.816 640.07 153.577 655.065 158.282C658.641 159.411 668.428 162.674 667.362 167.505C666.609 171.018 661.276 170.83 658.264 169.512C651.112 166.313 645.277 160.478 636.996 158.157L637.247 158.533C645.842 161.482 645.026 176.727 657.449 179.551C665.291 181.307 672.946 173.716 671.565 165.811C670.812 161.482 668.679 158.596 666.421 155.772C659.833 147.616 646.344 147.303 633.922 144.793C618.927 141.844 602.552 138.394 595.399 127.602C590.255 119.948 591.572 106.585 593.392 96.1697C596.466 78.9791 595.839 60.7218 594.207 43.343H598.725C598.725 54.0087 601.297 66.6821 599.54 77.6615C599.164 82.5552 598.725 87.4489 598.348 92.3426C595.337 109.471 595.023 123.336 606.693 131.555C613.28 136.198 622.628 138.394 631.663 140.276C646.971 143.413 663.284 142.848 671.377 152.949C677.526 160.666 679.784 173.59 671.001 180.555C669.244 181.935 667.236 183.064 664.664 183.566L661.652 183.817V183.943C664.789 184.633 669.369 188.272 671.942 190.028C680.976 195.989 687.501 203.329 691.767 214.058C696.473 225.853 697.477 240.722 702.433 252.454C704.378 257.097 706.888 259.481 709.711 262.994C709.711 265.253 709.648 267.512 709.586 269.708C696.034 261.677 694.591 228.425 686.372 213.493C682.67 206.78 678.216 200.819 672.13 196.49C665.103 191.534 656.508 188.397 649.795 183.127C641.325 176.477 636.808 165.874 627.459 160.039C614.911 152.196 593.203 152.761 576.138 155.961C567.606 157.529 558.508 157.215 555.685 150.314C552.423 142.346 557.128 128.418 558.697 121.015C560.077 112.043 561.52 103.071 562.9 94.0993C563.277 90.2095 563.59 86.2569 563.967 82.367C564.343 77.1596 564.657 71.8895 565.033 66.6821C564.531 58.6514 565.786 50.4953 563.716 43.4684H570.178H570.115ZM585.863 43.4684C585.988 50.1816 587.494 57.4594 587.181 64.4862V74.901C587.181 77.4733 587.118 80.1084 587.055 82.6807C585.612 92.4054 585.612 102.82 583.918 112.231C582.977 117.25 582.412 124.026 584.294 128.355C586.365 133.061 592.764 136.7 598.034 138.143L597.783 138.394C593.454 137.264 583.855 140.338 580.342 141.28C578.021 141.907 574.57 142.848 572.437 141.28C568.359 138.268 574.444 124.152 575.762 120.011C578.397 111.478 579.338 101.879 581.032 92.0289C581.283 87.8254 581.534 83.6846 581.848 79.481C582.851 73.2698 582.663 65.8665 581.973 59.5298C581.408 54.2597 581.659 48.4249 580.656 43.4057H585.926L585.863 43.4684ZM606.316 43.4684H610.959C611.335 52.6912 611.649 61.8512 612.025 71.0739C612.088 93.4092 609.077 111.353 623.758 120.074C634.486 126.41 651.049 125.093 665.229 128.418C672.067 129.986 677.463 132.371 682.106 136.072C698.292 148.997 696.536 182.939 702.433 206.592C703.688 211.548 704.88 216.693 706.637 221.273C707.452 223.28 709.084 225.351 709.648 227.233V236.079C704.002 231.687 702.245 221.649 699.861 214.058C695.72 200.569 693.838 185.197 689.823 171.708C687.564 164.054 686.184 156.714 682.545 150.565C678.906 144.417 673.824 139.899 666.546 137.39C660.774 135.382 654.186 135.319 647.411 134.064C635.365 131.869 623.82 130.802 615.602 124.967C605.814 118.066 603.932 103.322 606.504 87.4489C606.755 82.6807 606.943 77.8498 607.194 73.0816C608.073 63.4824 606.379 53.5068 606.253 43.6567L606.316 43.4684ZM618.989 43.4684H625.075C626.267 65.1764 624.009 94.3503 637.247 104.075C647.912 111.917 664.915 109.157 680.035 112.67C696.159 116.435 705.696 125.72 709.711 141.468V169.952C709.711 179.363 709.648 188.773 709.586 198.184C706.386 174.532 707.264 138.143 692.583 126.473C686.811 121.893 679.784 119.885 670.812 118.317C667.299 118.066 663.786 117.878 660.272 117.627C650.422 116.121 642.015 116.748 634.674 112.984C625.765 108.467 623.193 100.311 621.185 88.7037C620.934 85.4413 620.746 82.1788 620.495 78.9163C620.433 74.7128 620.307 70.572 620.244 66.3684C619.868 58.7142 619.429 51.0599 619.052 43.4057L618.989 43.4684ZM638 43.4684C638.439 63.5451 641.011 81.9906 652.681 90.9624C663.033 98.993 678.529 97.9892 692.96 101.942C696.975 103.008 700.927 104.389 704.19 106.271C706.009 107.526 707.892 108.843 709.711 110.098C709.711 112.984 709.648 115.807 709.586 118.693L709.46 118.442C708.08 117.062 706.762 115.745 705.382 114.364C702.182 111.792 698.418 109.533 694.277 107.902C686.121 104.702 676.334 104.577 666.672 102.506C654.249 99.8086 643.96 94.7267 639.317 84.312C636.243 77.2851 635.929 70.572 634.423 61.4747C633.608 56.581 632.792 48.4876 633.357 43.5312H638V43.4684ZM646.971 43.4684H653.685C653.371 65.6155 662.217 79.9202 679.031 85.0648C687.627 87.6999 698.983 87.3235 709.648 87.3235V93.4092C667.864 93.8484 646.846 85.504 646.971 43.5312V43.4684ZM663.095 43.4684H665.981C666.483 48.2994 668.491 53.1931 670.499 56.832C677.902 70.5092 689.509 73.5207 709.711 73.458V80.0457C687.564 80.2966 673.824 76.344 667.174 61.161C665.04 56.2673 663.221 50.3698 663.095 43.4684ZM709.648 43.4684V51.1227C696.222 51.7501 679.784 52.5029 674.514 43.4684H709.648ZM709.648 60.4709V65.992C698.418 66.1802 684.929 63.9843 680.976 56.8947V56.7692H681.102C683.423 57.7103 685.744 58.5887 688.129 59.5298C691.328 60.4081 694.904 60.2827 698.543 60.8473C702.245 60.7218 705.947 60.5964 709.648 60.4709ZM271.286 75.152C272.29 76.5322 272.478 78.6654 272.98 80.5476C275.804 91.1506 270.533 99.1813 265.953 104.828C259.742 112.545 251.712 114.615 239.54 116.56C236.215 116.623 232.827 116.748 229.502 116.811C223.228 117.815 216.703 117.188 210.743 118.254C198.634 120.513 188.47 124.089 182.259 132.12C180.878 133.939 179.624 136.135 178.683 138.331C176.8 142.974 177.177 149.749 179.498 153.639C181.882 157.655 185.584 160.917 189.16 163.803C193.552 167.379 198.006 172.273 201.457 176.727C205.598 182.123 209.299 188.334 211.495 195.612C220.216 224.41 207.041 251.45 189.16 262.43C168.205 275.291 117.762 273.221 99.0032 259.795C88.9648 252.58 85.7023 238.714 73.6563 233.507C67.6333 230.872 57.2185 229.115 48.184 230.495C39.9024 231.75 28.421 232.189 21.1432 229.993C8.34434 226.041 3.38791 213.179 -3.18389e-05 199.753V169.261C-3.18389e-05 160.352 0.0627078 151.506 0.125447 142.597C0.690104 145.671 1.25476 148.746 1.81942 151.82L2.88599 162.486C3.13695 167.254 3.38791 172.085 3.70161 176.853L4.76818 189.275C6.33667 198.247 7.77969 206.152 11.795 212.489C15.4967 218.324 20.8923 222.339 28.672 224.096C34.1303 225.288 42.412 225.727 48.6232 224.786H54.1443C61.2966 224.786 67.4451 225.351 72.9035 227.045C89.5922 232.315 89.9059 246.055 101.575 254.65C105.654 257.662 110.61 260.108 115.943 261.802C131 266.445 162.496 267.449 177.616 262.179C183.451 260.108 188.721 257.285 192.924 253.584C204.845 243.231 213.127 219.955 207.041 197.871C204.72 189.526 200.704 182.562 195.685 176.853C187.215 167.191 167.264 157.655 173.789 137.515C174.667 134.88 176.047 132.371 177.49 130.237C184.078 120.513 195.748 116.497 209.425 113.737C213.503 113.298 217.581 112.858 221.722 112.419C231.07 110.914 241.109 112.482 248.888 110.035C260.432 106.396 268.839 97.4245 271.349 84.6884C271.914 81.6769 271.475 77.5988 271.349 75.0265L271.286 75.152ZM638 516.588H633.231C632.792 493.186 640.697 480.074 650.799 467.463C656.822 459.934 669.809 449.457 665.291 434.838C662.092 424.486 652.681 419.342 641.388 417.02C638.564 416.769 635.741 416.581 632.918 416.33C629.843 416.33 626.769 416.267 623.695 416.205C617.923 416.456 612.151 416.644 606.379 416.895C604.12 416.895 601.862 416.958 599.666 417.02C596.278 416.769 592.89 416.581 589.502 416.33C582.726 415.138 576.577 414.009 570.994 411.687C558.571 406.48 549.976 396.63 543.388 385.525C539.624 379.188 536.801 371.911 533.726 364.946C527.578 350.956 517.79 337.09 503.737 330.879C484.978 322.597 455.678 325.797 433.907 329.561C413.266 333.137 399.338 327.742 393.252 314.002C391.307 309.61 389.802 304.842 388.609 299.76C388.045 295.18 387.48 290.6 386.915 286.02C385.347 277.236 384.155 269.331 380.453 262.806C377.379 257.285 373.426 252.015 368.596 248.313C360.251 241.914 344.817 234.824 348.393 217.947C350.84 206.278 358.369 200.631 364.643 192.852C371.544 184.256 378.885 176.226 382.712 164.493C384.657 158.407 385.723 151.883 386.915 144.981C387.166 141.719 387.355 138.456 387.606 135.194C388.108 131.931 388.296 126.912 387.731 123.462C386.915 118.129 385.033 99.9969 387.48 96.2952C389.362 93.4092 394.193 92.9073 398.711 93.7856C407.557 95.5424 416.089 97.2991 423.242 100.812C429.077 103.636 434.598 107.588 436.982 113.862C441.624 126.222 436.856 146.111 433.531 156.902C429.955 168.634 426.316 179.864 422.677 191.346C420.795 197.243 417.721 206.905 419.101 215.124C421.109 226.919 425.124 235.954 427.947 246.933C431.147 259.607 430.896 274.915 439.805 281.754C441.938 283.385 444.573 284.765 447.459 285.581C449.279 285.894 451.098 286.208 452.855 286.522C448.463 286.836 443.444 287.212 439.805 285.832C426.441 281.001 425.94 259.983 421.611 246.118C420.105 241.287 418.285 236.581 416.34 232.127C413.58 225.727 408.937 217.446 410.819 207.972C411.949 202.263 413.517 197.306 415.588 192.538C419.979 182.123 424.12 171.144 427.759 159.662C429.327 154.518 430.143 149.436 431.461 143.977C433.406 136.009 434.535 124.277 431.21 117.188C427.884 110.161 420.042 106.271 412.074 103.824C407.055 102.318 397.581 100.499 394.507 104.891C390.931 109.972 392.938 122.018 392.938 129.861C392.938 143.601 391.37 155.333 387.919 165.623C383.904 177.606 376.124 185.887 369.035 194.796C363.451 201.886 356.612 207.784 354.667 218.575C352.158 232.44 364.58 238.15 371.544 243.42C377.065 247.561 381.332 252.893 384.908 258.979C388.358 264.877 390.115 272.343 391.746 279.997C393.817 289.471 394.068 299.07 397.707 306.661C400.781 313.123 405.361 318.707 412.388 321.154C421.548 324.354 437.358 322.221 446.957 320.339C466.093 316.637 492.255 316.7 506.748 324.04C521.367 331.506 530.527 345.246 537.24 360.617C540.377 367.895 543.012 375.424 546.902 382.012C552.736 391.862 560.077 399.453 569.99 405.225C575.95 408.739 583.353 409.743 591.51 411.186C593.956 411.311 596.341 411.437 598.787 411.562C602.677 411.562 606.63 411.625 610.52 411.687C613.531 411.562 616.48 411.437 619.491 411.311C626.016 410.307 635.365 410.307 641.827 411.562C656.32 414.448 667.613 420.22 671.691 433.333C676.647 449.645 664.099 461.503 657.01 469.533C646.344 481.579 638 493.688 638 516.651V516.588ZM278.815 96.4207C280.195 100.75 274.486 111.541 272.855 113.988C267.585 121.893 260.621 127.414 249.641 129.673C245.061 130.614 239.352 130.175 234.082 130.175C216.828 130.175 200.955 130.237 193.301 140.088C190.917 143.162 186.839 148.997 188.533 155.271C185.584 153.827 182.949 147.993 184.455 143.099C186.274 137.201 190.791 132.872 195.81 130.175C203.59 125.971 219.714 123.775 231.321 124.654C237.281 125.093 245.877 125.03 251.272 123.587C265.326 119.823 274.172 109.533 278.878 96.4207H278.815ZM-3.18389e-05 110.537C4.01531 112.482 7.08955 119.509 8.84626 124.026C17.0652 145.169 6.52489 174.783 14.1164 196.114L13.8654 196.24C13.3635 192.852 12.2342 188.523 11.4813 184.758C11.1676 180.868 10.8539 177.041 10.5402 173.151V165.623C10.9167 157.215 10.4775 147.804 8.97174 140.527C7.77969 134.692 6.21119 128.794 3.57613 124.277C2.57229 122.583 0.752844 120.764 -3.18389e-05 119.132V110.537ZM653.685 516.588H646.971C646.407 487.038 665.291 478.192 675.894 460.06C684.301 445.755 682.984 429.819 673.51 417.961C667.299 410.182 657.763 406.166 645.905 403.97C639.568 402.778 626.581 402.653 619.868 403.72C616.543 403.782 613.28 403.908 609.955 403.97C606.128 403.97 602.301 404.033 598.474 404.096C588.435 402.465 581.157 401.963 573.629 398.136C553.74 388.035 549.411 370.154 540.377 349.575C535.107 337.655 527.641 326.487 517.79 319.084C504.239 308.92 480.209 305.03 457.058 309.171C446.267 311.116 426.943 315.445 416.403 310.865C400.593 304.089 402.475 279.558 396.452 262.932C393.503 254.776 389.237 247.247 382.963 242.353C376.375 237.208 368.407 233.507 365.772 224.41C363.388 216.065 367.403 208.223 370.54 203.141C378.697 189.84 390.115 180.304 396.138 164.995C398.522 159.035 399.15 152.071 400.342 144.918C400.593 141.656 400.781 138.394 401.032 135.131C402.412 126.536 400.342 118.693 406.553 114.929C409.69 113.047 415.023 114.364 417.658 115.745C428.324 121.266 426.316 136.637 423.179 148.871C419.226 164.305 413.831 178.296 406.553 190.467C401.91 198.184 393.44 208.913 391.746 218.7C390.617 225.351 402.851 230.872 405.988 234.824C412.89 243.42 415.525 256.532 418.913 268.641C420.544 274.413 421.611 280.311 424.559 284.765C429.578 292.357 439.303 294.364 451.6 292.043C473.371 287.902 499.094 289.031 517.1 296.121C535.169 303.211 546.776 316.951 554.43 334.392C562.085 351.834 564.03 369.338 579.777 379C584.985 382.2 591.07 383.643 598.285 384.96C600.92 385.086 603.556 385.211 606.191 385.337C608.575 385.337 610.959 385.4 613.343 385.462C616.543 385.4 619.742 385.274 623.005 385.211C627.271 384.521 633.482 384.396 637.937 385.086C642.831 385.839 647.661 385.776 652.179 386.78C662.405 389.038 670.373 392.991 677.275 398.512C690.764 409.303 701.241 435.027 694.026 459.119C692.081 465.518 689.885 471.667 686.748 476.937C684.113 481.454 681.102 485.971 679.094 491.053C674.451 502.974 679.094 514.643 690.324 516.4V516.525H674.2C673.071 514.455 671.754 512.51 671.063 509.938C667.236 495.633 680.725 478.129 685.744 469.533C698.669 447.386 692.834 416.33 675.957 403.029C668.993 397.508 660.962 393.932 650.61 391.674C647.222 391.297 643.834 390.858 640.446 390.481H627.271C623.883 390.607 620.495 390.732 617.107 390.858H612.214C600.356 392.677 584.545 389.038 577.77 385.023C559.199 374.106 558.007 357.606 549.286 337.655C541.757 320.589 530.338 307.351 512.834 300.136C496.145 293.298 471.928 293.423 452.102 296.999C438.676 299.446 426.253 298.631 420.293 290.161C416.34 284.451 415.274 276.672 413.015 269.143C410.317 260.108 407.745 250.886 403.102 243.671C400.467 239.593 397.142 235.515 393.315 232.566C388.609 228.99 383.026 226.605 381.834 219.516C380.391 210.921 391.307 199.878 394.883 195.236C404.796 182.374 411.196 169.952 416.403 152.071C418.16 145.985 421.171 133.249 418.411 126.598C417.344 124.026 414.145 120.826 410.757 123.148C406.929 125.783 408.247 132.496 407.306 138.205C405.486 149.624 404.796 159.725 400.969 168.697C394.946 182.75 384.908 191.471 376.689 203.141C373.301 207.909 368.721 215.626 371.419 223.845C374.117 232.189 382.273 235.452 388.421 240.345C394.319 245.051 398.271 253.144 401.22 260.673C407.055 275.542 406.741 298.003 421.297 304.089C429.202 307.414 441.813 305.783 450.596 304.214C454.863 303.713 459.129 303.148 463.395 302.646C467.285 302.458 471.238 302.27 475.127 302.144C478.829 301.579 483.848 301.956 487.299 302.52C501.666 304.905 510.889 306.724 520.551 313.751C531.468 321.719 538.934 333.89 544.58 347.128C552.485 365.762 556.187 383.706 574.821 391.736C580.844 394.309 594.96 398.073 603.995 396.63C606.755 396.63 609.516 396.567 612.339 396.504C616.229 396.316 620.182 396.128 624.071 396.003C629.091 395.25 637.937 395.187 642.956 396.003C659.206 398.7 671.189 402.778 679.408 413.319C682.231 416.958 684.615 421.224 686.246 425.992C687.188 428.815 687.689 432.015 688.254 435.215C690.011 445.818 685.682 457.362 682.043 463.448C679.596 467.651 677.149 471.353 674.263 475.055C664.727 487.226 653.559 494.316 653.559 516.525L653.685 516.588ZM78.6755 114.49C82.2517 119.007 80.8087 129.422 78.2991 133.751C72.1506 144.291 61.7358 148.808 58.4733 162.674C58.0969 164.368 57.4695 166.877 57.7832 169.136C59.038 176.79 62.5514 180.806 68.6372 183.503C71.2722 184.633 75.9777 186.076 77.6089 188.272C71.1467 187.142 63.4298 187.142 58.5988 184.319C50.8191 179.739 50.129 167.756 53.9561 158.157C55.901 153.326 58.5988 149.373 61.6103 145.609C68.8254 136.574 80.3067 131.618 78.6128 114.427L78.6755 114.49ZM35.1342 121.328L36.2008 121.454C40.2161 123.085 41.3454 130.614 39.526 135.445L37.0164 139.774H36.7654C37.0791 133.939 33.7539 126.348 34.7577 121.579L35.1342 121.328ZM305.981 129.798L306.107 130.175H305.981V129.798ZM305.856 130.175C306.483 132.371 302.029 140.401 300.962 142.158C298.264 146.801 295.253 150.753 291.049 153.89C284.273 159.035 275.929 162.611 270.471 169.073C266.518 173.716 263.381 178.735 261.373 185.448C257.672 197.933 259.303 213.556 257.044 227.798C256.542 234.072 255.978 240.408 255.476 246.682C255.35 249.819 255.225 253.019 255.099 256.156C258.362 276.672 270.471 280.624 287.473 287.024C292.555 288.906 297.511 290.725 301.464 293.737C311.691 301.579 310.499 314.943 313.322 330.063C314.388 337.027 315.455 343.991 316.459 350.893C315.079 345.058 313.636 339.16 312.255 333.326C309.181 320.589 307.801 304.465 298.641 297.69C294.061 294.302 288.289 292.733 282.517 290.412C268.839 285.016 255.225 279.432 250.331 265.316C247.382 256.909 249.327 243.294 250.833 234.448C251.21 229.303 251.649 224.159 252.025 219.014C252.402 213.367 252.715 207.721 253.092 202.137C255.539 187.142 256.041 177.857 264.197 168.446C270.157 161.607 278.878 158.094 286.783 153.137C294.249 148.495 303.158 139.146 305.919 130.049L305.856 130.175ZM261.875 160.666H262.691L262.565 160.917C255.852 161.607 250.143 170.391 249.516 177.543H249.39C248.7 171.771 244.873 163.176 252.025 161.043C255.35 160.917 258.613 160.792 261.938 160.666H261.875ZM680.914 180.743C685.995 181.307 691.077 190.593 691.893 195.8H691.767V195.549C690.638 193.981 689.572 192.35 688.442 190.781C685.87 187.77 682.043 184.256 678.027 182.75L678.278 182.374C679.094 181.998 680.035 181.307 680.914 180.806V180.743ZM500.725 189.213L500.851 189.589H500.725V189.213ZM500.851 189.84C501.666 191.91 502.545 193.981 503.36 196.051C506.435 201.51 510.701 205.839 516.034 208.976C527.076 215.501 543.388 215.563 558.132 218.638C581.157 223.469 603.367 227.672 620.433 238.338C629.906 244.235 636.494 251.89 640.76 262.994C644.713 273.284 643.834 287.4 646.72 298.756C649.544 310.049 653.873 319.146 660.084 326.989C666.546 335.208 675.33 340.227 688.066 342.297C695.406 343.489 702.747 341.294 709.711 342.172C709.711 350.077 709.648 357.92 709.586 365.825V365.574C708.895 364.068 708.268 362.562 707.578 361.057C706.072 357.606 703.814 354.092 700.739 352.21C695.783 349.199 686.372 350.203 680.412 348.383C670.122 345.246 661.464 338.596 655.567 330.942C648.979 322.346 644.525 312.559 641.325 300.45C638.313 289.157 639.129 275.417 635.239 265.441C630.032 252.203 619.742 243.231 607.006 237.585C591.196 230.621 573.19 226.794 554.054 222.653C545.71 221.335 537.302 220.018 528.958 218.7C514.089 214.999 501.353 207.658 500.851 189.777V189.84ZM13.9909 196.177L14.2419 197.118H14.1164L13.9909 196.177ZM14.4928 197.808L14.7438 198.498H14.6183V198.247L14.4928 197.871V197.808ZM-3.18389e-05 227.484C3.07421 230.809 4.9564 234.699 8.97174 237.146C11.2304 238.463 15.7476 238.714 17.4416 239.781C13.1126 239.781 8.78352 240.91 4.76818 239.279C2.94873 238.526 1.69394 237.02 -3.18389e-05 236.267V227.547V227.484ZM47.3684 238.024C49.9407 238.024 52.4503 238.087 55.0226 238.15C62.6769 239.404 68.9509 240.408 74.0328 244.11C79.8676 248.313 83.1928 254.838 87.6473 260.485C92.29 266.445 98.564 270.962 106.155 273.974C113.81 277.048 122.907 277.676 132.192 279.244C136.898 279.62 141.603 280.06 146.309 280.436C151.328 280.813 156.347 281.126 161.366 281.503C169.209 282.82 176.989 282.946 184.455 284.514C213.44 290.6 240.669 297.627 248.763 324.542C249.955 328.495 250.018 332.761 250.77 337.341C251.712 343.239 250.331 351.583 249.327 356.226C247.884 362.688 246.567 368.523 243.681 373.542C236.717 385.462 226.176 393.367 219.15 405.225C211.621 417.961 210.115 434.462 204.782 449.582C201.269 459.558 196.501 468.279 193.928 479.133C192.172 486.661 193.489 494.629 197.065 498.958C205.159 508.62 226.302 502.974 241.422 505.421C249.829 506.801 257.672 506.989 264.51 509.624L273.482 513.702C274.862 514.643 276.305 515.522 277.686 516.463V516.588H266.832C263.758 515.522 260.495 513.702 256.919 512.636C252.715 511.381 248.073 511.444 243.179 510.628H229.69C226.239 510.628 222.726 510.691 219.275 510.753C208.107 510.753 198.383 510.44 192.109 505.483C187.152 501.531 184.392 492.245 186.149 482.897C188.47 470.726 192.862 461.754 196.814 451.59C202.21 437.913 204.469 420.973 210.303 407.609C213.127 401.147 217.016 395.375 221.157 390.168C225.612 384.521 231.07 379.816 235.023 373.542C239.289 366.766 241.171 359.363 242.802 349.763C243.681 344.744 243.869 338.596 242.928 333.514C242.112 329.248 241.171 325.483 239.791 322.033C237.47 316.511 234.019 311.367 229.627 307.916C216.828 297.752 200.453 293.298 181.318 289.157C174.542 288.279 167.766 287.4 160.99 286.522C156.786 286.208 152.52 285.894 148.317 285.581C132.883 283.071 116.947 284.138 104.211 279.119C97.121 276.358 91.1607 272.343 86.518 267.135C78.1736 257.662 75.1621 248.251 61.0457 244.047C43.2903 238.714 27.5427 246.745 16.3123 252.517C11.9205 254.713 3.76435 256.03 0.0627078 252.141V245.678C1.50572 246.494 3.01147 247.31 4.9564 247.686C8.72078 248.376 11.9832 246.619 14.4301 245.678C20.2649 243.545 25.9742 241.412 32.2482 239.844C35.6988 239.342 39.2123 238.777 42.6629 238.275C44.2314 238.212 45.8627 238.087 47.4312 238.024H47.3684ZM704.002 238.024C704.817 239.53 705.696 241.036 706.511 242.541C707.578 243.608 708.644 244.675 709.648 245.678C709.648 247.811 709.586 249.882 709.523 252.015L709.021 251.639C708.331 250.698 707.703 249.819 707.013 248.878C705.319 246.055 704.253 242.165 704.002 238.024ZM44.106 251.764C76.0404 251.199 77.6717 276.546 98.6267 286.334C108.163 290.788 118.892 291.039 131.251 293.047C135.455 293.298 139.721 293.549 143.925 293.862C151.83 294.678 159.672 295.431 167.578 296.247C197.379 301.83 226.302 305.532 232.639 334.518C233.58 338.909 233.58 345.121 232.764 349.575C231.509 356.539 230.317 361.998 227.745 367.393C224.671 373.918 219.526 378.875 215.323 384.27C211.935 388.599 208.923 393.117 206.1 398.01C199.638 409.052 197.504 423.232 193.301 436.658C189.976 447.386 185.396 456.986 181.443 467.024C174.354 485.093 171.781 511.506 192.924 516.4V516.525H180C178.808 515.145 177.616 513.828 176.424 512.447C174.228 509.31 172.597 505.358 171.53 501.092C169.585 493.437 171.028 483.65 172.722 476.937C176.612 461.691 182.949 449.394 187.529 434.838L193.489 411.876C196.312 402.653 199.826 394.058 204.469 386.654C207.417 381.949 211.433 378.122 214.507 373.605C219.652 366.076 222.663 359.049 224.545 347.881C225.235 343.866 225.047 338.659 224.169 334.957C223.416 331.82 222.349 328.871 220.844 326.362C210.303 308.92 184.831 306.912 161.053 302.583L141.352 300.576C137.274 300.325 133.196 300.074 129.055 299.76C117.951 297.94 107.598 297.69 98.9404 293.925C79.8676 285.706 75.9777 264.187 54.9599 258.54C38.2712 254.023 26.2879 264.061 16.1241 269.206C12.5479 271.025 3.63887 273.284 -3.18389e-05 269.708C-3.18389e-05 267.449 0.0627078 265.19 0.125447 262.994C12.1087 269.582 20.8923 258.791 29.8013 254.964C32.8128 253.646 36.3262 252.768 39.8397 252.078C41.2199 251.952 42.6629 251.827 44.0432 251.701L44.106 251.764ZM436.166 256.658C436.982 259.105 437.86 261.614 438.676 264.061C440.934 269.457 445.577 277.236 450.973 279.244V279.37C442.44 277.989 436.668 266.445 436.166 256.658ZM45.9254 267.637C67.7588 267.449 78.0481 281.503 82.7536 298.631C83.9456 303.085 85.8906 311.304 85.0122 317.264L84.0711 329.812C82.6908 337.843 80.6204 349.512 83.13 357.669C86.9571 370.028 99.1286 372.914 111.928 376.428C115.566 377.432 119.205 378.435 122.907 379.439V379.565C118.892 379.439 114.688 378.498 111.175 377.745C97.2464 374.797 84.6985 372.601 80.3067 360.178C77.8599 353.277 78.8637 342.423 80.1813 334.957C80.5577 331.13 80.8714 327.303 81.2478 323.476C81.7497 320.276 81.6243 315.884 81.1224 312.935C80.8714 310.363 80.6204 307.853 80.3067 305.281C78.55 296.999 75.6013 290.725 71.2095 285.204C68.8881 282.318 65.3747 279.809 61.9868 278.052C46.9292 270.335 31.3071 278.177 19.3238 283.071C14.6183 285.016 6.83859 288.341 0.0627078 286.396V279.119C14.6183 281.064 22.0843 274.852 32.2482 270.649C35.0714 269.519 38.1457 268.704 41.3454 268.014C42.9139 267.888 44.4197 267.763 45.9881 267.637H45.9254ZM560.391 276.17C578.585 277.174 590.757 281.503 595.525 296.247C601.297 314.065 593.831 336.4 605.187 349.826C615.037 361.558 636.933 356.351 654.814 359.614C677.4 363.754 691.328 370.969 702.308 386.529C704.755 389.98 708.331 394.371 709.711 398.7V411.625L709.46 411.499C708.519 405.727 704.064 398.763 701.304 394.309C691.266 378.247 677.651 369.275 655.504 365.135C635.49 361.37 610.896 366.891 600.293 353.653C594.709 346.689 594.145 339.976 592.764 328.557L592.89 322.221C593.015 315.759 592.764 309.359 591.447 304.026C587.745 289.094 580.028 284.514 566.602 279.37C563.59 278.177 560.014 276.923 556.814 276.484V276.358C558.007 276.358 559.199 276.295 560.391 276.233V276.17ZM-3.18389e-05 304.967V296.372C13.9282 296.937 24.1547 290.914 35.1342 287.149C41.0944 285.079 50.5681 283.824 57.1558 286.334C59.7909 287.337 62.2377 288.78 64.3081 290.412C72.5898 296.999 76.0404 314.065 73.1544 329.059C71.2095 339.223 68.0098 352.838 71.4604 363.629C75.915 377.745 89.7804 380.38 104.712 384.082C110.735 385.588 126.609 390.356 132.067 386.215C138.341 381.384 131.628 373.981 127.55 371.973C123.409 369.903 118.264 369.589 113.182 368.397C106.281 366.766 100.258 365.26 95.6152 361.558C90.1569 357.229 87.8355 347.254 90.0941 337.655C92.9802 325.232 97.3719 315.319 108.038 310.739C118.766 306.097 141.039 307.665 153.587 309.924C177.93 314.378 204.469 314.692 211.119 336.714C212.311 340.666 212.75 346.062 211.935 350.705C211.182 354.594 210.617 358.296 209.299 361.684C207.355 366.766 205.096 372.789 201.896 376.867C202.775 374.106 203.653 371.346 204.531 368.523C207.417 359.049 209.55 343.991 204.531 335.271C194.116 317.202 167.389 317.829 142.607 314.002C140.662 314.002 138.717 313.939 136.772 313.876C124.664 312.057 111.488 315.445 105.34 320.339C97.0582 326.863 91.9136 347.756 102.454 355.849C113.496 364.382 132.945 359.363 140.6 372.099C142.607 375.424 144.05 381.008 142.168 385.713C140.976 388.788 138.655 390.481 136.772 392.866L137.023 393.242C143.235 395.752 146.56 405.602 144.427 414.762C141.98 425.302 137.463 432.392 132.13 439.858C130.687 441.74 129.244 443.622 127.801 445.504C130.31 437.034 135.141 430.07 137.463 420.973C137.776 419.028 138.09 417.083 138.404 415.138C138.968 411.813 138.153 408.111 137.337 405.915C133.259 394.497 120.899 395.124 108.54 392.05C89.8432 387.407 72.4643 385.588 65.7511 369.087C56.7794 347.003 79.2402 309.736 57.8459 296.372C52.5758 293.047 43.1649 292.67 36.2008 294.804C24.343 298.442 14.681 304.34 -3.18389e-05 304.967ZM580.154 297.188C583.793 299.76 584.483 310.739 585.298 316.888C586.239 324.103 583.04 332.071 584.357 340.227C585.8 349.011 587.494 355.159 591.886 360.68C602.803 374.42 631.412 368.397 652.241 372.412C675.643 376.93 689.446 385.839 698.983 404.096C706.762 419.028 710.778 444.438 705.445 465.33C704.378 469.471 703.061 473.549 701.492 477.188C699.735 481.266 697.414 484.779 696.473 489.736C694.904 498.143 702.935 500.213 709.648 498.582V506.236C700.802 508.62 685.744 507.993 687.752 496.072C689.697 484.277 696.285 476.811 699.61 465.957C705.57 446.822 702.245 421.098 693.963 406.919C685.18 391.862 673.259 383.266 653.183 379.314C631.663 375.048 606.128 380.945 591.384 369.84C583.604 363.943 577.77 350.83 580.405 336.023C581.408 330.314 582.036 324.919 583.04 318.707C583.102 316.574 583.228 314.378 583.291 312.245C582.851 308.983 582.412 305.72 581.973 302.458C581.346 300.638 580.718 298.819 580.154 297.062V297.188ZM40.2788 303.273C52.764 303.085 57.0931 307.916 58.9125 318.456C59.3517 320.966 59.4772 324.793 59.038 327.554C56.5911 342.297 52.4503 362.5 58.2224 376.428C62.175 385.839 70.1429 391.736 80.9341 394.246C85.4514 394.81 89.9059 395.375 94.4232 395.94C108.665 398.638 123.346 400.081 127.926 412.315C131.502 421.726 124.601 435.968 121.84 442.932C114.186 462.569 103.771 495.319 116.57 516.588C114.312 516.588 112.053 516.525 109.857 516.463C108.979 514.518 108.1 512.573 107.222 510.628C105.842 507.24 104.901 503.413 104.085 499.523C101.701 488.481 105.026 475.556 107.787 466.647C111.488 455.605 115.19 444.563 118.892 433.521C120.272 429.066 122.781 422.604 121.401 416.644C118.578 404.284 106.908 402.026 94.0467 399.641C88.9021 398.638 83.7574 398.826 78.9892 397.508C72.6525 395.814 67.6961 393.242 63.3043 389.729C53.7679 382.074 49.2506 364.946 52.1994 347.756C53.9561 337.404 56.8421 320.715 50.8818 313.061C48.1213 309.547 41.1572 308.481 35.1969 309.736C27.6682 311.367 20.7668 313.688 13.5517 315.696C9.03448 316.574 4.57996 317.453 0.0627078 318.331V313.312C10.0383 312.12 18.6337 308.669 27.229 306.034C29.9895 305.344 32.7501 304.654 35.5734 303.901C37.1419 303.65 38.7731 303.462 40.3416 303.211L40.2788 303.273ZM294.124 304.026C299.268 308.481 302.029 320.778 304.036 328.557C306.232 337.027 310.624 353.402 308.554 363.378C306.044 375.361 299.582 384.96 293.873 393.995C291.426 397.885 285.152 407.86 281.45 409.805V409.68C283.834 401.649 287.536 396.128 291.363 389.603C294.5 384.145 296.821 377.306 298.766 370.969C304.977 350.705 299.205 322.033 294.124 303.901V304.026ZM93.4821 306.41C94.6741 306.724 95.4897 307.289 96.1171 308.104C95.7407 309.359 94.8623 310.614 93.984 311.43H93.8585C93.984 309.924 93.6703 307.916 93.4821 306.41ZM-3.18389e-05 332.196V325.044C11.4813 324.668 32.1854 314.378 42.2238 322.033C46.741 325.483 47.6194 334.643 46.3018 341.984C43.6668 356.602 43.0394 370.405 48.435 382.764C52.9522 393.117 61.1711 400.394 72.8407 403.594C83.9456 406.668 99.6933 404.535 107.536 411.248C117.7 419.906 107.285 440.987 104.211 450.712C103.269 454.664 102.266 458.617 101.325 462.569C101.199 448.767 109.794 427.247 101.701 417.02C95.5525 409.303 80.495 411.625 69.7665 408.425C57.0303 404.598 48.6232 396.316 43.604 384.772C39.2123 374.608 37.7065 360.743 40.0279 347.819C41.3454 340.729 41.7846 331.694 37.0164 328.306C34.2558 326.362 29.1112 326.048 24.8449 326.989C16.7515 328.746 8.65804 331.506 -0.125511 332.134L-3.18389e-05 332.196ZM128.993 322.158C140.976 321.97 151.955 323.099 161.868 325.295C174.73 328.118 188.909 329.875 195.371 339.035C204.469 351.897 195.058 376.428 191.293 388.662C186.274 404.912 183.137 422.416 177.553 438.289C172.785 451.841 167.013 463.699 163.06 478.129C161.178 484.905 160.112 495.382 162.245 502.785C163.813 508.118 166.072 512.385 168.707 516.525H160.676L156.849 507.428C154.151 498.833 154.026 487.728 156.347 478.631C160.174 463.51 166.762 450.837 172.032 436.909C177.867 421.475 180.314 403.594 184.956 387.031C187.717 377.243 194.43 358.296 189.599 346.877C183.89 333.577 162.496 333.451 145.744 330.753C141.227 330.063 132.945 329.875 128.303 330.628C121.652 331.694 115.378 332.447 114.061 338.784C113.622 340.792 114.249 342.737 115.127 343.929C119.394 349.638 133.196 348.634 140.725 350.955C155.657 355.535 158.669 366.891 159.045 385.023C159.17 390.231 158.543 395.94 157.727 400.583C156.096 409.68 155.155 418.087 152.206 425.804C148.191 436.156 142.984 445.128 138.592 455.103C133.51 466.71 126.232 484.277 130.248 501.719C131.565 507.303 133.698 511.82 135.518 516.525H128.114C126.609 511.632 124.601 506.926 123.472 501.217C121.715 492.245 123.409 481.705 125.479 474.427C128.303 464.326 131.753 455.731 135.894 447.073C139.219 440.109 143.172 433.521 146.183 426.055C149.32 418.338 150.763 409.617 152.52 400.332C152.897 396.128 153.21 391.987 153.587 387.784C154.026 385.211 153.461 382.012 153.085 379.878C150.763 366.389 147.626 359.425 135.392 355.849C127.738 353.591 118.139 354.406 112.178 350.579C101.513 343.74 106.72 328.557 116.131 324.417C118.703 323.287 121.652 322.848 124.852 322.283C126.232 322.221 127.55 322.095 128.93 322.033L128.993 322.158ZM131.189 336.525C148.505 336.274 166.386 338.847 173.852 349.073C181.004 358.923 177.616 377.62 174.793 389.98C171.028 406.292 168.644 422.29 163.06 436.47C157.602 450.21 150.136 461.879 146.309 477.125C144.05 486.222 143.862 499.021 146.685 507.616C147.752 510.816 149.32 513.702 150.512 516.588H145.619C144.678 514.518 143.799 512.447 142.858 510.377C141.541 506.989 140.725 503.162 139.972 499.272C136.396 481.454 145.493 463.071 150.638 451.339C154.151 443.371 157.916 435.529 160.676 426.808C162.621 420.659 163.688 414.323 165.194 407.672C168.268 394.058 174.103 365.386 166.135 354.092C157.288 341.607 139.345 343.803 122.97 339.16C124.099 336.337 128.365 337.655 131.314 336.525H131.189ZM22.9627 338.219C23.841 338.408 24.7194 338.596 25.4723 339.16C25.4095 341.733 23.6528 343.552 22.8372 345.497C21.2687 349.199 19.6375 355.285 20.5786 360.931C23.3391 377.871 29.3621 391.046 36.7027 403.594C41.6591 412.064 45.6744 420.22 53.8933 425.365C57.344 427.561 61.6103 429.066 66.1903 430.133C76.1659 432.454 87.6473 431.074 92.3528 438.603C94.5486 442.116 95.4897 448.767 94.4859 454.601C92.9174 463.761 92.3528 472.67 90.7843 482.207C89.3412 491.053 92.29 503.35 94.6114 509.248C95.7407 511.695 96.87 514.204 98.0621 516.651H90.6588C88.0865 511.255 86.016 505.546 84.573 498.833L83.6319 488.92V479.258C84.0084 475.619 84.3221 472.043 84.6985 468.404C85.7651 462.507 87.71 453.535 85.6396 447.7C82.8791 439.858 73.0917 440.485 64.4963 438.352C60.5437 437.348 56.5911 436.093 53.3914 434.274C41.7218 427.498 36.0753 415.64 30.4287 402.841C25.6605 392.05 20.1394 381.698 16.4378 369.84C13.6772 361.119 12.4224 345.246 19.1983 339.976C20.3276 339.098 21.5197 338.909 23.0254 338.282L22.9627 338.219ZM32.3109 340.227C32.8128 341.607 32.3109 343.678 32.0599 345.497C31.1188 350.893 30.3032 357.794 31.2443 363.566C33.9421 379.69 38.7731 392.489 47.0547 402.904C52.8268 410.119 61.1711 414.636 72.0251 416.895C81.7498 418.903 99.1914 416.707 97.4974 429.192L97.3719 428.941C95.3643 426.87 95.0506 424.737 91.9763 423.545C87.2081 421.663 80.5577 422.918 74.5347 421.977C68.8881 421.036 64.1826 420.346 59.7281 418.401C44.6706 411.813 36.9536 394.246 31.4953 377.996C29.864 373.165 27.229 364.695 28.3583 357.669C28.923 354.155 29.1112 349.763 30.0523 346.313C30.8051 344.305 31.558 342.235 32.3109 340.227ZM-3.18389e-05 342.172C7.77969 343.113 5.01914 348.822 6.21119 356.037C6.83859 359.99 7.46599 363.754 8.72078 367.142C13.489 379.878 19.3865 391.611 24.4057 404.347C28.672 415.138 31.558 426.494 38.1457 434.838C42.2238 440.046 48.4977 443.747 55.7128 445.818C64.1199 448.202 74.221 447.826 76.4169 456.358C78.1736 463.197 74.3465 469.91 72.2133 474.427C67.6333 484.089 60.9202 502.785 65.1865 516.525C62.9279 516.525 60.6692 516.463 58.4733 516.4L57.4068 508.369C55.9637 499.962 59.1635 490.175 61.3594 484.716C63.6807 479.007 71.5232 467.087 68.0725 458.868C65.312 452.217 57.1558 451.59 50.0035 449.394C43.9177 447.512 38.1457 444.5 34.5695 440.046C26.3506 429.756 23.1509 414.197 17.6926 401.21C14.0537 392.677 10.1011 384.207 5.52106 376.365C3.70161 373.04 1.81942 369.652 -3.18389e-05 366.327V342.172ZM316.584 351.018L316.71 351.395L316.459 351.269L316.584 351.018ZM437.986 370.028C442.189 370.091 446.33 370.217 450.533 370.279C468.414 373.228 478.578 376.616 483.535 392.615C484.852 396.881 486.358 403.406 485.354 409.241C484.852 412.378 484.287 415.577 483.786 418.714C482.342 423.984 480.46 429.129 477.825 433.395C474.626 438.54 470.485 443.057 465.528 446.445C463.144 447.951 460.76 449.457 458.376 450.963C456.556 452.343 454.423 455.605 455.741 458.868C458.627 465.957 476.069 473.361 483.095 477.627C499.157 487.414 513.65 499.46 522.308 516.588H514.528C513.085 512.259 508.881 508.558 506.184 505.232C496.522 493.124 482.97 485.344 469.23 477.25C462.203 473.11 448.714 467.965 445.577 460.499C441.06 449.582 458.188 444.438 463.646 440.422C473.747 432.956 484.852 411.687 477.763 393.681C474.876 386.341 469.606 381.071 462.454 377.996C451.663 373.354 432.464 373.416 419.038 375.863C413.768 376.804 409 376.93 404.106 378.247C380.328 384.647 362.322 393.869 350.401 411.938C341.366 425.616 337.665 444.375 329.007 458.303C323.988 466.334 317.4 474.553 310.122 480.325C306.17 483.462 299.896 487.226 298.39 492.622C297.449 496.072 299.08 499.147 300.397 501.217C303.723 506.675 308.114 511.13 311.251 516.651C309.871 516.651 306.107 517.153 305.291 516.4C300.46 510.753 295.629 505.044 290.798 499.398C289.669 497.766 288.163 495.068 288.791 492.245C289.983 486.912 295.441 483.65 299.205 480.764C305.793 475.745 312.067 469.847 317.149 463.322C322.796 456.044 327.25 447.512 331.014 438.352C334.904 428.941 337.916 419.091 342.872 410.746C349.962 398.889 360.439 390.105 372.987 383.706C385.096 377.494 398.836 374.985 414.709 372.099C419.979 371.597 425.249 371.032 430.52 370.53C432.966 370.405 435.476 370.279 437.923 370.154L437.986 370.028ZM598.787 516.588C597.282 516.588 595.776 516.525 594.27 516.463C593.831 512.447 593.392 508.432 592.953 504.479C591.133 494.253 591.133 485.532 585.926 479.007C580.028 471.541 563.465 469.471 553.552 465.644C535.608 458.68 519.735 451.276 509.321 436.972C505.431 431.639 502.858 425.239 501.415 417.46C499.533 407.358 501.039 397.508 497.463 389.227C494.828 383.141 490.185 379.377 484.413 376.428C482.719 375.738 481.088 375.11 479.394 374.42V374.295C489.056 374.295 496.71 376.804 500.788 383.517C504.176 389.101 504.678 395.814 505.933 403.72C506.184 407.547 506.435 411.374 506.748 415.201C507.94 421.6 509.948 426.996 512.959 431.576C522.747 446.32 539.561 454.915 557.818 461.126C567.919 464.577 585.549 465.267 592.262 471.98C597.972 477.69 595.964 488.544 597.533 498.645C597.909 504.605 598.348 510.628 598.725 516.588H598.787ZM122.907 379.565H123.409V379.69L122.907 379.565ZM433.907 379.565L442.503 379.816C452.165 381.447 460.76 383.329 465.716 389.603C476.257 402.778 470.798 423.294 459.882 432.141C456.682 434.713 453.42 437.411 449.467 439.167C440.746 442.995 422.865 446.257 429.139 461.189C433.406 471.353 448.275 476.874 457.623 482.332C474.312 492.057 490.624 500.903 501.29 516.525V516.651H492.695C490.248 512.573 485.354 508.934 481.59 506.111C476.884 502.535 472.116 498.833 466.909 495.696C460.384 492.12 453.859 488.544 447.397 485.03C438.989 480.136 429.767 476.498 424.057 468.906C415.023 456.986 417.47 440.234 433.845 437.913L431.335 437.097C429.202 436.156 427.006 435.152 424.873 434.211C422.614 433.082 420.293 431.89 417.47 431.2C413.643 430.258 409.063 431.074 406.239 432.266C392.75 437.913 390.241 458.868 396.766 474.239C404.043 491.43 421.171 499.711 437.295 508.056C441.499 510.189 445.64 512.196 449.592 514.518L453.42 516.776H438.927C434.472 514.392 430.018 512.008 425.563 509.624C421.736 507.616 417.909 505.546 414.082 503.538C403.667 497.139 394.57 488.92 389.676 476.999C386.414 469.157 384.469 456.484 387.041 446.257C388.296 441.238 390.178 436.721 392.876 433.082C397.456 426.808 408.059 419.718 418.913 424.361C424.998 426.996 428.386 432.517 435.413 434.274C442.691 436.093 450.283 430.698 453.733 427.937C465.089 418.903 468.665 398.512 454.549 389.666C438.989 379.941 410.129 386.654 396.326 393.242C378.32 401.837 367.466 411.437 357.679 428.251C351.781 438.352 349.397 451.276 344.19 462.067C339.735 471.353 333.273 478.505 328.066 487.038C326.121 490.175 323.109 494.755 324.113 500.527C324.803 504.479 325.493 507.993 326.874 511.193L329.509 516.839H321.603C319.345 510.44 311.628 503.413 314.765 493.186C316.835 486.473 321.729 482.521 325.619 477.627C329.76 472.294 333.9 467.024 337.477 461.126C345.382 448.202 348.77 431.011 356.612 418.212C363.702 406.668 373.74 398.826 385.535 391.925C394.57 386.654 405.424 383.894 417.093 381.384C420.669 380.945 424.246 380.506 427.759 380.067L433.97 379.816L433.907 379.565ZM-3.18389e-05 382.702C2.76051 385.4 4.45448 389.854 6.46215 393.242C11.7323 402.151 15.4339 412.378 18.8846 423.232C21.2687 430.823 22.7117 438.791 25.7232 445.818C26.978 448.767 28.8602 451.904 32.0599 452.97C34.1303 453.66 37.0164 453.347 39.5887 453.347C45.7999 453.347 52.1994 454.037 55.0226 457.676C57.9714 461.503 56.9676 468.279 55.1481 472.608C52.0111 480.074 46.992 485.469 44.6079 494.002C43.2276 498.833 43.7923 504.291 42.9139 509.561C42.4747 512.071 42.9766 514.455 42.412 516.588H34.6323V516.463C37.8947 510.126 36.3262 500.025 38.5849 492.433C39.8397 488.167 41.7218 484.277 43.855 480.827C45.4862 478.192 47.5566 475.745 48.6232 472.482C50.3172 467.149 47.8076 462.632 43.604 461.503C35.0087 459.244 29.7386 466.773 26.8525 471.416C18.4454 484.842 15.8731 499.837 0.0627078 506.236C0.0627078 503.664 0.125447 501.029 0.188187 498.456C11.1676 496.762 15.7476 475.306 21.206 466.773C22.4608 464.765 24.4684 462.507 26.3506 461.126C27.6682 460.311 28.9857 459.558 30.3032 458.742C25.2841 459.746 20.8295 458.178 19.3238 454.79C17.7553 451.213 18.069 446.633 17.3161 442.116C15.9358 433.772 15.6849 425.427 13.489 417.961C11.4186 410.809 9.2227 403.908 6.08572 397.759C3.63887 392.928 0.0627078 389.854 -3.18389e-05 382.702ZM427.32 391.862C437.609 391.674 446.832 392.74 451.349 398.449C457.435 406.166 453.169 418.212 447.146 422.981C445.765 423.859 444.322 424.737 442.942 425.616C432.151 430.07 425.249 419.718 418.913 416.518C413.015 413.507 404.232 414.574 398.836 417.334C389.739 421.977 382.649 429.945 379.449 440.422C373.301 460.248 378.32 481.266 387.606 493.5C392.499 499.899 399.087 505.421 405.926 509.75C409.815 512.008 413.768 514.33 417.658 516.588H402.6C399.714 514.518 396.891 512.447 394.005 510.377C383.904 502.911 375.685 492.873 371.858 479.195C367.027 462.067 371.482 440.171 378.697 428.627C384.218 419.906 392.374 413.632 402.977 409.994C407.055 408.613 413.956 407.547 418.536 409.303C423.932 411.374 432.214 421.098 438.237 419.969C448.463 418.087 450.094 404.849 441.813 399.641C429.767 392.05 406.741 400.269 397.581 404.661C382.21 412.001 371.607 423.796 365.208 440.171C362.51 449.645 359.749 459.181 357.051 468.655C354.354 475.431 351.091 481.642 347.578 487.665C344.943 492.182 341.555 498.77 343.06 506.424C343.813 510.189 345.445 513.138 346.511 516.463H339.923L337.414 510.251C336.473 507.616 336.222 504.73 335.72 501.656C334.904 496.888 336.912 492.496 338.229 489.485C341.931 481.015 347.515 474.239 351.279 465.581C355.734 455.417 358.432 443.496 362.886 433.395C369.662 418.024 382.586 407.17 397.456 399.892C403.353 397.006 409.815 394.936 416.842 393.179C420.293 392.677 423.806 392.238 427.257 391.736L427.32 391.862ZM539.498 392.364C541.318 394.309 543.075 399.077 544.894 401.461C551.293 409.931 560.893 416.895 572.248 420.346C577.268 421.851 582.6 422.604 588.373 423.483C591.51 423.608 594.647 423.733 597.721 423.859C601.736 423.859 605.751 423.922 609.704 423.984C622.315 422.102 640.007 422.855 647.975 427.686C653.371 430.949 658.829 437.097 656.445 446.696C655.818 449.269 654.877 451.841 653.81 453.974C651.865 457.864 649.544 462.381 646.532 465.33H646.407V465.204C647.787 461.879 648.916 458.178 649.732 454.35C656.947 420.847 612.025 434.65 588.373 430.196C563.277 425.49 544.392 417.083 539.498 392.301V392.364ZM585.737 516.588H580.593C578.083 487.038 560.955 483.524 538.871 474.051C520.614 466.208 498.843 452.97 492.82 433.27C490.812 426.808 491.252 417.773 492.444 410.684C492.506 406.48 492.632 402.214 492.695 398.01L492.444 394.999C492.757 397.571 493.071 400.206 493.385 402.778C493.385 405.915 493.322 409.052 493.259 412.127C492.569 416.456 493.385 421.726 494.2 425.177C497.902 440.924 509.321 451.715 521.241 459.244C529.648 464.577 538.996 468.404 548.596 472.733C558.069 476.999 567.417 479.446 574.884 485.407C581.157 490.426 582.475 499.523 584.545 508.934C584.985 511.506 585.424 514.016 585.863 516.588H585.737ZM-3.18389e-05 399.202C2.63503 402.402 4.20353 408.99 5.52106 413.444C7.27777 419.154 8.21886 425.239 9.34818 431.952C9.47366 435.215 9.59914 438.477 9.72462 441.74C9.72462 444.877 9.66188 448.014 9.59914 451.088L9.2227 460.562C9.09722 463.887 8.97174 467.149 8.84626 470.475C7.65421 477.313 5.01914 483.65 -3.18389e-05 486.599C-0.0627715 478.756 2.07038 474.992 3.45065 468.655C4.6427 463.134 3.95257 457.299 4.89366 451.213C4.9564 447.951 5.08188 444.689 5.14462 441.426C4.329 436.407 4.70544 431.2 3.70161 426.494C2.69777 421.6 1.06654 416.769 -3.18389e-05 412.378V399.202ZM423.367 403.594C429.453 403.406 434.598 403.782 437.86 406.355C439.429 407.609 440.432 410.746 437.986 411.876C436.668 412.503 435.162 411.437 434.284 410.809C432.339 409.241 430.394 407.609 428.449 406.041C426.755 405.225 424.998 404.347 423.304 403.531L423.367 403.594ZM416.905 437.913C418.097 437.913 419.603 437.85 420.042 438.164C417.407 438.289 415.901 439.607 414.395 440.799C406.114 446.947 407.369 461.879 412.576 470.349C423.242 487.791 448.463 494.818 465.277 506.55C469.481 509.499 475.002 512.51 478.076 516.588H469.23C466.093 512.698 457.749 508.369 453.106 505.609C437.233 496.198 417.344 489.61 407.557 474.051C402.6 466.208 399.15 450.272 406.741 442.367C408.435 440.61 410.694 438.979 413.329 438.289L416.905 437.913ZM302.719 442.932C302.719 443.308 302.593 443.434 302.217 443.747L302.719 442.932ZM490.812 446.633C492.067 448.704 493.385 450.774 494.64 452.845C499.784 459.872 507.878 465.769 515.657 470.161C524.315 474.992 533.664 479.195 542.698 483.65C549.411 486.912 557.003 489.987 561.457 495.508C566.037 501.28 568.296 507.93 570.178 516.651H563.716C561.645 495.947 543.325 489.359 528.707 480.889C521.931 476.937 514.904 473.235 508.505 469.032C501.604 464.452 491.816 456.986 490.812 446.696V446.633ZM474.563 451.904C475.065 453.284 474.814 454.978 475.629 456.233C480.774 464.765 497.463 471.98 505.995 478.003C517.038 485.783 527.264 493.876 533.726 506.236C535.42 509.499 536.424 513.075 537.93 516.525H533.601C528.331 495.194 507.689 482.96 491.503 472.169C486.232 468.655 472.304 460.75 474.626 451.841L474.563 451.904ZM207.794 459.683C207.982 462.946 208.17 466.208 208.296 469.471C209.927 477.941 213.378 483.713 219.526 487.54C228.812 493.375 243.618 492.182 256.103 494.818C272.478 498.268 288.038 505.17 296.257 516.588H290.171C283.583 507.679 268.588 502.535 255.601 499.711C236.027 495.445 215.95 499.021 208.609 482.144C207.229 479.007 205.535 474.364 206.351 469.345C206.853 466.145 207.292 462.946 207.794 459.683ZM39.5887 469.094C40.9062 469.094 41.2827 469.408 42.0983 469.784V470.726C40.9062 473.361 39.024 475.117 37.4555 477.313C34.5068 481.454 31.8717 486.41 30.1777 491.681C27.1035 501.468 29.2367 511.067 21.7079 516.651C15.1202 516.651 8.53256 516.588 1.88216 516.525C10.2265 516.024 18.2572 511.632 20.7668 505.17C22.3353 501.217 21.8961 495.508 23.2764 491.43C26.0997 483.085 31.9972 472.733 39.526 469.094H39.5887ZM200.892 480.827C201.269 482.521 201.708 484.277 202.084 485.971C204.406 492.182 210.052 497.264 217.393 498.394V498.519C206.351 498.645 200.767 492.684 200.892 480.827ZM709.523 480.952C709.899 481.83 709.962 486.034 709.397 486.599C708.707 487.352 707.264 487.853 705.947 487.916C707.139 485.595 708.331 483.273 709.523 480.889V480.952ZM358.683 490.175C369.537 490.112 375.371 500.966 379.7 507.742C381.834 510.691 383.904 513.639 386.037 516.588H378.759C378.069 513.828 369.286 502.409 367.027 500.778C365.898 499.962 363.827 498.645 361.757 499.335C355.295 501.468 360.063 512.573 361.38 516.651C359.059 516.651 356.738 516.588 354.354 516.525C353.287 513.828 352.22 511.13 351.217 508.495C349.523 502.472 350.903 494.88 354.542 492.12C355.797 491.116 357.114 490.99 358.745 490.3L358.683 490.175ZM74.0328 493.5C74.2837 496.323 74.4719 499.147 74.7229 501.97C75.664 507.365 76.6051 512.385 78.6755 516.651C77.4207 516.651 76.1032 516.588 74.8484 516.525C74.6602 513.075 73.8446 509.185 73.2799 505.421C72.6525 501.28 73.97 497.264 74.0955 493.563L74.0328 493.5ZM51.6347 516.588C50.6936 516.588 50.3799 516.588 50.0662 516.086C51.0073 509.75 48.5605 500.841 51.1328 495.382C51.0073 499.021 50.8818 502.597 50.7564 506.236C51.0701 509.687 51.3838 513.2 51.6975 516.651L51.6347 516.588ZM540.69 496.637C545.898 499.523 549.16 510.377 551.67 516.588H549.411C548.596 511.004 545.898 505.421 543.451 501.154C542.51 499.648 541.631 498.143 540.69 496.637ZM663.095 516.588C662.97 511.506 663.158 501.97 665.354 499.272C665.103 504.668 665.229 511.444 666.044 516.588H663.158H663.095ZM365.145 508.934C366.713 509.75 369.85 514.831 370.791 516.588H368.407C367.278 514.016 366.211 511.506 365.082 508.934H365.145Z" fill="#3C3C3C"/>
</g>
</g>
<mask id="mask2_66_493" style="mask-type:luminance" maskUnits="userSpaceOnUse" x="56" y="18" width="677" height="600">
<path d="M567.773 18.9999L56.4657 246.14L221.659 618L732.966 390.859L567.773 18.9999Z" fill="white"/>
</mask>
<g mask="url(#mask2_66_493)">
<path d="M506.59 343.782C467.726 361.047 428.908 356.492 391.224 352.053C353.855 347.628 315.353 343.088 277.005 360.124C238.657 377.159 216.216 408.773 194.448 439.468C182.754 455.949 170.787 472.86 156.396 487.446L154.947 485.925C169.209 471.396 181.234 454.614 192.799 438.191C214.638 407.309 237.409 375.395 276.274 358.13C315.138 340.865 353.956 345.419 391.64 349.858C429.009 354.283 467.511 358.823 505.859 341.788C544.207 324.752 566.778 293.082 588.416 262.444C610.255 231.562 633.027 199.648 671.891 182.383L672.751 184.32C634.403 201.355 611.833 233.026 590.195 263.663C568.356 294.545 545.584 326.459 506.72 343.724L506.59 343.782Z" fill="#8C54E0" stroke="#8C54E0" stroke-width="1.9612"/>
<path d="M500.855 330.87C461.99 348.135 423.172 343.581 385.488 339.141C348.119 334.716 309.617 330.177 271.269 347.212C232.921 364.248 210.48 395.861 188.712 426.556C177.018 443.037 165.051 459.948 150.66 474.534L149.212 473.014C163.473 458.484 175.498 441.702 187.063 425.279C208.902 394.397 231.673 362.483 270.538 345.218C309.402 327.953 348.22 332.507 385.904 336.947C423.273 341.371 461.775 345.911 500.123 328.876C538.471 311.84 561.042 280.17 582.68 249.532C604.519 218.65 627.291 186.736 666.155 169.471L667.016 171.408C628.667 188.443 606.097 220.114 584.459 250.752C562.62 281.633 539.848 313.548 500.984 330.812L500.855 330.87Z" fill="#8C54E0" stroke="#8C54E0" stroke-width="1.9612"/>
<path d="M495.061 317.829C456.197 335.094 417.379 330.54 379.695 326.1C342.326 321.675 303.824 317.136 265.476 334.171C227.128 351.207 204.557 382.877 182.919 413.515C171.225 429.996 159.258 446.907 144.867 461.493L143.418 459.973C157.68 445.443 169.705 428.661 181.27 412.238C203.109 381.356 225.88 349.442 264.745 332.177C303.609 314.912 342.427 319.466 380.111 323.906C417.48 328.33 455.982 332.87 494.33 315.835C532.678 298.799 555.249 267.129 576.887 236.491C598.726 205.609 621.498 173.695 660.362 156.43L661.222 158.367C622.874 175.402 600.304 207.073 578.666 237.711C556.827 268.592 534.055 300.507 495.191 317.771L495.061 317.829Z" fill="#8C54E0" stroke="#8C54E0" stroke-width="1.9612"/>
<path d="M489.326 304.917C450.461 322.182 411.643 317.628 373.959 313.188C336.59 308.764 298.088 304.224 259.74 321.259C221.392 338.295 198.821 369.965 177.183 400.603C165.489 417.084 153.522 433.995 139.131 448.581L137.683 447.061C151.944 432.531 163.969 415.749 175.534 399.326C197.373 368.444 220.144 336.53 259.009 319.265C297.873 302 336.691 306.554 374.375 310.994C411.744 315.419 450.246 319.958 488.594 302.923C526.942 285.887 549.513 254.217 571.151 223.579C592.99 192.697 615.762 160.783 654.626 143.518L655.487 145.455C617.139 162.49 594.568 194.161 572.93 224.799C551.091 255.68 528.319 287.595 489.455 304.86L489.326 304.917Z" fill="#8C54E0" stroke="#8C54E0" stroke-width="1.9612"/>
<path d="M483.532 291.876C444.668 309.141 405.85 304.587 368.166 300.148C330.797 295.723 292.295 291.183 253.947 308.219C215.599 325.254 193.028 356.925 171.39 387.562C159.696 404.043 147.729 420.954 133.338 435.541L131.889 434.02C146.151 419.491 158.175 402.709 169.741 386.285C191.58 355.404 214.351 323.489 253.216 306.224C292.08 288.959 330.898 293.514 368.582 297.953C405.951 302.378 444.453 306.918 482.801 289.882C521.149 272.847 543.72 241.176 565.358 210.538C587.197 179.657 609.968 147.742 648.833 130.477L649.693 132.414C611.345 149.45 588.775 181.12 567.137 211.758C545.298 242.64 522.526 274.554 483.661 291.819L483.532 291.876Z" fill="#8C54E0" stroke="#8C54E0" stroke-width="1.9612"/>
<path d="M477.739 278.835C438.875 296.1 400.057 291.546 362.373 287.107C325.004 282.682 286.502 278.142 248.154 295.178C209.806 312.213 187.364 343.826 165.597 374.522C153.903 391.002 141.936 407.913 127.545 422.5L126.096 420.979C140.358 406.45 152.382 389.668 163.947 373.244C185.786 342.363 208.558 310.448 247.422 293.184C286.287 275.919 325.105 280.473 362.789 284.912C400.158 289.337 438.66 293.877 477.008 276.841C515.356 259.806 537.926 228.135 559.565 197.497C581.404 166.616 604.175 134.701 643.04 117.436L643.9 119.373C605.552 136.409 582.981 168.079 561.343 198.717C539.504 229.599 516.733 261.513 477.868 278.778L477.739 278.835Z" fill="#8C54E0" stroke="#8C54E0" stroke-width="1.9612"/>
<path d="M472.003 265.924C433.139 283.189 394.321 278.634 356.637 274.195C319.268 269.77 280.766 265.23 242.418 282.266C204.07 299.301 181.499 330.972 159.861 361.61C148.167 378.09 136.2 395.001 121.809 409.588L120.36 408.067C134.622 393.538 146.647 376.756 158.212 360.333C180.051 329.451 202.822 297.537 241.687 280.272C280.551 263.007 319.369 267.561 357.053 272C394.422 276.425 432.924 280.965 471.272 263.929C509.62 246.894 532.191 215.223 553.829 184.586C575.668 153.704 598.44 121.79 637.304 104.525L638.164 106.461C599.816 123.497 577.246 155.167 555.608 185.805C533.769 216.687 510.997 248.601 472.133 265.866L472.003 265.924Z" fill="#8C54E0" stroke="#8C54E0" stroke-width="1.9612"/>
<path d="M466.21 252.883C427.345 270.148 388.528 265.593 350.843 261.154C313.475 256.729 274.972 252.189 236.624 269.225C198.276 286.26 175.835 317.874 154.068 348.569C142.373 365.049 130.406 381.961 116.015 396.547L114.567 395.026C128.829 380.497 140.853 363.715 152.418 347.292C174.257 316.41 197.029 284.496 235.893 267.231C274.758 249.966 313.575 254.52 351.26 258.959C388.628 263.384 427.131 267.924 465.479 250.889C503.827 233.853 526.397 202.183 548.035 171.545C569.874 140.663 592.646 108.749 631.51 91.4837L632.371 93.4205C594.023 110.456 571.452 142.127 549.814 172.764C527.975 203.646 505.203 235.56 466.339 252.825L466.21 252.883Z" fill="#8C54E0" stroke="#8C54E0" stroke-width="1.9612"/>
<path d="M460.417 239.842C421.552 257.107 382.735 252.553 345.05 248.113C307.681 243.688 269.179 239.148 230.831 256.184C192.483 273.22 169.913 304.89 148.275 335.528C136.58 352.009 124.613 368.92 110.222 383.506L108.774 381.985C123.036 367.456 135.06 350.674 146.625 334.251C168.464 303.369 191.236 271.455 230.1 254.19C268.965 236.925 307.782 241.479 345.467 245.918C382.835 250.343 421.338 254.883 459.686 237.848C498.034 220.812 520.604 189.142 542.242 158.504C564.081 127.622 586.853 95.7078 625.717 78.4428L626.578 80.3796C588.23 97.4151 565.659 129.086 544.021 159.723C522.182 190.605 499.41 222.519 460.546 239.784L460.417 239.842Z" fill="#8C54E0" stroke="#8C54E0" stroke-width="1.9612"/>
<path d="M454.681 226.93C415.816 244.195 376.999 239.641 339.314 235.201C301.946 230.777 263.444 226.237 225.096 243.272C186.748 260.308 164.306 291.921 142.539 322.616C130.844 339.097 118.877 356.008 104.487 370.595L103.038 369.074C117.3 354.544 129.324 337.762 140.889 321.339C162.728 290.457 185.5 258.543 224.364 241.278C263.229 224.013 302.046 228.567 339.731 233.007C377.1 237.432 415.602 241.971 453.95 224.936C492.298 207.9 514.868 176.23 536.506 145.592C558.345 114.71 581.117 82.796 619.982 65.5311L620.842 67.4678C582.494 84.5034 559.923 116.174 538.285 146.812C516.446 177.693 493.675 209.608 454.81 226.873L454.681 226.93Z" fill="#8C54E0" stroke="#8C54E0" stroke-width="1.9612"/>
<path d="M448.888 213.889C410.023 231.154 371.206 226.6 333.521 222.16C296.152 217.736 257.65 213.196 219.302 230.231C180.954 247.267 158.513 278.88 136.745 309.575C125.051 326.056 113.084 342.967 98.6933 357.554L97.2447 356.033C111.506 341.503 123.531 324.721 135.096 308.298C156.935 277.416 179.707 245.502 218.571 228.237C257.436 210.972 296.253 215.526 333.938 219.966C371.306 224.391 409.808 228.93 448.156 211.895C486.504 194.859 509.075 163.189 530.713 132.551C552.552 101.669 575.324 69.755 614.188 52.4901L615.049 54.4268C576.701 71.4624 554.13 103.133 532.492 133.771C510.653 164.652 487.881 196.567 449.017 213.832L448.888 213.889Z" fill="#8C54E0" stroke="#8C54E0" stroke-width="1.9612"/>
<path d="M443.152 200.977C404.287 218.242 365.47 213.688 327.785 209.249C290.416 204.824 251.914 200.284 213.566 217.319C175.218 234.355 152.777 265.968 131.01 296.663C119.315 313.144 107.348 330.055 92.9574 344.642L91.5088 343.121C105.771 328.592 117.795 311.81 129.36 295.386C151.199 264.505 173.971 232.59 212.835 215.325C251.7 198.06 290.517 202.615 328.202 207.054C365.57 211.479 404.073 216.019 442.421 198.983C480.769 181.947 503.339 150.277 524.977 119.639C546.816 88.7575 569.588 56.8432 608.452 39.5782L609.313 41.515C570.965 58.5505 548.394 90.221 526.756 120.859C504.917 151.74 482.145 183.655 443.281 200.92L443.152 200.977Z" fill="#8C54E0" stroke="#8C54E0" stroke-width="1.9612"/>
<path d="M437.359 187.936C398.494 205.201 359.677 200.647 321.992 196.208C284.623 191.783 246.121 187.243 207.773 204.278C169.425 221.314 146.855 252.985 125.217 283.622C113.522 300.103 101.555 317.014 87.1644 331.601L85.7158 330.08C99.9775 315.551 112.002 298.769 123.567 282.345C145.406 251.464 168.178 219.549 207.042 202.284C245.907 185.019 284.724 189.574 322.409 194.013C359.777 198.438 398.279 202.978 436.627 185.942C474.976 168.907 497.546 137.236 519.184 106.598C541.023 75.7166 563.795 43.8023 602.659 26.5373L603.52 28.4741C565.172 45.5096 542.601 77.1801 520.963 107.818C499.124 138.7 476.352 170.614 437.488 187.879L437.359 187.936Z" fill="#8C54E0" stroke="#8C54E0" stroke-width="1.9612"/>
<path d="M431.565 174.895C392.701 192.16 353.883 187.606 316.199 183.167C278.83 178.742 240.328 174.202 201.98 191.238C163.632 208.273 141.19 239.886 119.423 270.581C107.729 287.062 95.7619 303.973 81.371 318.56L79.9224 317.039C94.1842 302.51 106.209 285.728 117.774 269.304C139.541 238.609 162.183 206.752 201.177 189.43C240.171 172.108 278.859 176.719 316.543 181.159C353.912 185.583 392.414 190.123 430.762 173.088C469.11 156.052 491.681 124.382 513.319 93.7439C535.158 62.8622 557.93 30.9479 596.794 13.6829L597.655 15.6197C559.307 32.6552 536.736 64.3257 515.098 94.9635C493.259 125.845 470.487 157.76 431.623 175.025L431.565 174.895Z" fill="#8C54E0" stroke="#8C54E0" stroke-width="1.9612"/>
</g>
</g>
<defs>
<clipPath id="clip0_66_493">
<rect width="570" height="269" fill="white"/>
</clipPath>
</defs>
</svg>
