<svg width="24" height="24" viewBox="0 0 24 24" fill="none" xmlns="http://www.w3.org/2000/svg">
<g clip-path="url(#clip0_2382_22776)">
<path d="M12.8224 4C13.7224 4.0024 14.1791 4.0072 14.5735 4.0184L14.7287 4.024C14.9079 4.0304 15.0847 4.0384 15.2983 4.048C16.1494 4.088 16.7302 4.22239 17.2398 4.41998C17.7678 4.62317 18.2125 4.89835 18.6573 5.34233C19.0641 5.74223 19.3788 6.22596 19.5797 6.75986C19.7773 7.26943 19.9116 7.8502 19.9516 8.70216C19.9612 8.91495 19.9692 9.09174 19.9756 9.27173L19.9804 9.42692C19.9924 9.8205 19.9972 10.2773 19.9988 11.1772L19.9996 11.774V12.8219C20.0016 13.4054 19.9955 13.9889 19.9812 14.5723L19.9764 14.7275C19.97 14.9074 19.962 15.0842 19.9524 15.297C19.9124 16.149 19.7765 16.7289 19.5797 17.2393C19.3794 17.7735 19.0646 18.2574 18.6573 18.6569C18.2573 19.0635 17.7736 19.3782 17.2398 19.5792C16.7302 19.7768 16.1494 19.9112 15.2983 19.9512C15.1085 19.9601 14.9186 19.9681 14.7287 19.9752L14.5735 19.98C14.1791 19.9912 13.7224 19.9968 12.8224 19.9984L12.2256 19.9992H11.1785C10.5947 20.0012 10.011 19.9951 9.42738 19.9808L9.27219 19.976C9.08229 19.9688 8.89243 19.9605 8.70262 19.9512C7.85146 19.9112 7.27069 19.7768 6.76032 19.5792C6.22648 19.3787 5.74295 19.0639 5.34359 18.6569C4.93645 18.2571 4.62141 17.7733 4.42044 17.2393C4.22285 16.7297 4.08846 16.149 4.04846 15.297C4.03955 15.1072 4.03155 14.9173 4.02446 14.7275L4.02046 14.5723C4.00572 13.9889 3.99905 13.4054 4.00046 12.8219V11.1772C3.99823 10.5937 4.0041 10.0102 4.01806 9.42692L4.02366 9.27173C4.03006 9.09174 4.03806 8.91495 4.04766 8.70216C4.08766 7.8502 4.22205 7.27023 4.41964 6.75986C4.62052 6.22541 4.93619 5.74153 5.34439 5.34233C5.74365 4.93553 6.22686 4.62076 6.76032 4.41998C7.27069 4.22239 7.85066 4.088 8.70262 4.048C8.91541 4.0384 9.093 4.0304 9.27219 4.024L9.42738 4.0192C10.0107 4.00499 10.5942 3.99885 11.1777 4.0008L12.8224 4ZM12.0001 7.9998C10.9392 7.9998 9.92188 8.4212 9.17177 9.17131C8.42166 9.92142 8.00026 10.9388 8.00026 11.9996C8.00026 13.0604 8.42166 14.0778 9.17177 14.8279C9.92188 15.578 10.9392 15.9994 12.0001 15.9994C13.0609 15.9994 14.0782 15.578 14.8283 14.8279C15.5784 14.0778 15.9998 13.0604 15.9998 11.9996C15.9998 10.9388 15.5784 9.92142 14.8283 9.17131C14.0782 8.4212 13.0609 7.9998 12.0001 7.9998ZM12.0001 9.59971C12.3152 9.59966 12.6273 9.66168 12.9185 9.78224C13.2097 9.9028 13.4743 10.0795 13.6971 10.3023C13.92 10.5252 14.0968 10.7897 14.2175 11.0808C14.3381 11.372 14.4003 11.684 14.4003 11.9992C14.4004 12.3143 14.3384 12.6264 14.2178 12.9176C14.0972 13.2088 13.9205 13.4734 13.6977 13.6963C13.4749 13.9192 13.2104 14.096 12.9192 14.2166C12.6281 14.3373 12.316 14.3994 12.0009 14.3995C11.3644 14.3995 10.7539 14.1466 10.3039 13.6966C9.85382 13.2465 9.60097 12.6361 9.60097 11.9996C9.60097 11.3631 9.85382 10.7527 10.3039 10.3026C10.7539 9.85256 11.3644 9.59971 12.0009 9.59971M16.2006 6.79986C15.9354 6.79986 15.6811 6.90521 15.4936 7.09273C15.306 7.28026 15.2007 7.5346 15.2007 7.79981C15.2007 8.06501 15.306 8.31935 15.4936 8.50688C15.6811 8.6944 15.9354 8.79975 16.2006 8.79975C16.4658 8.79975 16.7202 8.6944 16.9077 8.50688C17.0952 8.31935 17.2006 8.06501 17.2006 7.79981C17.2006 7.5346 17.0952 7.28026 16.9077 7.09273C16.7202 6.90521 16.4658 6.79986 16.2006 6.79986Z" fill="white"/>
</g>
<defs>
<clipPath id="clip0_2382_22776">
<rect width="16" height="16" fill="white" transform="translate(4 4)"/>
</clipPath>
</defs>
</svg>
