<svg width="24" height="24" viewBox="0 0 24 24" fill="none" xmlns="http://www.w3.org/2000/svg">
<path d="M12.0699 3.80113C14.7423 3.80113 15.0588 3.81285 16.1098 3.85974C17.0866 3.90272 17.614 4.06681 17.9656 4.20356C18.4306 4.38328 18.7666 4.60207 19.1143 4.9498C19.4659 5.30143 19.6808 5.63352 19.8605 6.09846C19.9973 6.45009 20.1614 6.98144 20.2044 7.95429C20.2512 9.00918 20.263 9.32565 20.263 11.9941C20.263 14.6665 20.2512 14.983 20.2044 16.034C20.1614 17.0107 19.9973 17.5382 19.8605 17.8898C19.6808 18.3548 19.462 18.6908 19.1143 19.0385C18.7627 19.3901 18.4306 19.605 17.9656 19.7847C17.614 19.9215 17.0826 20.0856 16.1098 20.1285C15.0549 20.1754 14.7384 20.1871 12.0699 20.1871C9.39755 20.1871 9.08108 20.1754 8.0301 20.1285C7.05334 20.0856 6.5259 19.9215 6.17426 19.7847C5.70933 19.605 5.37333 19.3862 5.0256 19.0385C4.67397 18.6869 4.45909 18.3548 4.27936 17.8898C4.14262 17.5382 3.97852 17.0068 3.93555 16.034C3.88866 14.9791 3.87694 14.6626 3.87694 11.9941C3.87694 9.32174 3.88866 9.00527 3.93555 7.95429C3.97852 6.97753 4.14262 6.45009 4.27936 6.09846C4.45909 5.63352 4.67788 5.29752 5.0256 4.9498C5.37723 4.59816 5.70933 4.38328 6.17426 4.20356C6.5259 4.06681 7.05725 3.90272 8.0301 3.85974C9.08108 3.81285 9.39755 3.80113 12.0699 3.80113ZM12.0699 2C9.35457 2 9.01466 2.01172 7.94805 2.05861C6.88534 2.10549 6.15473 2.2774 5.52179 2.52354C4.86151 2.7814 4.30281 3.12131 3.74801 3.68002C3.18931 4.23481 2.8494 4.79351 2.59153 5.44989C2.34539 6.08674 2.17348 6.81344 2.1266 7.87615C2.07971 8.94667 2.06799 9.28658 2.06799 12.002C2.06799 14.7173 2.07971 15.0572 2.1266 16.1239C2.17348 17.1866 2.34539 17.9172 2.59153 18.5501C2.8494 19.2104 3.18931 19.7691 3.74801 20.3239C4.30281 20.8787 4.86151 21.2225 5.51789 21.4765C6.15473 21.7226 6.88143 21.8945 7.94414 21.9414C9.01076 21.9883 9.35067 22 12.066 22C14.7814 22 15.1213 21.9883 16.1879 21.9414C17.2506 21.8945 17.9813 21.7226 18.6142 21.4765C19.2706 21.2225 19.8293 20.8787 20.3841 20.3239C20.9389 19.7691 21.2827 19.2104 21.5366 18.554C21.7828 17.9172 21.9547 17.1905 22.0016 16.1278C22.0485 15.0611 22.0602 14.7212 22.0602 12.0059C22.0602 9.29049 22.0485 8.95058 22.0016 7.88396C21.9547 6.82125 21.7828 6.09064 21.5366 5.45771C21.2905 4.79351 20.9506 4.23481 20.3919 3.68002C19.8371 3.12522 19.2784 2.7814 18.622 2.52745C17.9852 2.2813 17.2585 2.1094 16.1958 2.06251C15.1252 2.01172 14.7853 2 12.0699 2Z" fill="white"/>
<path d="M12.0699 6.86426C9.23345 6.86426 6.93222 9.16549 6.93222 12.002C6.93222 14.8385 9.23345 17.1397 12.0699 17.1397C14.9064 17.1397 17.2077 14.8385 17.2077 12.002C17.2077 9.16549 14.9064 6.86426 12.0699 6.86426ZM12.0699 15.3347C10.2297 15.3347 8.73726 13.8422 8.73726 12.002C8.73726 10.1618 10.2297 8.6693 12.0699 8.6693C13.9101 8.6693 15.4026 10.1618 15.4026 12.002C15.4026 13.8422 13.9101 15.3347 12.0699 15.3347Z" fill="white"/>
<path d="M18.6103 6.66161C18.6103 7.32581 18.0712 7.86107 17.4109 7.86107C16.7467 7.86107 16.2114 7.3219 16.2114 6.66161C16.2114 5.99742 16.7506 5.46216 17.4109 5.46216C18.0712 5.46216 18.6103 6.00133 18.6103 6.66161Z" fill="white"/>
</svg>
