<svg width="260" height="47" viewBox="0 0 260 47" fill="none" xmlns="http://www.w3.org/2000/svg">
<path fill-rule="evenodd" clip-rule="evenodd" d="M17.8881 28.1707C18.964 27.4107 20.4268 27.2967 21.6425 27.9986C23.3089 28.9607 23.8798 31.0915 22.9178 32.7579C21.9557 34.4243 19.8249 34.9952 18.1585 34.0331C16.9427 33.3312 16.31 32.0072 16.4304 30.6953L0 21.2092V34.9185L19.7774 46.337L39.5548 34.9185V29.0832L21.8356 18.853C20.7567 19.6343 19.2762 19.758 18.048 19.0489C16.3816 18.0868 15.8107 15.956 16.7728 14.2896C17.7349 12.6232 19.8657 12.0522 21.5321 13.0143C22.7601 13.7233 23.3932 15.067 23.2563 16.3918L39.5548 25.8018V12.0815L19.7774 0.662964L0 12.0815V17.843L17.8881 28.1707Z" fill="url(#paint0_radial_154_196)"/>
<path d="M244.662 33.1681V29.3266H254.532C255.186 29.3266 255.514 29.0275 255.514 28.4293C255.514 27.8498 255.186 27.56 254.532 27.56H249.036C248.326 27.56 247.69 27.4572 247.13 27.2516C246.569 27.0273 246.092 26.7282 245.699 26.3543C245.307 25.9804 245.008 25.5411 244.802 25.0364C244.597 24.513 244.494 23.9522 244.494 23.354C244.494 22.7184 244.606 22.1483 244.83 21.6436C245.055 21.1201 245.372 20.6808 245.784 20.3257C246.195 19.9518 246.672 19.6714 247.214 19.4845C247.756 19.2788 248.354 19.176 249.008 19.176H259.299V23.0175H249.877C249.242 23.0175 248.924 23.3073 248.924 23.8868C248.924 24.4663 249.242 24.756 249.877 24.756H255.486C256.925 24.756 258.037 25.1486 258.822 25.9337C259.607 26.7188 260 27.7189 260 28.934C260 29.5883 259.888 30.1771 259.663 30.7005C259.439 31.2052 259.121 31.6445 258.71 32.0184C258.318 32.3923 257.841 32.682 257.28 32.8877C256.738 33.0746 256.14 33.1681 255.486 33.1681H244.662Z" fill="white"/>
<path d="M234.679 33.1681C233.595 33.1681 232.595 32.9998 231.679 32.6633C230.763 32.3269 229.968 31.8502 229.295 31.2333C228.622 30.6164 228.099 29.878 227.725 29.0181C227.351 28.1582 227.164 27.2049 227.164 26.158C227.164 25.1299 227.351 24.1859 227.725 23.326C228.099 22.4661 228.622 21.7277 229.295 21.1108C229.968 20.4939 230.763 20.0172 231.679 19.6807C232.595 19.3443 233.595 19.176 234.679 19.176H238.24C239.044 19.176 239.745 19.2882 240.343 19.5125C240.941 19.7368 241.437 20.0453 241.829 20.4378C242.241 20.8304 242.54 21.3071 242.727 21.8679C242.932 22.41 243.035 23.0082 243.035 23.6624C243.035 24.8962 242.68 25.8215 241.97 26.4384C241.259 27.0553 240.091 27.3637 238.464 27.3637H233.473V24.8121H237.483C238.212 24.8121 238.577 24.485 238.577 23.8307C238.577 23.139 238.221 22.7932 237.511 22.7932H234.651C233.81 22.7932 233.128 23.083 232.604 23.6624C232.081 24.2419 231.819 25.0645 231.819 26.13C231.819 27.1955 232.081 27.9993 232.604 28.5414C233.128 29.0649 233.81 29.3266 234.651 29.3266H242.278V33.1681H234.679Z" fill="white"/>
<path d="M210.379 33.1681V29.3266H220.249C220.903 29.3266 221.23 29.0275 221.23 28.4293C221.23 27.8498 220.903 27.56 220.249 27.56H214.753C214.042 27.56 213.407 27.4572 212.846 27.2516C212.285 27.0273 211.809 26.7282 211.416 26.3543C211.023 25.9804 210.724 25.5411 210.519 25.0364C210.313 24.513 210.21 23.9522 210.21 23.354C210.21 22.7184 210.322 22.1483 210.547 21.6436C210.771 21.1201 211.089 20.6808 211.5 20.3257C211.911 19.9518 212.388 19.6714 212.93 19.4845C213.472 19.2788 214.071 19.176 214.725 19.176H225.016V23.0175H215.594C214.958 23.0175 214.641 23.3073 214.641 23.8868C214.641 24.4663 214.958 24.756 215.594 24.756H221.202C222.641 24.756 223.754 25.1486 224.539 25.9337C225.324 26.7188 225.717 27.7189 225.717 28.934C225.717 29.5883 225.604 30.1771 225.38 30.7005C225.156 31.2052 224.838 31.6445 224.427 32.0184C224.034 32.3923 223.557 32.682 222.997 32.8877C222.455 33.0746 221.856 33.1681 221.202 33.1681H210.379Z" fill="white"/>
<path d="M203.491 33.1679V19.1759H208.174V33.1679H203.491ZM205.538 17.8019C204.921 17.8019 204.407 17.6244 203.996 17.2692C203.603 16.8953 203.407 16.3906 203.407 15.755C203.407 15.1568 203.603 14.6801 203.996 14.325C204.407 13.9511 204.921 13.7642 205.538 13.7642H206.183C206.8 13.7642 207.305 13.9511 207.697 14.325C208.09 14.6801 208.286 15.1568 208.286 15.755C208.286 16.3906 208.09 16.8953 207.697 17.2692C207.305 17.6244 206.8 17.8019 206.183 17.8019H205.538Z" fill="white"/>
<path d="M190.782 33.1681V25.8496C190.782 23.7185 191.371 22.0735 192.549 20.9145C193.726 19.7555 195.465 19.176 197.764 19.176H201.69V23.4381H197.876C196.269 23.4381 195.465 24.2326 195.465 25.8215V33.1681H190.782Z" fill="white"/>
<path d="M171.751 38.047V25.8496C171.751 23.6998 172.331 22.0548 173.49 20.9145C174.667 19.7555 176.424 19.176 178.761 19.176H181.229C182.313 19.176 183.313 19.3443 184.229 19.6807C185.164 19.9985 185.967 20.4659 186.64 21.0828C187.313 21.6996 187.837 22.4661 188.211 23.382C188.585 24.2793 188.771 25.3075 188.771 26.4665C188.771 28.5601 188.136 30.2238 186.865 31.4576C185.594 32.6914 183.706 33.3083 181.201 33.3083C180.602 33.3083 180.004 33.2709 179.406 33.1961C178.827 33.14 178.294 33.0466 177.808 32.9157V28.6816C178.294 28.8125 178.789 28.9153 179.294 28.9901C179.799 29.0462 180.266 29.0742 180.696 29.0742C181.78 29.0742 182.612 28.8779 183.191 28.4854C183.79 28.0741 184.089 27.3544 184.089 26.3263C184.089 25.3168 183.818 24.5878 183.276 24.1391C182.752 23.6905 182.07 23.4662 181.229 23.4662H178.873C177.247 23.4662 176.434 24.2606 176.434 25.8496V38.047H171.751Z" fill="white"/>
<path d="M159.538 33.1681V25.8496C159.538 23.7185 160.127 22.0735 161.305 20.9145C162.482 19.7555 164.221 19.176 166.52 19.176H170.446V23.4381H166.632C165.025 23.4381 164.221 24.2326 164.221 25.8215V33.1681H159.538Z" fill="white"/>
<path d="M149.135 33.1681C148.051 33.1681 147.05 32.9998 146.134 32.6633C145.218 32.3269 144.424 31.8502 143.751 31.2333C143.078 30.6164 142.555 29.878 142.181 29.0181C141.807 28.1582 141.62 27.2049 141.62 26.158C141.62 25.1299 141.807 24.1859 142.181 23.326C142.555 22.4661 143.078 21.7277 143.751 21.1108C144.424 20.4939 145.218 20.0172 146.134 19.6807C147.05 19.3443 148.051 19.176 149.135 19.176H152.696C153.5 19.176 154.201 19.2882 154.799 19.5125C155.397 19.7368 155.892 20.0453 156.285 20.4378C156.696 20.8304 156.995 21.3071 157.182 21.8679C157.388 22.41 157.491 23.0082 157.491 23.6624C157.491 24.8962 157.136 25.8215 156.425 26.4384C155.715 27.0553 154.547 27.3637 152.92 27.3637H147.929V24.8121H151.939C152.668 24.8121 153.032 24.485 153.032 23.8307C153.032 23.139 152.677 22.7932 151.967 22.7932H149.107C148.266 22.7932 147.583 23.083 147.06 23.6624C146.536 24.2419 146.275 25.0645 146.275 26.13C146.275 27.1955 146.536 27.9993 147.06 28.5414C147.583 29.0649 148.266 29.3266 149.107 29.3266H156.734V33.1681H149.135Z" fill="white"/>
<path d="M135.013 33.1679C133.312 33.1679 132.032 32.7287 131.172 31.8501C130.331 30.9528 129.91 29.6816 129.91 28.0366V15.1942H134.565V19.1759H140.173V23.0455H134.565V27.6721C134.565 28.775 135.116 29.3264 136.219 29.3264H140.032V33.1679H135.013Z" fill="white"/>
<path d="M122.825 33.1681V25.8215C122.825 24.2326 122.011 23.4381 120.385 23.4381H115.702V33.1681H110.992V19.176H120.497C122.815 19.176 124.563 19.7555 125.741 20.9145C126.918 22.0735 127.507 23.7185 127.507 25.8496V33.1681H122.825Z" fill="white"/>
<path d="M97.3203 25.9617V22.0641H108.088V25.9617H97.3203ZM90.7869 33.168V14.9419H108.284V19.6246H95.694V28.4572H108.312V33.168H90.7869Z" fill="white"/>
<path d="M61.1207 33.168V28.4572H74.7482C75.1034 28.4572 75.3931 28.3544 75.6174 28.1488C75.8418 27.9245 75.9539 27.616 75.9539 27.2235C75.9539 26.8309 75.8418 26.5225 75.6174 26.2982C75.3931 26.0738 75.1034 25.9617 74.7482 25.9617H66.7287C65.8875 25.9617 65.1024 25.8308 64.3733 25.5691C63.663 25.2887 63.0461 24.9148 62.5227 24.4475C62.018 23.9615 61.6161 23.382 61.317 22.709C61.0366 22.0361 60.8964 21.2883 60.8964 20.4658C60.8964 19.6433 61.0366 18.8956 61.317 18.2226C61.6161 17.5309 62.018 16.9421 62.5227 16.4561C63.0461 15.97 63.663 15.5962 64.3733 15.3345C65.1024 15.0727 65.8875 14.9419 66.7287 14.9419H80.5805V19.6246H66.953C66.5979 19.6246 66.3081 19.7274 66.0838 19.933C65.8782 20.1387 65.7753 20.4378 65.7753 20.8303C65.7753 21.2042 65.8782 21.5033 66.0838 21.7276C66.3081 21.9519 66.5979 22.0641 66.953 22.0641H74.9725C75.8324 22.0641 76.6175 22.2043 77.3279 22.4847C78.0382 22.7464 78.6551 23.1203 79.1785 23.6063C79.702 24.0923 80.1039 24.6812 80.3843 25.3728C80.6834 26.0458 80.8329 26.7842 80.8329 27.588C80.8329 28.4292 80.6834 29.1956 80.3843 29.8873C80.1039 30.5603 79.702 31.1491 79.1785 31.6538C78.6551 32.1399 78.0382 32.5137 77.3279 32.7754C76.6175 33.0371 75.8324 33.168 74.9725 33.168H61.1207Z" fill="white"/>
<defs>
<radialGradient id="paint0_radial_154_196" cx="0" cy="0" r="1" gradientUnits="userSpaceOnUse" gradientTransform="translate(8.5366 13.0912) rotate(51.7098) scale(36.4675 31.5818)">
<stop offset="1" stop-color="#FFD600"/>
</radialGradient>
</defs>
</svg>
