<svg width="2576" height="693" viewBox="0 0 2576 693" fill="none" xmlns="http://www.w3.org/2000/svg">
<path fill-rule="evenodd" clip-rule="evenodd" d="M909.623 202.44C918.467 205.572 923.995 207.415 925.837 207.967C928.175 208.952 931.992 210.347 937.233 212.262C939.84 213.216 942.8 214.298 946.106 215.522C956.056 219.207 961.215 227.315 961.215 239.844C961.215 248.136 958.267 255.138 952.371 260.85C946.474 266.746 939.657 269.51 931.549 269.51C923.258 269.51 916.256 266.746 910.544 260.85C904.648 255.138 901.884 248.136 901.884 239.844H842.368C842.368 264.535 851.028 285.54 868.533 302.861C885.853 320.365 906.859 329.026 931.549 329.026C955.872 329.026 976.877 320.365 994.382 302.861C1011.7 285.54 1020.55 264.535 1020.55 239.844C1020.55 223.261 1016.31 209.81 1008.2 199.123C999.91 188.436 990.697 179.96 980.378 173.695C970.06 167.43 960.294 163.008 951.081 160.244C941.868 157.665 936.156 155.822 934.129 155.085C929.707 153.979 923.074 150.663 914.598 145.135C906.122 139.607 901.884 131.684 901.884 120.997C901.884 112.89 904.648 106.072 910.544 100.176C916.256 94.2795 923.258 91.3314 931.549 91.3314C939.657 91.3314 946.474 94.2795 952.371 100.176C958.267 106.072 961.215 112.89 961.215 120.997H1020.55C1020.55 96.6749 1011.7 75.6694 994.382 58.1648C976.877 40.8444 955.872 32 931.549 32C906.859 32 885.853 40.8444 868.533 58.1648C851.028 75.6694 842.368 96.6749 842.368 120.997C842.368 137.212 846.238 150.847 854.345 161.718C862.268 172.59 871.297 181.25 881.247 187.883C891.197 194.516 900.778 199.491 909.623 202.44ZM1282.75 32H1223.23V150.847V204.098V210.178C1223.23 226.578 1217.34 240.581 1205.73 252.19C1193.93 263.798 1180.11 269.51 1163.9 269.51C1147.5 269.51 1133.5 263.798 1121.89 252.19C1110.28 240.581 1104.57 226.578 1104.57 210.178V204.098V150.847V32H1045.05V150.847V210.178C1045.05 242.977 1056.66 270.984 1079.88 294.201C1103.09 317.417 1131.1 329.026 1163.9 329.026C1196.51 329.026 1224.52 317.417 1247.74 294.201C1270.95 270.984 1282.75 242.977 1282.75 210.178V150.847V32ZM1310.75 32L1488.93 194.332V32H1548.45V329.026L1370.27 166.509V329.026H1310.75V32ZM1786.88 43.7926C1768.82 36.0537 1749.66 32 1729.39 32C1688.49 32 1653.48 46.5565 1624.36 75.6694C1595.25 104.782 1580.88 139.792 1580.88 180.513C1580.88 221.418 1595.25 256.427 1624.36 285.54C1653.48 314.653 1688.49 329.026 1729.39 329.026C1749.66 329.026 1768.82 325.156 1786.88 317.417C1804.94 309.678 1820.78 298.991 1834.42 285.356L1792.41 243.345C1774.9 260.85 1753.9 269.51 1729.39 269.51C1704.7 269.51 1683.69 260.85 1666.37 243.529C1649.05 226.209 1640.39 205.203 1640.39 180.513C1640.39 156.191 1649.05 135.185 1666.37 117.68C1683.69 100.176 1704.7 91.3314 1729.39 91.3314C1753.71 91.3314 1774.72 100.176 1792.41 117.496L1834.42 75.4851C1820.78 62.2185 1804.94 51.5315 1786.88 43.7926ZM1961.74 225.103H2008.36L1985.14 173.142L1961.74 225.103ZM1935.02 284.435L1934.1 286.646L1914.94 329.026H1904.81H1902.41H1864.08H1851.55L1978.69 45.8194L1984.96 32L1991.41 46.0037L2118.73 329.026H2106.2H2067.87H2065.3H2055.16L2036.18 286.462L2035.26 284.435H1935.02ZM2130.71 239.844V329.026H2190.22V220.313L2266.14 329.026H2338.74L2271.67 233.027C2291.2 225.656 2307.23 213.311 2319.76 195.622C2332.29 177.933 2338.74 158.033 2338.74 135.922C2338.74 107.546 2328.42 83.0397 2308.15 62.587C2287.7 42.3185 2263.19 32 2234.63 32H2190.22H2130.71V135.922V239.844ZM2234.63 180.513H2190.22V135.922V91.3314H2234.63C2246.79 91.3314 2257.29 95.7536 2266.14 104.598C2274.8 113.442 2279.22 123.761 2279.22 135.922C2279.22 148.267 2274.8 158.77 2266.14 167.43C2257.29 176.275 2246.79 180.513 2234.63 180.513ZM2365.82 32H2544V91.3314H2425.34V150.847H2514.33V210.178H2425.34V269.51H2544V329.026H2425.34H2365.82V210.178V150.847V32ZM448.368 135.615V34.7773H438.923L269.925 208.115L448.368 135.615ZM448.368 226.751V152.463L277.583 224.964L448.368 226.751ZM657.956 451.656H456.282L272.988 261.98L620.685 394.983L278.86 242.834H657.956V451.656ZM448.879 660.223H240.567V281.126L399.864 643.374L257.671 273.468L449.134 459.059L448.879 660.223ZM257.671 195.351L422.329 35.0326H322.513L257.671 195.351ZM241.078 188.203L305.92 35.0326H241.078V188.203ZM149.431 451.656H223.974L222.187 281.637L149.431 451.656ZM32 441.445V451.656H133.603L205.593 272.447L32 441.445ZM32 308.952V243.6H183.894L32 308.952ZM32 325.29V424.851L191.808 260.448L32 325.29ZM981.277 560.426L842.368 375.214V660.101H899.452V546.111L981.277 655.506L1063.1 546.111V660.101H1120.19V375.214L981.277 560.426ZM1317.24 375.214H1146.34V489.204V546.111V660.101H1203.43H1317.24V603.018H1203.43V546.111H1288.79V489.204H1203.43V432.121H1317.24V375.214ZM1399.95 375.214C1439 375.214 1472.58 389.176 1500.51 417.099C1528.43 445.022 1542.39 478.601 1542.39 517.658C1542.39 556.892 1528.43 590.47 1500.51 618.393C1472.58 646.316 1439 660.101 1399.95 660.101H1342.86V375.214H1399.95ZM1399.95 603.018C1423.28 603.018 1443.42 594.711 1460.21 578.099C1476.82 561.486 1485.31 541.339 1485.31 517.658C1485.31 494.33 1476.82 474.182 1460.21 457.393C1443.42 440.604 1423.28 432.121 1399.95 432.121V603.018ZM1618.74 375.214H1561.65V660.101H1618.74V375.214ZM1791.4 375.214C1810.84 375.214 1829.22 379.102 1846.54 386.525C1863.86 393.948 1879.06 404.198 1892.14 416.922L1851.84 457.216C1834.88 440.604 1814.73 432.121 1791.4 432.121C1767.72 432.121 1747.57 440.604 1730.96 457.393C1714.35 474.182 1706.04 494.33 1706.04 517.658C1706.04 541.339 1714.35 561.486 1730.96 578.099C1747.57 594.711 1767.72 603.018 1791.4 603.018C1814.91 603.018 1835.05 594.711 1851.84 577.922L1892.14 618.216C1879.06 631.294 1863.86 641.545 1846.54 648.967C1829.22 656.39 1810.84 660.101 1791.4 660.101C1752.17 660.101 1718.59 646.316 1690.67 618.393C1662.74 590.47 1648.96 556.892 1648.96 517.658C1648.96 478.601 1662.74 445.022 1690.67 417.099C1718.59 389.176 1752.17 375.214 1791.4 375.214ZM2058.97 560.426H2014.26L2036.7 510.589L2058.97 560.426ZM1987.75 619.453L1988.63 617.333H2084.77L2085.66 619.277L2103.86 660.101H2113.58H2116.05H2152.81H2164.83L2042.71 388.646L2036.52 375.214L2030.52 388.469L1908.57 660.101H1920.59H1957.35H1959.65H1969.37L1987.75 619.453ZM2176.32 375.214H2233.4V603.018H2347.21V660.101H2176.32V375.214ZM2437.35 538.688C2445.83 541.693 2451.13 543.46 2452.9 543.99C2455.14 544.935 2458.8 546.273 2463.83 548.11C2466.33 549.024 2469.17 550.062 2472.34 551.236C2481.88 554.771 2486.83 562.547 2486.83 574.564C2486.83 582.517 2484 589.233 2478.35 594.711C2472.69 600.367 2466.15 603.018 2458.38 603.018C2450.42 603.018 2443.71 600.367 2438.23 594.711C2432.57 589.233 2429.92 582.517 2429.92 574.564H2372.84C2372.84 598.246 2381.15 618.393 2397.93 635.006C2414.55 651.795 2434.69 660.101 2458.38 660.101C2481.7 660.101 2501.85 651.795 2518.64 635.006C2535.25 618.393 2543.74 598.246 2543.74 574.564C2543.74 558.659 2539.67 545.758 2531.9 535.507C2523.94 525.257 2515.11 517.128 2505.21 511.119C2495.31 505.11 2485.95 500.868 2477.11 498.218C2468.27 495.743 2462.79 493.976 2460.85 493.269C2456.61 492.209 2450.25 489.028 2442.12 483.726C2433.99 478.424 2429.92 470.825 2429.92 460.574C2429.92 452.798 2432.57 446.259 2438.23 440.604C2443.71 434.949 2450.42 432.121 2458.38 432.121C2466.15 432.121 2472.69 434.949 2478.35 440.604C2484 446.259 2486.83 452.798 2486.83 460.574H2543.74C2543.74 437.246 2535.25 417.099 2518.64 400.31C2501.85 383.697 2481.7 375.214 2458.38 375.214C2434.69 375.214 2414.55 383.697 2397.93 400.31C2381.15 417.099 2372.84 437.246 2372.84 460.574C2372.84 476.126 2376.55 489.204 2384.33 499.631C2391.93 510.058 2400.59 518.365 2410.13 524.727C2419.67 531.089 2428.86 535.861 2437.35 538.688Z" fill="white"/>
</svg>
