<svg width="147" height="85" viewBox="0 0 147 85" fill="none" xmlns="http://www.w3.org/2000/svg">
<path d="M55.5306 61.7007C55.9128 61.9555 56.1039 62.4014 56.1039 63.0384C56.1039 63.6647 56.0189 64.2168 55.8491 64.6945C55.6792 65.1723 55.382 65.6182 54.9573 66.0322C54.0018 66.9665 52.5474 67.4336 50.5939 67.4336C48.322 67.4336 46.5915 66.5949 45.4025 64.9175C44.3514 63.4206 43.8259 61.3981 43.8259 58.8502C43.8259 56.281 44.5372 54.2639 45.9598 52.7988C47.3081 51.408 49.1342 50.7126 51.4379 50.7126C53.041 50.7126 54.2938 51.1798 55.1962 52.114C55.9075 52.8572 56.2631 53.7171 56.2631 54.6938C56.2631 55.6599 56.072 56.5358 55.6898 57.3214C55.3183 58.0964 54.7662 58.7652 54.0337 59.3279C52.5261 60.4957 50.4188 61.1115 47.7116 61.1752C47.9345 63.3091 48.6033 64.737 49.7181 65.4589C50.1215 65.7137 50.6576 65.8411 51.3265 65.8411C51.9953 65.8411 52.7066 65.4908 53.4604 64.7901C54.2141 64.0894 54.9042 63.0596 55.5306 61.7007ZM47.616 59.6623C50.9708 59.4394 52.6482 57.8151 52.6482 54.7894C52.6482 53.6534 52.3085 52.889 51.629 52.4962C51.3955 52.3688 51.0876 52.3051 50.7054 52.3051C50.3232 52.3051 49.9357 52.4219 49.5429 52.6555C49.1607 52.889 48.8263 53.2712 48.5396 53.802C47.9239 54.9592 47.616 56.7481 47.616 59.1687V59.6623Z" fill="white"/>
<path d="M63.3974 51.0311C63.2063 51.4983 63.1107 52.0132 63.1107 52.5758C63.1107 53.1279 63.1532 53.6216 63.2381 54.0568C63.3231 54.4815 63.4399 54.9805 63.5885 55.5538L65.3084 61.6688L65.9135 63.6276C66.5399 61.7485 66.9539 60.4798 67.1556 59.8216L67.7289 57.8788C68.3553 55.7448 68.6685 54.4231 68.6685 53.9135C68.6685 53.4039 68.6419 53.0323 68.5888 52.7988C68.5464 52.5546 68.4827 52.337 68.3977 52.1459C68.2916 51.8592 68.0846 51.4876 67.7767 51.0311H73.5733C72.7877 52.114 72.2621 52.9262 71.9967 53.4676L71.4075 54.6779C71.312 54.869 71.1793 55.145 71.0094 55.506C68.9286 60.2515 67.8882 63.4312 67.8882 65.0449C67.8882 65.7774 68.0262 66.4675 68.3022 67.1151H62.5693C62.8241 66.7117 62.9727 66.3348 63.0152 65.9844C63.0683 65.6235 63.0948 65.2572 63.0948 64.8856C63.0948 64.5034 62.9993 63.9567 62.8082 63.2454C62.6171 62.5341 62.3676 61.7272 62.0597 60.8248C61.7518 59.9224 61.3962 58.9723 60.9928 57.9743C60.6 56.9657 60.1965 56.005 59.7825 55.0919C58.8482 53.043 58.0945 51.6894 57.5212 51.0311H63.3974Z" fill="white"/>
<path d="M87.1571 61.7007C87.5392 61.9555 87.7303 62.4014 87.7303 63.0384C87.7303 63.6647 87.6454 64.2168 87.4756 64.6945C87.3057 65.1723 87.0084 65.6182 86.5838 66.0322C85.6283 66.9665 84.1738 67.4336 82.2204 67.4336C79.9485 67.4336 78.218 66.5949 77.0289 64.9175C75.9779 63.4206 75.4524 61.3981 75.4524 58.8502C75.4524 56.281 76.1637 54.2639 77.5863 52.7988C78.9346 51.408 80.7606 50.7126 83.0644 50.7126C84.6675 50.7126 85.9202 51.1798 86.8226 52.114C87.5339 52.8572 87.8896 53.7171 87.8896 54.6938C87.8896 55.6599 87.6985 56.5358 87.3163 57.3214C86.9447 58.0964 86.3927 58.7652 85.6601 59.3279C84.1526 60.4957 82.0452 61.1115 79.338 61.1752C79.561 63.3091 80.2298 64.737 81.3445 65.4589C81.748 65.7137 82.2841 65.8411 82.9529 65.8411C83.6218 65.8411 84.3331 65.4908 85.0868 64.7901C85.8406 64.0894 86.5307 63.0596 87.1571 61.7007ZM79.2425 59.6623C82.5973 59.4394 84.2747 57.8151 84.2747 54.7894C84.2747 53.6534 83.935 52.889 83.2555 52.4962C83.0219 52.3688 82.7141 52.3051 82.3319 52.3051C81.9497 52.3051 81.5622 52.4219 81.1694 52.6555C80.7872 52.889 80.4528 53.2712 80.1661 53.802C79.5503 54.9592 79.2425 56.7481 79.2425 59.1687V59.6623Z" fill="white"/>
<path d="M91.393 67.1151C91.8814 65.4377 92.1256 62.5553 92.1256 58.468C92.1256 55.5591 91.8708 53.5738 91.3612 52.5121C91.2338 52.2467 91.0905 51.9972 90.9312 51.7637L90.4057 51.0311H95.9316C95.7723 51.562 95.6662 52.0609 95.6131 52.5281L95.4857 53.6746C96.7703 51.7 98.4052 50.7126 100.39 50.7126C101.675 50.7126 102.678 51.2116 103.4 52.2096C104.101 53.1863 104.451 54.508 104.451 56.1748V57.8788C104.451 60.7983 104.478 62.5819 104.531 63.2295C104.584 63.8771 104.626 64.3707 104.658 64.7105C104.69 65.0502 104.727 65.3528 104.77 65.6182C104.844 66.1171 104.956 66.6161 105.104 67.1151H100.438C100.927 65.4377 101.171 62.5553 101.171 58.468C101.171 56.833 101.065 55.713 100.852 55.1079C100.651 54.5027 100.406 54.0728 100.12 53.818C99.8331 53.5525 99.4562 53.4198 98.9891 53.4198C98.1292 53.4198 97.3489 53.7596 96.6482 54.439C96.043 55.0229 95.5812 55.7661 95.2627 56.6685C95.2415 56.9551 95.2309 57.2524 95.2309 57.5603V58.468C95.2309 62.5553 95.4751 65.4377 95.9634 67.1151H91.393Z" fill="white"/>
<path d="M113.815 44.6613C113.592 45.4787 113.481 46.4607 113.481 47.6073C113.481 48.7433 113.502 49.4705 113.544 49.789C113.597 50.1075 113.677 50.3623 113.783 50.5534C113.985 50.8719 114.378 51.0311 114.962 51.0311H119.229C119.229 51.6257 119.086 52.0822 118.799 52.4007C118.279 52.974 117.642 53.2606 116.888 53.2606C116.517 53.2606 116.188 53.2075 115.901 53.1013C115.381 52.889 114.978 52.7829 114.691 52.7829C114.404 52.7829 114.171 52.8412 113.99 52.958C113.81 53.0642 113.666 53.2234 113.56 53.4358C113.369 53.818 113.274 54.6514 113.274 55.9359C113.274 57.2205 113.311 58.537 113.385 59.8853C113.47 61.2336 113.672 62.3642 113.99 63.2772C114.309 64.1796 114.792 64.8591 115.439 65.3156C116.087 65.7721 116.979 66.0004 118.115 66.0004C118.115 66.3295 117.892 66.7223 117.446 67.1788C117.329 67.3062 117.228 67.3911 117.143 67.4336C115.264 67.4336 113.857 67.2106 112.923 66.7647C111.851 66.2339 111.087 65.2891 110.63 63.9301C110.174 62.55 109.945 60.5063 109.945 57.7991C109.945 55.4317 109.882 54.0356 109.754 53.6109C109.627 53.1757 109.51 52.889 109.404 52.751C109.276 52.5918 108.969 52.3954 108.48 52.1618C109.138 51.6628 109.791 50.7339 110.439 49.375L111.235 47.7029C111.798 46.4289 112.276 45.6061 112.668 45.2345C113.072 44.8524 113.454 44.6613 113.815 44.6613Z" fill="white"/>
<path d="M130.918 50.0916C131.205 50.7286 131.348 51.3709 131.348 52.0185C131.348 52.6661 131.316 53.2022 131.253 53.6269C131.199 54.0515 131.115 54.4603 130.998 54.8531C130.732 55.7448 130.355 56.4296 129.867 56.9074C129.538 55.2618 129.177 54.1948 128.784 53.7065C128.402 53.2181 128.015 52.889 127.622 52.7192C127.24 52.5493 126.831 52.4644 126.396 52.4644C125.96 52.4644 125.605 52.5068 125.329 52.5918C125.053 52.6767 124.814 52.7988 124.612 52.958C124.155 53.3084 123.927 53.7065 123.927 54.1524C123.927 54.5983 124.039 54.9858 124.262 55.3149C124.485 55.6334 124.777 55.9359 125.137 56.2226C125.509 56.4986 125.928 56.7693 126.396 57.0347L127.829 57.8469C129.06 58.537 129.904 59.1103 130.361 59.5668C131.263 60.4692 131.714 61.4194 131.714 62.4173C131.714 63.7231 131.269 64.8219 130.377 65.7137C129.251 66.8603 127.563 67.4336 125.313 67.4336C123.264 67.4336 121.724 66.9558 120.694 66.0004C120.397 65.7243 120.185 65.4483 120.058 65.1723C120.142 64.376 120.498 63.6276 121.124 62.9269C121.73 62.2474 122.319 61.8546 122.892 61.7485C122.85 61.8865 122.828 62.0935 122.828 62.3695C122.828 62.6456 122.908 62.9906 123.067 63.4046C123.227 63.8081 123.455 64.1849 123.752 64.5353C124.421 65.3421 125.175 65.7456 126.013 65.7456C126.852 65.7456 127.468 65.5545 127.861 65.1723C128.253 64.7901 128.45 64.3548 128.45 63.8664C128.45 63.3781 128.338 62.9694 128.115 62.6402C127.892 62.3111 127.595 62.0033 127.224 61.7166C126.863 61.43 126.449 61.1539 125.981 60.8885L124.548 60.0764C123.327 59.3544 122.489 58.7387 122.032 58.2291C121.119 57.2099 120.663 56.1005 120.663 54.9008C120.663 53.6375 121.193 52.613 122.255 51.8274C123.264 51.0842 124.522 50.7126 126.029 50.7126L128.832 50.9037C129.511 50.9037 129.984 50.8241 130.249 50.6649C130.515 50.495 130.738 50.3039 130.918 50.0916Z" fill="white"/>
<path fill-rule="evenodd" clip-rule="evenodd" d="M59.5262 43.6572C59.5262 42.8422 59.2817 42.2718 58.7927 41.9458C57.9913 43.6844 57.1084 45.002 56.144 45.8985C55.1796 46.795 54.2695 47.2432 53.4138 47.2432C52.558 47.2432 51.872 47.0802 51.3559 46.7542C49.9296 45.8306 49.0739 44.0036 48.7886 41.2734C52.2524 41.1919 54.9487 40.404 56.8775 38.9099C57.8147 38.19 58.5211 37.3342 58.9965 36.3426C59.4855 35.3375 59.73 34.2168 59.73 32.9808C59.73 31.7311 59.275 30.6309 58.3649 29.68C57.2103 28.4847 55.6075 27.887 53.5564 27.887C50.6088 27.887 48.2725 28.7767 46.5474 30.5561C44.7272 32.4306 43.8171 35.0115 43.8171 38.2986C43.8171 41.5586 44.4895 44.1462 45.8343 46.0615C47.216 48.0108 49.1693 49.0748 51.6941 49.2537C51.836 49.2575 51.9766 49.2647 52.1158 49.2751C52.2348 49.2789 52.3551 49.2807 52.4765 49.2807C54.9758 49.2807 56.8367 48.6831 58.0592 47.4877C58.6026 46.958 58.9829 46.3875 59.2002 45.7762C59.4176 45.165 59.5262 44.4587 59.5262 43.6572ZM55.1049 33.103C55.1049 36.9743 52.9587 39.0525 48.6664 39.3378V38.7061C48.6664 35.6091 49.0603 33.3203 49.8481 31.8398C50.2149 31.1606 50.6428 30.6716 51.1318 30.3728C51.6343 30.0739 52.1301 29.9245 52.6191 29.9245C53.1081 29.9245 53.502 30.006 53.8009 30.169C54.6702 30.6716 55.1049 31.6496 55.1049 33.103ZM75.9892 48.8732C76.6141 46.7271 76.9265 43.0392 76.9265 37.8096C76.9265 35.6227 76.811 34.1693 76.5801 33.4494C76.3492 32.7159 76.0571 32.1861 75.704 31.8601C75.3644 31.5206 74.9026 31.3508 74.3185 31.3508C73.748 31.3508 73.225 31.4594 72.7496 31.6768C72.2878 31.8941 71.8735 32.1793 71.5067 32.5325C70.814 33.1845 70.2503 34.0538 69.8156 35.1405V39.0321C69.8156 42.849 69.8903 45.2125 70.0397 46.1226C70.2163 47.3179 70.3997 48.2348 70.5899 48.8732H64.5792C64.9052 47.7322 65.1226 46.2177 65.2312 44.3296C65.4757 39.6026 65.598 36.1253 65.598 33.8976C65.598 31.6564 65.5912 30.1283 65.5776 29.3133C65.564 28.4847 65.5437 27.6629 65.5165 26.8479C65.4486 23.8867 65.3127 22.0326 65.109 21.2855C64.9188 20.5249 64.7354 19.9747 64.5589 19.6352C64.3959 19.282 64.2125 18.9628 64.0087 18.6775L63.316 17.7199H70.7529C70.3725 19.0918 70.1484 20.3687 70.0805 21.5504C70.0261 22.7322 69.9854 23.6966 69.9582 24.4437C69.9311 25.1772 69.9039 25.9514 69.8767 26.7664C69.836 28.6681 69.8156 30.3456 69.8156 31.799C70.8887 29.9924 72.3081 28.7971 74.074 28.213C74.6988 27.9957 75.3983 27.887 76.1726 27.887C76.9468 27.887 77.6464 28.0568 78.2712 28.3964C78.9096 28.7224 79.4394 29.191 79.8605 29.8023C80.7298 31.0384 81.1645 32.7295 81.1645 34.8756V37.0558C81.1645 41.2123 81.2188 43.8202 81.3275 44.8797C81.4497 45.9257 81.5312 46.6184 81.572 46.958C81.667 47.5557 81.8097 48.1941 81.9998 48.8732H75.9892ZM102.293 41.905L102.354 37.993C102.354 34.4342 101.94 31.9281 101.112 30.4746C100.623 29.6189 99.9366 28.9737 99.0537 28.539C98.1844 28.1044 97.0162 27.887 95.5492 27.887C94.0822 27.887 92.5812 28.1247 91.0463 28.6001L89.4775 29.0891C89.0156 29.2386 88.5266 29.3133 88.0105 29.3133C87.7931 30.3456 87.6845 31.2761 87.6845 32.1046C87.6845 34.1421 88.2889 35.5208 89.4978 36.2408C89.8917 34.5972 90.5505 33.1709 91.4742 31.962C91.936 31.3644 92.4522 30.8754 93.0227 30.495C93.5932 30.1147 94.1637 29.9245 94.7342 29.9245C95.3183 29.9245 95.7937 30.0264 96.1604 30.2301C97.1792 30.8006 97.6886 32.7363 97.6886 36.037V36.2611C94.6051 36.3155 92.0447 36.9743 90.0072 38.2375C88.9749 38.8895 88.1395 39.7113 87.5011 40.7029C86.8762 41.6945 86.5638 42.8558 86.5638 44.187C86.5638 45.5182 86.9985 46.6727 87.8678 47.6507C88.8594 48.7374 90.1634 49.2807 91.7798 49.2807C94.6187 49.2807 96.8057 48.3571 98.3406 46.5097L98.9722 48.8732H104.881L103.923 48.099C103.557 47.8137 103.237 47.4062 102.966 46.8765C102.517 45.9936 102.293 44.3364 102.293 41.905ZM91.5353 46.5505C91.155 46.0887 90.9648 45.4367 90.9648 44.5945C90.9648 42.8015 91.6372 41.3209 92.9819 40.1528C94.218 39.0661 95.7869 38.4345 97.6886 38.2579V41.2734C97.6886 42.9034 97.1792 44.3228 96.1604 45.5317C95.7258 46.0615 95.2368 46.4826 94.6934 46.795C94.1501 47.0938 93.5864 47.2432 93.0023 47.2432C92.4182 47.2432 91.9292 47.0123 91.5353 46.5505ZM108.426 48.8732C109.051 46.7271 109.363 43.0392 109.363 37.8096C109.363 34.0878 109.065 31.5477 108.467 30.1894C108.222 29.6325 107.788 29.0009 107.163 28.2945H114.396C114.152 29.1503 113.955 30.3252 113.805 31.8194C115.082 30.2166 116.861 29.0824 119.143 28.4168C120.121 28.1315 120.835 27.6833 121.283 27.072C121.731 28.1451 121.955 29.0688 121.955 29.843C121.955 30.6173 121.914 31.3372 121.833 32.0028C121.751 32.6548 121.629 33.2932 121.466 33.918C121.113 35.2628 120.644 36.3087 120.06 37.0558C119.558 34.407 118.777 32.8585 117.717 32.4103C116.495 31.8805 115.299 32.6004 114.131 34.57C113.887 34.9775 113.683 35.4122 113.52 35.874C113.506 36.1864 113.5 36.5056 113.5 36.8316V37.8096C113.5 39.8405 113.547 41.6389 113.641 43.2048C112.827 43.2606 112.161 43.701 111.663 44.1725L111.663 44.1729C111.316 44.5013 111.015 44.9407 110.751 45.396C110.478 45.8651 110.197 46.4351 109.906 47.0928L109.119 48.7458L109.119 48.7462C109.098 48.7892 109.078 48.8316 109.057 48.8732H108.426ZM131.272 47.417C130.874 45.2994 130.676 42.3822 130.676 38.6654C130.676 33.9927 130.974 30.5358 131.572 28.2945H124.339L125.011 29.2318C125.215 29.5306 125.399 29.8566 125.562 30.2098C126.214 31.5953 126.54 34.1286 126.54 37.8096C126.54 43.0392 126.227 46.7271 125.602 48.8732H130.034L131.272 47.417ZM130.126 23.9547C130.519 23.6422 130.852 23.2619 131.124 22.8137C131.409 22.3654 131.626 21.8764 131.776 21.3467C131.925 20.8169 132 20.3551 132 19.9612C132 19.5537 131.939 19.1869 131.817 18.8609C131.423 17.7199 130.418 17.1494 128.801 17.1494C128.217 17.1494 127.721 17.2241 127.314 17.3735C126.173 17.7946 125.602 18.63 125.602 19.8797C125.602 20.912 125.881 21.89 126.438 22.8137C126.709 23.2619 127.042 23.6422 127.436 23.9547C127.83 24.2535 128.278 24.4029 128.781 24.4029C129.283 24.4029 129.732 24.2535 130.126 23.9547Z" fill="white"/>
<path d="M26.082 49.2055C26.082 48.1181 26.1959 46.6623 26.4238 44.8382C25.8803 44.9786 25.3018 45.2066 24.6882 45.5223C22.3915 46.6623 20.9012 48.4513 20.2175 50.8893C20.2175 53.4851 21.3571 55.5723 23.6362 57.1509C25.705 58.5891 28.177 59.3082 31.0523 59.3082C34.5237 59.3082 37.3639 58.3874 39.5729 56.5457C41.7118 54.7392 42.7813 52.4591 42.7813 49.7054C42.7813 47.4253 41.9924 45.0663 40.4145 42.6283C39.6956 41.5409 38.8716 40.4885 37.9424 39.4712C37.0308 38.4539 35.1724 36.5071 32.3672 33.6306C31.438 32.701 30.614 31.7802 29.8952 30.8682C29.1939 29.9386 28.6241 29.009 28.1858 28.0794C27.7475 27.1498 27.5284 26.3255 27.5284 25.6064C27.5284 24.8697 27.5897 24.2558 27.7124 23.7647C28.1508 22.0283 29.3166 21.1602 31.2101 21.1602C33.4192 21.1602 35.3652 22.3879 37.0483 24.8434C38.4859 26.9306 39.345 29.2984 39.6255 31.9468C39.871 31.8241 40.0901 31.5259 40.283 31.0523C40.8615 29.6667 41.1508 27.5182 41.1508 24.6066C41.1508 20.0464 40.5109 17.4067 39.231 16.6876C38.9856 17.0559 38.7577 17.3541 38.5473 17.5821C37.9863 18.2135 37.1973 18.5293 36.1805 18.5293C35.7772 18.5293 34.9707 18.4152 33.761 18.1872C33.1123 18.0645 32.1481 18.0031 30.8682 18.0031C27.6073 18.0031 25.1089 18.9239 23.3732 20.7655C21.9356 22.2739 21.2168 24.1418 21.2168 26.3693C21.2168 29.1055 22.0846 31.8591 23.8203 34.6304C24.6969 36.0335 26.3362 37.8927 28.7381 40.2079L31.4731 42.8651C34.6464 45.9345 36.2331 48.8372 36.2331 51.5733C36.2331 54.976 34.6902 56.6773 31.6046 56.6773C29.9916 56.6773 28.6592 55.9669 27.6073 54.5463C27.1164 53.8798 26.7394 53.0905 26.4764 52.1785C26.2135 51.2664 26.082 50.2754 26.082 49.2055Z" fill="white"/>
<path d="M32.7527 13.7138L31.8374 5.18593C31.7165 4.05929 32.6037 3.07208 33.7325 3.17146C34.4475 3.23441 35.1596 3.32751 35.8665 3.45043C37.0174 3.65054 37.6117 4.8934 37.1389 5.96162L33.6461 13.8531C33.5637 14.0393 33.3681 14.1476 33.1659 14.1245C32.9493 14.0997 32.776 13.9305 32.7527 13.7138Z" fill="#E84779"/>
<path d="M25.3465 15.11L20.2327 8.10388C19.5642 7.18798 19.8398 5.88825 20.8686 5.41142C21.4702 5.13261 22.0792 4.87915 22.6941 4.65081C23.7912 4.24349 24.9309 5.0229 25.0558 6.18645L25.9869 14.8624C26.0034 15.0162 25.9167 15.1619 25.7749 15.2236C25.6229 15.2898 25.4442 15.2439 25.3465 15.11Z" fill="#A856A8"/>
<path d="M17.0866 26.5626L8.32844 27.5025C7.18408 27.6254 6.18886 26.709 6.31892 25.5655C6.38343 24.9982 6.46698 24.4333 6.56939 23.8718C6.77793 22.7283 8.0155 22.1426 9.07836 22.613L17.1458 26.1836C17.2269 26.2195 17.2737 26.3053 17.2612 26.3931C17.2484 26.4828 17.1767 26.5529 17.0866 26.5626Z" fill="#62D18A"/>
<path d="M17.971 33.7201L10.8418 38.9238C9.90576 39.607 8.57598 39.3014 8.12661 38.2332C7.90449 37.7052 7.70143 37.172 7.5173 36.6348C7.1437 35.5447 7.92202 34.4356 9.06777 34.3126L17.8363 33.3715C17.9238 33.3621 18.0062 33.4135 18.0372 33.4957C18.0679 33.577 18.0411 33.6689 17.971 33.7201Z" fill="#FAC666"/>
<path d="M19.713 19.8291L11.705 16.2848C10.6617 15.8231 10.2536 14.5483 10.9198 13.6221C11.2725 13.1319 11.6442 12.6524 12.0348 12.1849C12.7832 11.2891 14.1555 11.3966 14.8437 12.3395L20.0265 19.4401C20.0936 19.532 20.0914 19.6572 20.0228 19.7479C19.9506 19.8433 19.8225 19.8776 19.713 19.8291Z" fill="#2F7CEA"/>
</svg>
