<svg width="147" height="88" viewBox="0 0 147 88" fill="none" xmlns="http://www.w3.org/2000/svg">
<path fill-rule="evenodd" clip-rule="evenodd" d="M26 47.969V47.9671C24.3726 46.2872 23.0718 44.7433 22.2119 43.3674C20.1568 40.0856 18.9993 36.6067 18.9993 32.9848C18.9993 29.8111 20.0593 26.9347 22.2526 24.6293C24.9463 21.7765 28.6273 20.6186 32.6508 20.6186C33.5704 20.6186 34.454 20.6465 35.2491 20.7264L36.6075 20.8925C36.8199 20.9341 36.9809 20.9702 37.1193 21.0013C37.3022 21.0423 37.4456 21.0745 37.6158 21.0986L37.6707 21.1063L37.6853 21.0845L39.7413 18L42.973 19.8158C45.1368 21.0317 45.9619 23.3167 46.3408 24.8797C46.769 26.6461 46.9334 28.8076 46.9334 31.2221C46.9334 31.8657 46.9208 32.499 46.8923 33.1177C49.2848 31.3107 52.19 30.5023 55.339 30.5023C58.2041 30.5023 60.9467 31.3653 63.0245 33.5163L63.0308 33.5229L63.0371 33.5294C63.13 33.6265 63.2206 33.7251 63.3087 33.8251L63.3013 33.5967L63.3006 33.5758L63.3001 33.5549C63.2669 32.1072 63.218 30.9773 63.1569 30.144C63.1018 29.392 63.0473 29.0509 63.0343 28.9695C63.0312 28.9507 63.0305 28.9458 63.0324 28.953L63.0213 28.9122L63.011 28.8711C62.9328 28.5581 62.867 28.3338 62.8167 28.1826C62.7937 28.1137 62.7779 28.0722 62.7705 28.0533L62.749 28.012L62.7097 27.9269C62.6428 27.782 62.5838 27.6851 62.5407 27.624L57.2683 20.3352H77.7955L76.39 25.404C76.0735 26.5454 75.9079 27.531 75.8577 28.3741C75.8155 29.2926 75.7818 30.0731 75.7566 30.7175C76.4837 30.5684 77.2206 30.5023 77.9552 30.5023C79.3193 30.5023 80.6688 30.8039 81.9183 31.4727C83.1428 32.1074 84.1527 33.0152 84.9257 34.1318C85.2557 34.603 85.5385 35.0964 85.7788 35.6076C85.8101 35.4402 85.8435 35.2725 85.8789 35.1043L86.5477 31.9285H89.7931C89.9177 31.9285 89.9893 31.9114 90.0291 31.8986L90.0494 31.892L91.6454 31.3945C93.5273 30.8116 95.4273 30.5023 97.3318 30.5023C98.4994 30.5023 99.6922 30.6104 100.833 30.9098H120.142H125C125 30.9098 123.385 28 123.385 26.4852C123.385 24.9704 123.676 23.8956 124.51 22.6747C125.352 21.442 126.523 20.6749 127.712 20.2362L127.718 20.2338C128.691 19.8768 129.683 19.7647 130.584 19.7647C131.822 19.7647 133.227 19.9775 134.524 20.7138C135.899 21.4937 136.86 22.6979 137.364 24.1228C137.666 24.9507 137.783 25.7858 137.783 26.5764C137.783 27.4517 137.62 28.2942 137.409 29.0451L137.407 29.0516C137.225 29.6942 136.98 30.3159 136.668 30.9098H138.562L137.219 35.941C136.762 37.6548 136.459 40.6782 136.459 45.2807C136.459 48.9012 136.655 51.5332 136.986 53.2933L137.338 55.169L136.688 55.934C136.975 56.7947 137.131 57.6989 137.131 58.6339C137.131 59.3771 137.096 60.11 136.999 60.7863C136.919 61.3943 136.795 62.0044 136.614 62.6103L136.614 62.6119C136.434 63.2127 136.2 63.8224 135.893 64.4117C136.847 65.684 137.497 67.2334 137.497 69.0327C137.497 71.3501 136.664 73.4755 134.999 75.1463C132.863 77.3115 129.976 78.049 127.096 78.049C125.273 78.049 123.405 77.7536 121.746 76.9228C121.487 77.152 121.142 77.4131 120.714 77.6267L119.87 78.049H118.926C116.86 78.049 114.731 77.8246 112.982 76.9898L112.956 76.9775L112.931 76.9647C112.534 76.7686 112.165 76.5465 111.821 76.3018L112.245 77.7306H87.8448L87.9234 77.4608C86.6549 77.8879 85.3106 78.0491 84.003 78.0491C80.5927 78.0491 77.5746 76.7047 75.5482 73.8463L75.543 73.8389L75.5378 73.8315C74.8086 72.7929 74.2781 71.6535 73.9114 70.446C73.8561 70.6529 73.8109 70.8389 73.7748 71.0049C73.7289 71.2164 73.7016 71.3783 73.6863 71.4964C73.6707 71.617 73.6708 71.6673 73.6708 71.6604C73.6708 71.8762 73.7084 72.0307 73.7645 72.1623L76.1377 77.7306H69.4165H65.8225H57.0943L57.6205 76.8974C55.9922 77.7523 54.1508 78.0491 52.3765 78.0491C48.9663 78.0491 45.948 76.7047 43.9218 73.8462L43.9167 73.8389L43.9116 73.8316C42.658 72.0464 41.9916 69.9633 41.7351 67.7483C39.1129 69.2444 36.0935 69.9237 32.8349 69.9237C29.264 69.9237 25.9689 69.0193 23.1389 67.053C19.8691 64.7874 18 61.514 18 57.5048V56.9544L18.1486 56.4245C19.1399 52.8903 21.3843 50.2051 24.6662 48.5678C25.1007 48.3453 25.5457 48.1434 26 47.969Z" fill="#1F1F1F"/>
<path fill-rule="evenodd" clip-rule="evenodd" d="M28.2064 52.1506C27.9785 53.9747 27.8645 55.4305 27.8645 56.5179C27.8645 57.5878 27.996 58.5788 28.259 59.4909C28.522 60.4029 28.8989 61.1922 29.3898 61.8587C30.4417 63.2793 31.7742 63.9897 33.3871 63.9897C36.4728 63.9897 38.0156 62.2884 38.0156 58.8857C38.0156 56.1496 36.4289 53.2469 33.2556 50.1775L30.5206 47.5203C28.1187 45.2051 26.4795 43.3459 25.6029 41.9428C23.8672 39.1715 22.9993 36.4179 22.9993 33.6817C22.9993 31.4542 23.7182 29.5863 25.1558 28.0779C26.8915 26.2363 29.3898 25.3155 32.6508 25.3155C33.9306 25.3155 34.8949 25.3769 35.5436 25.4996C36.7533 25.7276 37.5598 25.8417 37.963 25.8417C38.9799 25.8417 39.7688 25.5259 40.3298 24.8945C40.5402 24.6665 40.7681 24.3683 41.0136 24C42.2934 24.7191 42.9334 27.3588 42.9334 31.919C42.9334 34.8306 42.6441 36.9791 42.0655 38.3647C41.8727 38.8383 41.6535 39.1365 41.4081 39.2592C41.1275 36.6108 40.2685 34.243 38.8308 32.1558C37.1478 29.7003 35.2017 28.4726 32.9926 28.4726C31.0992 28.4726 29.9333 29.3407 29.495 31.0771C29.3723 31.5682 29.3109 32.1821 29.3109 32.9188C29.3109 33.6379 29.5301 34.4622 29.9684 35.3918C30.4067 36.3214 30.9765 37.251 31.6777 38.1806C32.3966 39.0926 33.2206 40.0134 34.1498 40.943C36.9549 43.8195 38.8133 45.7663 39.725 46.7836C40.6542 47.8009 41.4782 48.8533 42.197 49.9407C43.7749 52.3787 44.5638 54.7377 44.5638 57.0178C44.5638 59.7715 43.4944 62.0516 41.3555 63.8581C39.1464 65.6998 36.3062 66.6206 32.8349 66.6206C29.9596 66.6206 27.4876 65.9015 25.4188 64.4633C23.1396 62.8847 22 60.7975 22 58.2017C22.6838 55.7637 24.174 53.9747 26.4707 52.8347C27.0843 52.519 27.6629 52.291 28.2064 52.1506ZM61.3088 50.9695C61.3088 50.1545 61.0643 49.584 60.5753 49.258C59.7739 50.9967 58.891 52.3143 57.9266 53.2108C56.9622 54.1073 56.0521 54.5555 55.1964 54.5555C54.3406 54.5555 53.6546 54.3925 53.1385 54.0665C51.7122 53.1429 50.8565 51.3159 50.5712 48.5857C54.035 48.5042 56.7313 47.7163 58.6601 46.2222C59.5973 45.5022 60.3037 44.6465 60.7791 43.6549C61.2681 42.6497 61.5126 41.5291 61.5126 40.293C61.5126 39.0434 61.0576 37.9431 60.1475 36.9923C58.9929 35.797 57.3901 35.1993 55.339 35.1993C52.3914 35.1993 50.0551 36.089 48.33 37.8684C46.5098 39.7429 45.5997 42.3237 45.5997 45.6109C45.5997 48.8709 46.2721 51.4585 47.6169 53.3738C48.9986 55.3231 50.9519 56.3871 53.4767 56.5659C53.6186 56.5698 53.7592 56.5769 53.8984 56.5874C54.0174 56.5911 54.1377 56.593 54.2591 56.593C56.7584 56.593 58.6193 55.9953 59.8418 54.8C60.3852 54.2703 60.7655 53.6998 60.9828 53.0885C61.2002 52.4773 61.3088 51.7709 61.3088 50.9695ZM56.8875 40.4153C56.8875 44.2865 54.7413 46.3648 50.449 46.65V46.0184C50.449 42.9214 50.8429 40.6326 51.6307 39.152C51.9975 38.4729 52.4254 37.9839 52.9144 37.685C53.4169 37.3862 53.9127 37.2368 54.4017 37.2368C54.8907 37.2368 55.2846 37.3183 55.5835 37.4813C56.4528 37.9839 56.8875 38.9619 56.8875 40.4153ZM77.7718 56.1855C78.3967 54.0394 78.7091 50.3515 78.7091 45.1219C78.7091 42.935 78.5936 41.4816 78.3627 40.7617C78.1318 40.0282 77.8397 39.4984 77.4866 39.1724C77.147 38.8328 76.6852 38.663 76.1011 38.663C75.5306 38.663 75.0076 38.7717 74.5322 38.989C74.0704 39.2064 73.6561 39.4916 73.2893 39.8448C72.5966 40.4968 72.0329 41.3661 71.5982 42.4528V46.3444C71.5982 50.1613 71.6729 52.5248 71.8223 53.4349C71.9989 54.6302 72.1823 55.5471 72.3725 56.1855H66.3618C66.6878 55.0445 66.9052 53.53 67.0138 51.6419C67.2583 46.9149 67.3806 43.4376 67.3806 41.2099C67.3806 38.9687 67.3738 37.4405 67.3602 36.6255C67.3466 35.797 67.3263 34.9752 67.2991 34.1602C67.2312 31.199 67.0953 29.3449 66.8916 28.5978C66.7014 27.8371 66.518 27.287 66.3415 26.9474C66.1785 26.5943 65.9951 26.2751 65.7913 25.9898L65.0986 25.0322H72.5355C72.1551 26.4041 71.931 27.6809 71.8631 28.8627C71.8087 30.0444 71.768 31.0088 71.7408 31.7559C71.7137 32.4894 71.6865 33.2637 71.6593 34.0787C71.6186 35.9803 71.5982 37.6579 71.5982 39.1113C72.6713 37.3047 74.0907 36.1094 75.8566 35.5253C76.4814 35.308 77.1809 35.1993 77.9552 35.1993C78.7294 35.1993 79.429 35.3691 80.0538 35.7087C80.6922 36.0347 81.222 36.5033 81.6431 37.1145C82.5124 38.3506 82.9471 40.0418 82.9471 42.1879V44.368C82.9471 48.5245 83.0014 51.1325 83.1101 52.192C83.2323 53.2379 83.3138 53.9307 83.3546 54.2703C83.4496 54.8679 83.5923 55.5064 83.7824 56.1855H77.7718ZM104.076 49.2173L104.137 45.3053C104.137 41.7465 103.723 39.2403 102.895 37.7869C102.406 36.9312 101.719 36.286 100.836 35.8513C99.967 35.4166 98.7988 35.1993 97.3318 35.1993C95.8648 35.1993 94.3638 35.437 92.8289 35.9124L91.2601 36.4014C90.7982 36.5508 90.3092 36.6255 89.7931 36.6255C89.5757 37.6579 89.4671 38.5883 89.4671 39.4169C89.4671 41.4544 90.0715 42.8331 91.2804 43.553C91.6743 41.9095 92.3331 40.4832 93.2568 39.2743C93.7186 38.6766 94.2348 38.1876 94.8053 37.8073C95.3758 37.427 95.9463 37.2368 96.5168 37.2368C97.1009 37.2368 97.5763 37.3387 97.943 37.5424C98.9618 38.1129 99.4712 40.0485 99.4712 43.3493V43.5734C96.3877 43.6277 93.8273 44.2865 91.7898 45.5498C90.7575 46.2018 89.9221 47.0236 89.2837 48.0152C88.6588 49.0067 88.3464 50.1681 88.3464 51.4993C88.3464 52.8304 88.7811 53.985 89.6504 54.963C90.642 56.0497 91.946 56.593 93.5624 56.593C96.4013 56.593 98.5883 55.6693 100.123 53.822L100.755 56.1855H106.664L105.706 55.4113C105.34 55.126 105.02 54.7185 104.749 54.1888C104.3 53.3059 104.076 51.6487 104.076 49.2173ZM93.3179 53.8628C92.9376 53.4009 92.7474 52.7489 92.7474 51.9068C92.7474 50.1138 93.4198 48.6332 94.7645 47.465C96.0006 46.3784 97.5695 45.7467 99.4712 45.5702V48.5857C99.4712 50.2157 98.9618 51.6351 97.943 52.844C97.5084 53.3738 97.0194 53.7949 96.476 54.1073C95.9327 54.4061 95.369 54.5555 94.7849 54.5555C94.2008 54.5555 93.7118 54.3246 93.3179 53.8628ZM110.209 56.1855C110.834 54.0394 111.146 50.3515 111.146 45.1219C111.146 41.4001 110.848 38.86 110.25 37.5017C110.005 36.9448 109.571 36.3131 108.946 35.6068H116.179C115.935 36.4625 115.738 37.6375 115.588 39.1317C116.865 37.5288 118.644 36.3946 120.926 35.729C121.904 35.4438 122.618 34.9956 123.066 34.3843C123.514 35.4574 123.738 36.381 123.738 37.1553C123.738 37.9295 123.697 38.6495 123.616 39.315C123.534 39.967 123.412 40.6055 123.249 41.2303C122.896 42.575 122.427 43.621 121.843 44.368C121.341 41.7193 120.56 40.1708 119.5 39.7225C118.278 39.1928 117.082 39.9127 115.914 41.8823C115.67 42.2898 115.466 42.7245 115.303 43.1863C115.289 43.4987 115.283 43.8179 115.283 44.1439V45.1219C115.283 47.1528 115.33 48.9512 115.424 50.517C114.61 50.5729 113.944 51.0133 113.446 51.4848C113.099 51.8133 112.798 52.253 112.534 52.7082C112.261 53.1774 111.98 53.7474 111.689 54.4051L110.902 56.0581C110.894 56.0738 110.886 56.0895 110.879 56.1051C110.866 56.1322 110.853 56.1591 110.84 56.1855H110.209ZM133.055 54.7292C132.657 52.6117 132.459 49.6945 132.459 45.9777C132.459 41.305 132.757 37.848 133.355 35.6068H126.122L126.794 36.544C126.998 36.8429 127.182 37.1689 127.345 37.522C127.997 38.9075 128.323 41.4408 128.323 45.1219C128.323 50.3515 128.01 54.0394 127.385 56.1855H131.817L133.055 54.7292ZM131.909 31.2669C132.302 30.9545 132.635 30.5742 132.907 30.1259C133.192 29.6777 133.409 29.1887 133.559 28.6589C133.708 28.1292 133.783 27.6674 133.783 27.2734C133.783 26.8659 133.722 26.4992 133.6 26.1732C133.206 25.0322 132.201 24.4617 130.584 24.4617C130 24.4617 129.504 24.5364 129.097 24.6858C127.956 25.1069 127.385 25.9423 127.385 27.1919C127.385 28.2243 127.664 29.2023 128.221 30.1259C128.492 30.5742 128.825 30.9545 129.219 31.2669C129.613 31.5658 130.061 31.7152 130.564 31.7152C131.066 31.7152 131.515 31.5658 131.909 31.2669ZM115.598 51.9736C115.375 52.791 115.264 53.773 115.264 54.9196C115.264 56.0556 115.285 56.7828 115.327 57.1013C115.38 57.4198 115.46 57.6746 115.566 57.8657C115.768 58.1842 116.161 58.3434 116.745 58.3434H121.012C121.012 58.938 120.869 59.3945 120.582 59.713C120.062 60.2863 119.425 60.5729 118.671 60.5729C118.3 60.5729 117.971 60.5198 117.684 60.4136C117.164 60.2013 116.761 60.0952 116.474 60.0952C116.187 60.0952 115.954 60.1535 115.773 60.2703C115.593 60.3765 115.449 60.5357 115.343 60.7481C115.152 61.1303 115.057 61.9637 115.057 63.2482C115.057 64.5328 115.094 65.8493 115.168 67.1976C115.253 68.5459 115.455 69.6765 115.773 70.5895C116.092 71.4919 116.575 72.1714 117.222 72.6279C117.87 73.0844 118.762 73.3127 119.898 73.3127C119.898 73.6418 119.675 74.0346 119.229 74.4911C119.112 74.6185 119.011 74.7034 118.926 74.7459C117.047 74.7459 115.64 74.5229 114.706 74.077C113.634 73.5462 112.87 72.6014 112.413 71.2424C111.957 69.8623 111.728 67.8186 111.728 65.1114C111.728 62.744 111.665 61.3479 111.537 60.9232C111.41 60.488 111.293 60.2013 111.187 60.0633C111.059 59.9041 110.752 59.7077 110.263 59.4741C110.921 58.9751 111.574 58.0462 112.222 56.6873L113.018 55.0152C113.581 53.7412 114.059 52.9184 114.451 52.5468C114.855 52.1647 115.237 51.9736 115.598 51.9736ZM57.8865 70.3508C57.8865 69.7138 57.6954 69.2679 57.3132 69.0131C56.6868 70.372 55.9967 71.4018 55.243 72.1025C54.4892 72.8032 53.7779 73.1535 53.1091 73.1535C52.4402 73.1535 51.9041 73.0261 51.5007 72.7713C50.3859 72.0494 49.7171 70.6215 49.4942 68.4876C52.2014 68.4239 54.3087 67.8081 55.8163 66.6403C56.5488 66.0776 57.1009 65.4088 57.4724 64.6338C57.8546 63.8482 58.0457 62.9723 58.0457 62.0062C58.0457 61.0295 57.6901 60.1696 56.9788 59.4264C56.0764 58.4922 54.8236 58.025 53.2205 58.025C50.9168 58.025 49.0907 58.7204 47.7424 60.1112C46.3198 61.5763 45.6085 63.5934 45.6085 66.1626C45.6085 68.7105 46.134 70.733 47.1851 72.2299C48.3741 73.9073 50.1046 74.746 52.3765 74.746C54.33 74.746 55.7844 74.2789 56.7399 73.3446C57.1646 72.9306 57.4618 72.4847 57.6317 72.0069C57.8015 71.5292 57.8865 70.9771 57.8865 70.3508ZM54.4308 62.1018C54.4308 65.1275 52.7534 66.7518 49.3986 66.9747V66.4811C49.3986 64.0605 49.7065 62.2716 50.3222 61.1144C50.6089 60.5836 50.9433 60.2014 51.3255 59.9679C51.7183 59.7343 52.1058 59.6175 52.488 59.6175C52.8702 59.6175 53.1781 59.6812 53.4116 59.8086C54.0911 60.2014 54.4308 60.9658 54.4308 62.1018ZM64.8933 59.8882C64.8933 59.3256 64.9889 58.8107 65.18 58.3435H59.3038C59.8771 59.0018 60.6308 60.3554 61.5651 62.4043C61.9791 63.3174 62.3826 64.2781 62.7754 65.2867C63.1788 66.2847 63.5344 67.2348 63.8423 68.1372C64.1502 69.0396 64.3997 69.8465 64.5908 70.5578C64.7819 71.2691 64.8774 71.8158 64.8774 72.198C64.8774 72.5696 64.8509 72.9359 64.7978 73.2968C64.7553 73.6472 64.6067 74.0241 64.3519 74.4275H70.0848C69.8088 73.7799 69.6708 73.0898 69.6708 72.3573C69.6708 70.7436 70.7112 67.5639 72.792 62.8184C72.9619 62.4574 73.0946 62.1814 73.1901 61.9903L73.7793 60.78C74.0447 60.2386 74.5703 59.4264 75.3559 58.3435H69.5593C69.8672 58.8 70.0742 59.1716 70.1803 59.4583C70.2653 59.6494 70.329 59.867 70.3714 60.1112C70.4245 60.3447 70.4511 60.7163 70.4511 61.2259C70.4511 61.7355 70.1379 63.0572 69.5115 65.1912L68.9382 67.134C68.7365 67.7922 68.3225 69.0609 67.6961 70.94L67.091 68.9812L65.3711 62.8662C65.2225 62.2929 65.1057 61.7939 65.0207 61.3692C64.9358 60.934 64.8933 60.4403 64.8933 59.8882ZM88.9397 69.0131C89.3218 69.2679 89.5129 69.7138 89.5129 70.3508C89.5129 70.9771 89.428 71.5292 89.2582 72.0069C89.0883 72.4847 88.791 72.9306 88.3664 73.3446C87.4109 74.2789 85.9564 74.746 84.003 74.746C81.7311 74.746 80.0006 73.9073 78.8115 72.2299C77.7605 70.733 77.235 68.7105 77.235 66.1626C77.235 63.5934 77.9463 61.5763 79.3689 60.1112C80.7172 58.7204 82.5432 58.025 84.847 58.025C86.4501 58.025 87.7028 58.4922 88.6052 59.4264C89.3165 60.1696 89.6722 61.0295 89.6722 62.0062C89.6722 62.9723 89.4811 63.8482 89.0989 64.6338C88.7273 65.4088 88.1753 66.0776 87.4427 66.6403C85.9352 67.8081 83.8278 68.4239 81.1206 68.4876C81.3436 70.6215 82.0124 72.0494 83.1271 72.7713C83.5306 73.0261 84.0667 73.1535 84.7355 73.1535C85.4044 73.1535 86.1157 72.8032 86.8694 72.1025C87.6232 71.4018 88.3133 70.372 88.9397 69.0131ZM81.0251 66.9747C84.3799 66.7518 86.0573 65.1275 86.0573 62.1018C86.0573 60.9658 85.7176 60.2014 85.0381 59.8086C84.8045 59.6812 84.4967 59.6175 84.1145 59.6175C83.7323 59.6175 83.3448 59.7343 82.952 59.9679C82.5698 60.2014 82.2354 60.5836 81.9487 61.1144C81.333 62.2716 81.0251 64.0605 81.0251 66.4811V66.9747ZM93.9082 65.7804C93.9082 69.8677 93.664 72.7501 93.1756 74.4275H97.746C97.2577 72.7501 97.0135 69.8677 97.0135 65.7804V64.8727C97.0135 64.5648 97.0241 64.2675 97.0453 63.9809C97.3638 63.0785 97.8256 62.3353 98.4308 61.7514C99.1315 61.072 99.9118 60.7322 100.772 60.7322C101.239 60.7322 101.616 60.8649 101.903 61.1304C102.189 61.3852 102.434 61.8151 102.635 62.4203C102.848 63.0254 102.954 64.1454 102.954 65.7804C102.954 69.8677 102.71 72.7501 102.221 74.4275H106.887C106.739 73.9285 106.627 73.4295 106.553 72.9306C106.51 72.6652 106.473 72.3626 106.441 72.0229C106.409 71.6831 106.367 71.1895 106.314 70.5419C106.261 69.8943 106.234 68.1107 106.234 65.1912V63.4872C106.234 61.8204 105.884 60.4987 105.183 59.522C104.461 58.524 103.458 58.025 102.173 58.025C100.188 58.025 98.5529 59.0124 97.2683 60.987L97.3957 59.8405C97.4488 59.3733 97.5549 58.8744 97.7142 58.3435H92.1883L92.7138 59.0761C92.8731 59.3096 93.0164 59.5591 93.1438 59.8245C93.6534 60.8862 93.9082 62.8715 93.9082 65.7804ZM133.131 59.3308C133.131 58.6832 132.988 58.0409 132.701 57.4039C132.521 57.6162 132.298 57.8073 132.032 57.9772C131.767 58.1364 131.294 58.216 130.615 58.216L127.812 58.0249C126.305 58.0249 125.047 58.3965 124.038 59.1397C122.976 59.9253 122.446 60.9498 122.446 62.2131C122.446 63.4128 122.902 64.5222 123.815 65.5414C124.272 66.051 125.11 66.6667 126.331 67.3887L127.764 68.2008C128.232 68.4662 128.646 68.7423 129.007 69.0289C129.378 69.3156 129.675 69.6234 129.898 69.9525C130.121 70.2817 130.233 70.6904 130.233 71.1787C130.233 71.6671 130.036 72.1024 129.644 72.4846C129.251 72.8668 128.635 73.0579 127.796 73.0579C126.958 73.0579 126.204 72.6544 125.535 71.8476C125.238 71.4972 125.01 71.1204 124.85 70.7169C124.691 70.3029 124.611 69.9579 124.611 69.6818C124.611 69.4058 124.633 69.1988 124.675 69.0608C124.102 69.1669 123.513 69.5597 122.907 70.2392C122.281 70.9399 121.925 71.6883 121.841 72.4846C121.968 72.7606 122.18 73.0366 122.477 73.3127C123.507 74.2681 125.047 74.7459 127.096 74.7459C129.346 74.7459 131.034 74.1726 132.16 73.026C133.052 72.1342 133.497 71.0354 133.497 69.7296C133.497 68.7317 133.046 67.7815 132.144 66.8791C131.687 66.4226 130.843 65.8493 129.612 65.1592L128.179 64.347C127.711 64.0816 127.292 63.8109 126.92 63.5349C126.56 63.2482 126.268 62.9457 126.045 62.6272C125.822 62.2981 125.71 61.9106 125.71 61.4647C125.71 61.0188 125.938 60.6207 126.395 60.2703C126.597 60.1111 126.836 59.989 127.112 59.9041C127.388 59.8191 127.743 59.7767 128.179 59.7767C128.614 59.7767 129.023 59.8616 129.405 60.0315C129.798 60.2013 130.185 60.5304 130.567 61.0188C130.96 61.5071 131.321 62.5741 131.65 64.2197C132.138 63.7419 132.515 63.0571 132.781 62.1654C132.898 61.7726 132.982 61.3638 133.036 60.9392C133.099 60.5145 133.131 59.9784 133.131 59.3308Z" fill="white"/>
<path d="M32.7527 16.7138L31.8374 8.18593C31.7165 7.05929 32.6037 6.07208 33.7325 6.17146C34.4475 6.23441 35.1596 6.32751 35.8665 6.45043C37.0174 6.65054 37.6117 7.8934 37.1389 8.96162L33.6461 16.8531C33.5637 17.0393 33.3681 17.1476 33.1659 17.1245C32.9493 17.0997 32.776 16.9305 32.7527 16.7138Z" fill="#E84779"/>
<path d="M25.3465 18.11L20.2327 11.1039C19.5642 10.188 19.8398 8.88832 20.8686 8.41149C21.4702 8.13268 22.0792 7.87922 22.6941 7.65088C23.7912 7.24356 24.9309 8.02297 25.0558 9.18652L25.9869 17.8624C26.0034 18.0162 25.9167 18.162 25.7749 18.2237C25.6229 18.2899 25.4442 18.2439 25.3465 18.11Z" fill="#A856A8"/>
<path d="M17.0866 29.5626L8.32842 30.5025C7.18406 30.6254 6.18884 29.709 6.3189 28.5655C6.38341 27.9982 6.46696 27.4333 6.56937 26.8718C6.77791 25.7283 8.01548 25.1426 9.07834 25.613L17.1458 29.1836C17.2269 29.2195 17.2737 29.3053 17.2612 29.3931C17.2484 29.4828 17.1767 29.5529 17.0866 29.5626Z" fill="#62D18A"/>
<path d="M17.9711 36.7201L10.8419 41.9238C9.90585 42.607 8.57607 42.3014 8.1267 41.2332C7.90458 40.7052 7.70152 40.172 7.51739 39.6348C7.14379 38.5447 7.92211 37.4356 9.06786 37.3126L17.8364 36.3715C17.9238 36.3621 18.0062 36.4135 18.0373 36.4957C18.0679 36.577 18.0412 36.6689 17.9711 36.7201Z" fill="#FAC666"/>
<path d="M19.7129 22.8291L11.705 19.2848C10.6617 18.823 10.2535 17.5482 10.9198 16.6221C11.2724 16.1318 11.6442 15.6524 12.0348 15.1848C12.7831 14.289 14.1555 14.3965 14.8437 15.3394L20.0265 22.4401C20.0935 22.5319 20.0913 22.6571 20.0227 22.7478C19.9505 22.8433 19.8224 22.8775 19.7129 22.8291Z" fill="#2F7CEA"/>
</svg>
