<svg width="140" height="154" viewBox="0 0 140 154" fill="none" xmlns="http://www.w3.org/2000/svg">
<rect width="139.01" height="153.177" transform="translate(0.5)" fill="#FFD600"/>
<rect x="7.80432" y="7.30432" width="124.401" height="114.586" fill="#01584E"/>
<path d="M122.214 142.849V140.469H128.33C128.735 140.469 128.938 140.283 128.938 139.913C128.938 139.554 128.735 139.374 128.33 139.374H124.924C124.484 139.374 124.09 139.31 123.743 139.183C123.395 139.044 123.1 138.859 122.857 138.627C122.613 138.395 122.428 138.123 122.301 137.81C122.173 137.486 122.11 137.139 122.11 136.768C122.11 136.374 122.179 136.021 122.318 135.708C122.457 135.384 122.654 135.111 122.909 134.891C123.164 134.66 123.459 134.486 123.795 134.37C124.131 134.243 124.502 134.179 124.907 134.179H131.284V136.559H125.446C125.052 136.559 124.855 136.739 124.855 137.098C124.855 137.457 125.052 137.637 125.446 137.637H128.921C129.813 137.637 130.502 137.88 130.988 138.366C131.475 138.853 131.718 139.473 131.718 140.226C131.718 140.631 131.649 140.996 131.51 141.32C131.371 141.633 131.174 141.905 130.919 142.137C130.676 142.368 130.38 142.548 130.033 142.675C129.697 142.791 129.326 142.849 128.921 142.849H122.214Z" fill="#01584E"/>
<path d="M116.028 142.849C115.356 142.849 114.736 142.745 114.169 142.536C113.601 142.328 113.109 142.033 112.692 141.65C112.275 141.268 111.951 140.81 111.719 140.278C111.487 139.745 111.371 139.154 111.371 138.505C111.371 137.868 111.487 137.283 111.719 136.75C111.951 136.218 112.275 135.76 112.692 135.378C113.109 134.996 113.601 134.7 114.169 134.492C114.736 134.283 115.356 134.179 116.028 134.179H118.235C118.733 134.179 119.167 134.248 119.538 134.387C119.908 134.526 120.215 134.718 120.459 134.961C120.713 135.204 120.899 135.499 121.015 135.847C121.142 136.183 121.206 136.554 121.206 136.959C121.206 137.723 120.986 138.297 120.545 138.679C120.105 139.061 119.381 139.252 118.374 139.252H115.281V137.671H117.765C118.217 137.671 118.443 137.469 118.443 137.063C118.443 136.635 118.223 136.42 117.783 136.42H116.01C115.489 136.42 115.066 136.6 114.742 136.959C114.418 137.318 114.256 137.828 114.256 138.488C114.256 139.148 114.418 139.646 114.742 139.982C115.066 140.307 115.489 140.469 116.01 140.469H120.737V142.849H116.028Z" fill="#01584E"/>
<path d="M100.97 142.849V140.469H107.086C107.491 140.469 107.694 140.283 107.694 139.913C107.694 139.554 107.491 139.374 107.086 139.374H103.681C103.24 139.374 102.846 139.31 102.499 139.183C102.151 139.044 101.856 138.859 101.613 138.627C101.37 138.395 101.184 138.123 101.057 137.81C100.929 137.486 100.866 137.139 100.866 136.768C100.866 136.374 100.935 136.021 101.074 135.708C101.213 135.384 101.41 135.111 101.665 134.891C101.92 134.66 102.215 134.486 102.551 134.37C102.887 134.243 103.258 134.179 103.663 134.179H110.04V136.559H104.202C103.808 136.559 103.611 136.739 103.611 137.098C103.611 137.457 103.808 137.637 104.202 137.637H107.677C108.569 137.637 109.258 137.88 109.744 138.366C110.231 138.853 110.474 139.473 110.474 140.226C110.474 140.631 110.405 140.996 110.266 141.32C110.127 141.633 109.93 141.905 109.675 142.137C109.432 142.368 109.136 142.548 108.789 142.675C108.453 142.791 108.082 142.849 107.677 142.849H100.97Z" fill="#01584E"/>
<path d="M96.7022 142.849V134.179H99.6039V142.849H96.7022ZM97.9706 133.328C97.5883 133.328 97.2698 133.218 97.015 132.997C96.7717 132.766 96.6501 132.453 96.6501 132.059C96.6501 131.689 96.7717 131.393 97.015 131.173C97.2698 130.941 97.5883 130.826 97.9706 130.826H98.3702C98.7525 130.826 99.0652 130.941 99.3085 131.173C99.5517 131.393 99.6734 131.689 99.6734 132.059C99.6734 132.453 99.5517 132.766 99.3085 132.997C99.0652 133.218 98.7525 133.328 98.3702 133.328H97.9706Z" fill="#01584E"/>
<path d="M88.827 142.849V138.314C88.827 136.994 89.1919 135.974 89.9217 135.256C90.6514 134.538 91.7287 134.179 93.1534 134.179H95.586V136.82H93.2229C92.2268 136.82 91.7287 137.312 91.7287 138.297V142.849H88.827Z" fill="#01584E"/>
<path d="M77.0344 145.872V138.314C77.0344 136.982 77.3935 135.963 78.1116 135.256C78.8414 134.538 79.9302 134.179 81.3782 134.179H82.9072C83.579 134.179 84.1987 134.283 84.7663 134.492C85.3455 134.689 85.8436 134.978 86.2606 135.36C86.6776 135.743 87.0019 136.218 87.2336 136.785C87.4652 137.341 87.5811 137.978 87.5811 138.696C87.5811 139.994 87.1872 141.025 86.3996 141.789C85.6119 142.554 84.442 142.936 82.8898 142.936C82.5191 142.936 82.1484 142.913 81.7778 142.867C81.4187 142.832 81.0886 142.774 80.7874 142.693V140.069C81.0886 140.15 81.3955 140.214 81.7083 140.26C82.021 140.295 82.3106 140.312 82.577 140.312C83.2489 140.312 83.7643 140.191 84.1234 139.948C84.4941 139.693 84.6794 139.247 84.6794 138.61C84.6794 137.984 84.5115 137.532 84.1755 137.254C83.8512 136.976 83.4284 136.837 82.9072 136.837H81.4477C80.4399 136.837 79.936 137.33 79.936 138.314V145.872H77.0344Z" fill="#01584E"/>
<path d="M69.4667 142.849V138.314C69.4667 136.994 69.8316 135.974 70.5613 135.256C71.2911 134.538 72.3683 134.179 73.7931 134.179H76.2256V136.82H73.8626C72.8664 136.82 72.3683 137.312 72.3683 138.297V142.849H69.4667Z" fill="#01584E"/>
<path d="M63.0201 142.849C62.3482 142.849 61.7285 142.745 61.1609 142.536C60.5933 142.328 60.101 142.033 59.684 141.65C59.267 141.268 58.9427 140.81 58.711 140.278C58.4794 139.745 58.3635 139.154 58.3635 138.505C58.3635 137.868 58.4794 137.283 58.711 136.75C58.9427 136.218 59.267 135.76 59.684 135.378C60.101 134.996 60.5933 134.7 61.1609 134.492C61.7285 134.283 62.3482 134.179 63.0201 134.179H65.2267C65.7248 134.179 66.1592 134.248 66.5298 134.387C66.9005 134.526 67.2075 134.718 67.4507 134.961C67.7056 135.204 67.8909 135.499 68.0067 135.847C68.1342 136.183 68.1979 136.554 68.1979 136.959C68.1979 137.723 67.9778 138.297 67.5376 138.679C67.0974 139.061 66.3735 139.252 65.3657 139.252H62.2729V137.671H64.7576C65.2093 137.671 65.4352 137.469 65.4352 137.063C65.4352 136.635 65.2151 136.42 64.775 136.42H63.0027C62.4814 136.42 62.0586 136.6 61.7343 136.959C61.41 137.318 61.2478 137.828 61.2478 138.488C61.2478 139.148 61.41 139.646 61.7343 139.982C62.0586 140.307 62.4814 140.469 63.0027 140.469H67.7287V142.849H63.0201Z" fill="#01584E"/>
<path d="M54.2696 142.849C53.2155 142.849 52.4221 142.577 51.8892 142.033C51.368 141.477 51.1074 140.689 51.1074 139.669V131.712H53.9916V134.179H57.4667V136.577H53.9916V139.444C53.9916 140.127 54.3333 140.469 55.0168 140.469H57.3798V142.849H54.2696Z" fill="#01584E"/>
<path d="M46.7169 142.849V138.297C46.7169 137.312 46.213 136.82 45.2053 136.82H42.3036V142.849H39.3846V134.179H45.2748C46.7111 134.179 47.7942 134.538 48.5239 135.256C49.2537 135.974 49.6185 136.994 49.6185 138.314V142.849H46.7169Z" fill="#01584E"/>
<path d="M30.9131 138.384V135.969H37.5852V138.384H30.9131ZM26.8647 142.849V131.555H37.7068V134.457H29.9053V139.93H37.7242V142.849H26.8647Z" fill="#01584E"/>
<path d="M8.48196 142.849V139.93H16.9263C17.1464 139.93 17.3259 139.866 17.4649 139.739C17.6039 139.6 17.6734 139.409 17.6734 139.166C17.6734 138.922 17.6039 138.731 17.4649 138.592C17.3259 138.453 17.1464 138.384 16.9263 138.384H11.957C11.4357 138.384 10.9492 138.303 10.4975 138.14C10.0573 137.967 9.67505 137.735 9.35072 137.445C9.03796 137.144 8.78892 136.785 8.60358 136.368C8.42983 135.951 8.34296 135.488 8.34296 134.978C8.34296 134.469 8.42983 134.005 8.60358 133.588C8.78892 133.16 9.03796 132.795 9.35072 132.494C9.67505 132.192 10.0573 131.961 10.4975 131.799C10.9492 131.636 11.4357 131.555 11.957 131.555H20.5403V134.457H12.096C11.8759 134.457 11.6964 134.521 11.5574 134.648C11.4299 134.775 11.3662 134.961 11.3662 135.204C11.3662 135.436 11.4299 135.621 11.5574 135.76C11.6964 135.899 11.8759 135.969 12.096 135.969H17.0653C17.5981 135.969 18.0846 136.055 18.5248 136.229C18.965 136.391 19.3472 136.623 19.6716 136.924C19.9959 137.225 20.2449 137.59 20.4187 138.019C20.604 138.436 20.6967 138.893 20.6967 139.391C20.6967 139.913 20.604 140.388 20.4187 140.816C20.2449 141.233 19.9959 141.598 19.6716 141.911C19.3472 142.212 18.965 142.444 18.5248 142.606C18.0846 142.768 17.5981 142.849 17.0653 142.849H8.48196Z" fill="#01584E"/>
<path fill-rule="evenodd" clip-rule="evenodd" d="M65.8041 72.4822C68.0485 70.8968 71.0999 70.6589 73.6358 72.123C77.1118 74.1298 78.3028 78.5746 76.2959 82.0506C74.289 85.5266 69.8443 86.7176 66.3683 84.7107C63.8324 83.2466 62.5126 80.4849 62.7636 77.7484L28.4908 57.961V86.5577L69.7454 110.376L111 86.5577V74.3859L74.0385 53.0461C71.788 54.6757 68.6998 54.9337 66.1379 53.4546C62.6619 51.4477 61.471 47.003 63.4778 43.527C65.4847 40.051 69.9295 38.86 73.4055 40.8669C75.9671 42.3458 77.2877 45.1487 77.0021 47.9122L111 67.541V38.921L69.7454 15.1027L28.4908 38.921V50.9394L65.8041 72.4822Z" fill="url(#paint0_linear_140_155)"/>
<defs>
<linearGradient id="paint0_linear_140_155" x1="69.7454" y1="15.1027" x2="69.7454" y2="110.376" gradientUnits="userSpaceOnUse">
<stop stop-color="#66C56B"/>
<stop offset="1" stop-color="#FFD600"/>
</linearGradient>
</defs>
</svg>
