<svg width="112" height="106" viewBox="0 0 112 106" fill="none" xmlns="http://www.w3.org/2000/svg">
<g clip-path="url(#clip0_36_1231)">
<path d="M51.0711 20.8059L49.5505 6.63711C49.2266 3.61938 51.6072 0.968592 54.6189 1.34467C54.7729 1.36391 54.9269 1.3839 55.0807 1.40464C58.1816 1.82273 59.7765 5.15806 58.5101 8.01931L52.7359 21.0654C52.5824 21.4123 52.2179 21.6141 51.841 21.5711C51.4375 21.525 51.1145 21.2096 51.0711 20.8059Z" fill="#E84779"/>
<path d="M37.2704 23.4075L28.7636 11.7528C26.9729 9.29957 27.7116 5.81015 30.5125 4.63547L30.6356 4.58405C33.5296 3.37997 36.5883 5.47144 36.9227 8.58803L38.4637 22.9461C38.4945 23.2327 38.333 23.5042 38.0687 23.6193C37.7855 23.7426 37.4525 23.657 37.2704 23.4075Z" fill="#A856A8"/>
<path d="M21.8789 44.7481L7.13352 46.3307C4.16811 46.6489 1.58416 44.27 2.01977 41.3196C2.45968 38.34 5.67215 36.8201 8.42635 38.0391L21.9891 44.042C22.1402 44.1089 22.2275 44.2687 22.2042 44.4323C22.1803 44.5995 22.0468 44.7301 21.8789 44.7481Z" fill="#62D18A"/>
<path d="M23.5272 58.0851L11.5359 66.8376C9.10995 68.6083 5.63928 67.7758 4.57244 64.9682C3.51165 62.1765 5.54573 59.3384 8.51516 59.0197L23.2762 57.4355C23.4391 57.418 23.5927 57.5137 23.6506 57.667C23.7077 57.8183 23.6579 57.9897 23.5272 58.0851Z" fill="#FAC666"/>
<path d="M26.773 32.201L13.3741 26.2707C10.6206 25.052 9.51601 21.7165 11.3581 19.3345C13.2427 16.8973 16.9001 17.1495 18.7165 19.6379L27.3572 31.4761C27.4822 31.6473 27.4781 31.8805 27.3502 32.0496C27.2157 32.2275 26.9769 32.2913 26.773 32.201Z" fill="#2F7CEA"/>
<path d="M48.282 80.1352C48.282 78.8023 48.4211 77.0178 48.6994 74.7818C48.0358 74.9538 47.3295 75.2333 46.5804 75.6203C43.7764 77.0178 41.9571 79.2108 41.1223 82.1992C41.1223 85.3812 42.5136 87.9396 45.2961 89.8746C47.8218 91.6376 50.8398 92.5191 54.35 92.5191C58.588 92.5191 62.0555 91.3904 64.7524 89.1329C67.3637 86.9184 68.6693 84.1234 68.6693 80.748C68.6693 77.953 67.7062 75.0613 65.7798 72.0728C64.9022 70.7399 63.8962 69.4499 62.7618 68.2029C61.6488 66.9559 59.38 64.5694 55.9553 61.0435C54.8209 59.904 53.8149 58.7753 52.9374 57.6573C52.0812 56.5178 51.3856 55.3783 50.8505 54.2388C50.3154 53.0993 50.0478 52.0888 50.0478 51.2073C50.0478 50.3044 50.1227 49.5519 50.2726 48.9499C50.8077 46.8214 52.231 45.7572 54.5427 45.7572C57.2396 45.7572 59.6154 47.2621 61.6702 50.2721C63.4253 52.8306 64.4741 55.733 64.8166 58.9795C65.1163 58.829 65.3838 58.4635 65.6193 57.883C66.3256 56.1845 66.6112 52.94 66.6112 50.6708C66.6112 48.4016 59.1144 41.8872 54.1253 41.8872C50.1441 41.8872 47.094 43.0159 44.975 45.2734C43.2199 47.1224 42.3423 49.4121 42.3423 52.1426C42.3423 55.4965 43.4018 58.872 45.5208 62.269C46.5911 63.9889 48.5923 66.2679 51.5247 69.1059L54.8637 72.3631C58.7379 76.1255 60.6749 79.6837 60.6749 83.0377C60.6749 87.2086 58.7914 89.2941 55.0243 89.2941C53.0551 89.2941 51.4284 88.4234 50.1441 86.6819C49.5448 85.8649 49.0846 84.8974 48.7636 83.7794C48.4425 82.6615 48.282 81.4467 48.282 80.1352Z" fill="url(#paint0_linear_36_1231)"/>
<path fill-rule="evenodd" clip-rule="evenodd" d="M72.1613 78.2637C73.6715 80.6982 75.5759 82.4348 77.8747 83.4733L81.7164 79.6316C79.2495 77.8035 77.7692 74.1901 77.2757 68.7913C83.2718 68.6301 87.9394 67.0715 91.2785 64.1156C92.9009 62.6914 94.1237 60.9985 94.9467 59.0368C95.7932 57.0483 96.2165 54.8314 96.2165 52.386C96.2165 49.9138 95.4287 47.7372 93.8533 45.8562C91.8546 43.4914 89.0799 42.3091 85.5292 42.3091C80.4266 42.3091 76.3821 44.0692 73.3958 47.5894C70.2449 51.2977 68.6694 56.4034 68.6694 62.9064C68.6694 69.3556 69.8334 74.4747 72.1613 78.2637ZM77.064 64.9621C84.4946 64.3978 88.2098 60.2864 88.2098 52.6279C88.2098 49.7526 87.4574 47.8178 85.9525 46.8236C85.4351 46.5011 84.7532 46.3399 83.9067 46.3399C83.0602 46.3399 82.2019 46.6355 81.3319 47.2266C80.4854 47.8178 79.7447 48.7852 79.1098 50.1288C77.746 53.0578 77.064 57.5857 77.064 63.7125V64.9621ZM88.0368 85.1072L93.4723 82.4686H98.9606C98.7495 83.4537 96.2692 85.3605 88.0368 85.1072Z" fill="url(#paint1_linear_36_1231)"/>
<path d="M68.9804 99.831L99.8839 68.9275C108.485 60.3268 108.485 46.3822 99.8839 37.7815C91.2832 29.1808 77.3386 29.1808 68.7379 37.7815C60.1372 29.1808 46.1926 29.1808 37.5919 37.7815C28.9912 46.3822 28.9912 60.3268 37.5919 68.9275L68.4954 99.831" stroke="url(#paint2_linear_36_1231)" stroke-width="10.5544" stroke-linecap="round"/>
<path d="M99.8839 37.7815C108.485 46.3822 108.485 60.3268 99.8839 68.9275L68.9804 99.831M68.4954 99.831L37.5919 68.9275C32.222 63.5576 30.2049 56.1047 31.5403 49.1698" stroke="url(#paint3_linear_36_1231)" stroke-width="10.5544" stroke-linecap="round"/>
<path d="M99.8839 37.7815C108.485 46.3822 108.485 60.3268 99.8839 68.9275" stroke="url(#paint4_linear_36_1231)" stroke-width="10.5544" stroke-linecap="round"/>
<path d="M68.9804 99.8308L99.3771 69.4341" stroke="url(#paint5_linear_36_1231)" stroke-width="10.5544" stroke-linecap="round"/>
<path fill-rule="evenodd" clip-rule="evenodd" d="M50.1441 86.6818C50.7434 87.4988 52.1517 89.857 53.7105 92.5091C50.4718 92.4077 47.6671 91.5295 45.2961 89.8745C42.5136 87.9396 41.1223 85.3811 41.1223 82.1991C41.2865 81.6113 41.4888 81.0542 41.7292 80.5279L41.7292 80.5279C42.711 78.3787 44.328 76.7428 46.5804 75.6202C47.3295 75.2332 48.0358 74.9537 48.6994 74.7817C48.4211 77.0177 48.282 78.8022 48.282 80.1352C48.282 81.4467 48.4425 82.6614 48.7636 83.7794C49.0846 84.8974 49.5448 85.8648 50.1441 86.6818Z" fill="url(#paint6_linear_36_1231)"/>
</g>
<defs>
<linearGradient id="paint0_linear_36_1231" x1="80.1737" y1="52.4416" x2="56.5845" y2="90.5431" gradientUnits="userSpaceOnUse">
<stop offset="0.6865" stop-color="white"/>
<stop offset="0.958402" stop-color="#0A0A0A"/>
</linearGradient>
<linearGradient id="paint1_linear_36_1231" x1="86.0314" y1="70.0144" x2="98.9606" y2="84.1046" gradientUnits="userSpaceOnUse">
<stop offset="0.0220942" stop-color="white"/>
<stop offset="0.510417"/>
<stop offset="1" stop-color="white"/>
</linearGradient>
<linearGradient id="paint2_linear_36_1231" x1="36.1618" y1="43.101" x2="96.5858" y2="35.5546" gradientUnits="userSpaceOnUse">
<stop stop-color="#62D18A"/>
<stop offset="0.336418" stop-color="#2F7CEA"/>
<stop offset="1" stop-color="#A856A8"/>
</linearGradient>
<linearGradient id="paint3_linear_36_1231" x1="32.8899" y1="59.4603" x2="69.8304" y2="100.886" gradientUnits="userSpaceOnUse">
<stop stop-color="#62D18A"/>
<stop offset="0.237992" stop-color="#A4CC7A"/>
<stop offset="0.41219" stop-color="#88A64F"/>
<stop offset="0.542015" stop-color="#C2CA73"/>
<stop offset="0.81321" stop-color="#FAC666"/>
<stop offset="1" stop-color="#FAC666"/>
</linearGradient>
<linearGradient id="paint4_linear_36_1231" x1="107.67" y1="45.568" x2="101.652" y2="68.9065" gradientUnits="userSpaceOnUse">
<stop stop-color="#A856A8"/>
<stop offset="1" stop-color="#E84779"/>
</linearGradient>
<linearGradient id="paint5_linear_36_1231" x1="5.25194e+12" y1="5.25194e+12" x2="5.25194e+12" y2="5.25194e+12" gradientUnits="userSpaceOnUse">
<stop stop-color="#E84779"/>
<stop offset="1" stop-color="#FAC666"/>
</linearGradient>
<linearGradient id="paint6_linear_36_1231" x1="41.1223" y1="85.0547" x2="56.399" y2="87.9523" gradientUnits="userSpaceOnUse">
<stop offset="0.56984" stop-color="white"/>
<stop offset="1"/>
</linearGradient>
<clipPath id="clip0_36_1231">
<rect width="112" height="106" fill="white"/>
</clipPath>
</defs>
</svg>
