<svg width="25" height="25" viewBox="0 0 25 25" fill="none" xmlns="http://www.w3.org/2000/svg">
<path d="M20.1641 4.31934H4.41406C3.7181 4.32008 3.05085 4.59688 2.55873 5.089C2.06661 5.58112 1.78981 6.24837 1.78906 6.94434V18.1943C1.78981 18.8903 2.06661 19.5575 2.55873 20.0497C3.05085 20.5418 3.7181 20.8186 4.41406 20.8193H20.1641C20.86 20.8186 21.5273 20.5418 22.0194 20.0497C22.5115 19.5575 22.7883 18.8903 22.7891 18.1943V6.94434C22.7883 6.24837 22.5115 5.58112 22.0194 5.089C21.5273 4.59688 20.86 4.32008 20.1641 4.31934ZM19.4994 8.66137L12.7494 13.9114C12.6177 14.0137 12.4558 14.0692 12.2891 14.0692C12.1223 14.0692 11.9604 14.0137 11.8287 13.9114L5.07875 8.66137C4.99944 8.60148 4.93283 8.52642 4.88278 8.44057C4.83273 8.35471 4.80025 8.25976 4.78721 8.16124C4.77417 8.06272 4.78085 7.96259 4.80684 7.86667C4.83284 7.77075 4.87764 7.68095 4.93864 7.6025C4.99964 7.52404 5.07562 7.45849 5.16218 7.40966C5.24873 7.36082 5.34413 7.32968 5.44282 7.31803C5.54152 7.30638 5.64154 7.31446 5.73708 7.3418C5.83263 7.36915 5.92179 7.41521 5.99937 7.4773L12.2891 12.3692L18.5787 7.4773C18.736 7.35853 18.9337 7.30644 19.1291 7.33229C19.3245 7.35815 19.5018 7.45987 19.6228 7.61546C19.7438 7.77104 19.7987 7.968 19.7756 8.16372C19.7525 8.35945 19.6532 8.53822 19.4994 8.66137Z" fill="white"/>
</svg>
