<svg width="517" height="291" viewBox="0 0 517 291" fill="none" xmlns="http://www.w3.org/2000/svg">
<path d="M130.86 167.625H132.808V180.434H135.991V182.082H130.86V167.625Z" fill="#2F2760"/>
<path d="M142.961 178.814H144.627C144.496 181.093 143.56 182.232 141.818 182.232C141.3 182.232 140.854 182.135 140.479 181.942C140.111 181.748 139.805 181.449 139.562 181.043C139.318 180.637 139.137 180.122 139.019 179.498C138.906 178.874 138.85 178.131 138.85 177.269C138.85 175.559 139.087 174.292 139.562 173.468C140.042 172.644 140.782 172.232 141.781 172.232C143.722 172.232 144.693 173.942 144.693 177.363V177.588H140.601C140.601 179.66 141.013 180.696 141.837 180.696C142.586 180.696 142.961 180.069 142.961 178.814ZM142.867 176.295C142.792 175.278 142.677 174.61 142.52 174.292C142.358 173.936 142.096 173.758 141.734 173.758C141.366 173.758 141.103 173.936 140.947 174.292C140.791 174.61 140.676 175.278 140.601 176.295H142.867Z" fill="#2F2760"/>
<path d="M153.937 172.391V182.082H152.149V180.837C151.893 181.367 151.637 181.733 151.381 181.932C151.125 182.132 150.788 182.232 150.37 182.232C149.564 182.232 148.975 181.82 148.6 180.996C148.226 180.172 148.038 178.88 148.038 177.119C148.038 175.44 148.226 174.207 148.6 173.421C148.975 172.628 149.564 172.232 150.37 172.232C151.106 172.232 151.699 172.65 152.149 173.486V172.391H153.937ZM149.892 177.194C149.892 178.468 149.976 179.357 150.145 179.863C150.32 180.369 150.626 180.621 151.063 180.621C151.462 180.621 151.752 180.359 151.933 179.835C152.114 179.273 152.205 178.409 152.205 177.241C152.205 176.068 152.114 175.2 151.933 174.638C151.752 174.114 151.462 173.852 151.063 173.852C150.638 173.852 150.335 174.101 150.154 174.601C149.98 175.063 149.892 175.927 149.892 177.194Z" fill="#2F2760"/>
<path d="M158.079 172.391H159.867V173.599C160.173 173.087 160.476 172.728 160.775 172.522C161.075 172.316 161.471 172.197 161.964 172.166V174.039C161.84 174.02 161.733 174.011 161.646 174.011C161.003 174.011 160.544 174.176 160.27 174.507C160.001 174.832 159.867 175.4 159.867 176.211V182.082H158.079V172.391Z" fill="#2F2760"/>
<path d="M165.357 172.391H167.145V173.505C167.657 172.656 168.319 172.232 169.13 172.232C169.917 172.232 170.479 172.541 170.816 173.159C171.003 173.508 171.097 174.186 171.097 175.191V182.082H169.308L169.299 175.603C169.299 174.947 169.221 174.482 169.065 174.207C168.909 173.933 168.64 173.795 168.259 173.795C168.053 173.795 167.879 173.833 167.735 173.908C167.598 173.976 167.485 174.092 167.398 174.254C167.311 174.41 167.245 174.616 167.201 174.872C167.164 175.128 167.145 175.443 167.145 175.818V182.082H165.357V172.391Z" fill="#2F2760"/>
<path d="M182.993 179.919C183.306 179.919 183.574 180.032 183.799 180.256C184.023 180.481 184.136 180.753 184.136 181.071C184.136 181.389 184.023 181.661 183.799 181.885C183.562 182.104 183.287 182.213 182.975 182.213C182.669 182.213 182.397 182.104 182.16 181.885C181.935 181.661 181.823 181.386 181.823 181.062C181.823 180.743 181.935 180.475 182.16 180.256C182.391 180.032 182.669 179.919 182.993 179.919ZM182.038 167.625H183.93V178.608H182.038V167.625Z" fill="#2F2760"/>
<path d="M198.43 174.479H201.969V175.041C201.969 177.856 201.723 179.757 201.229 180.743C200.743 181.754 199.831 182.26 198.495 182.26C197.116 182.26 196.133 181.698 195.546 180.575C194.965 179.451 194.675 177.563 194.675 174.91C194.675 171.876 194.993 169.856 195.63 168.851C196.229 167.909 197.15 167.438 198.392 167.438C199.341 167.438 200.081 167.665 200.612 168.121C201.148 168.583 201.567 169.341 201.866 170.396L200.05 171.155C199.969 170.774 199.878 170.456 199.778 170.2C199.678 169.938 199.569 169.735 199.45 169.591C199.213 169.298 198.857 169.151 198.383 169.151C197.734 169.151 197.291 169.551 197.053 170.35C196.816 171.186 196.698 172.687 196.698 174.853C196.698 177.045 196.819 178.527 197.063 179.301C197.306 180.075 197.765 180.462 198.439 180.462C199.057 180.462 199.491 180.188 199.741 179.638C199.997 179.051 200.125 178.109 200.125 176.81V176.417V176.127H198.43V174.479Z" fill="#2F2760"/>
<path d="M205.923 172.391H207.712V173.599C208.018 173.087 208.32 172.728 208.62 172.522C208.92 172.316 209.316 172.197 209.809 172.166V174.039C209.684 174.02 209.578 174.011 209.491 174.011C208.848 174.011 208.389 174.176 208.114 174.507C207.846 174.832 207.712 175.4 207.712 176.211V182.082H205.923V172.391Z" fill="#2F2760"/>
<path d="M218.941 177.316C218.941 180.593 217.927 182.232 215.898 182.232C213.869 182.232 212.855 180.568 212.855 177.241C212.855 173.902 213.866 172.232 215.889 172.232C216.413 172.232 216.866 172.332 217.246 172.531C217.633 172.731 217.952 173.04 218.201 173.458C218.451 173.877 218.635 174.404 218.754 175.041C218.879 175.677 218.941 176.436 218.941 177.316ZM217.087 177.269C217.087 175.996 217.003 175.109 216.834 174.61C216.666 174.104 216.366 173.852 215.936 173.852C215.511 173.852 215.208 174.101 215.027 174.601C214.859 175.1 214.774 175.971 214.774 177.213C214.774 178.455 214.859 179.323 215.027 179.816C215.208 180.316 215.511 180.565 215.936 180.565C216.36 180.565 216.656 180.319 216.825 179.826C217 179.364 217.087 178.511 217.087 177.269Z" fill="#2F2760"/>
<path d="M221.725 172.391H223.616L224.159 175.509C224.265 176.133 224.359 176.736 224.44 177.316C224.528 177.897 224.596 178.462 224.646 179.011L224.674 179.348L224.712 178.992C224.762 178.543 224.812 178.131 224.862 177.756C224.918 177.375 224.977 177.026 225.039 176.707L225.189 175.968L225.854 172.391H227.156L227.783 175.968L227.989 177.091C228.033 177.304 228.073 177.569 228.111 177.887C228.148 178.199 228.186 178.571 228.223 179.002L228.261 179.348C228.373 178.187 228.532 177.06 228.738 175.968L229.403 172.391H231.163L228.888 182.082H227.652L226.912 178.384C226.825 177.934 226.75 177.475 226.687 177.007C226.625 176.533 226.572 176.03 226.528 175.5C226.522 175.437 226.516 175.362 226.51 175.275C226.503 175.187 226.494 175.084 226.481 174.966C226.444 175.534 226.391 176.086 226.322 176.623C226.254 177.154 226.169 177.684 226.069 178.215L225.32 182.082H224.084L221.725 172.391Z" fill="#2F2760"/>
<path d="M242.199 179.919C242.511 179.919 242.779 180.032 243.004 180.256C243.229 180.481 243.341 180.753 243.341 181.071C243.341 181.389 243.229 181.661 243.004 181.885C242.767 182.104 242.492 182.213 242.18 182.213C241.874 182.213 241.603 182.104 241.365 181.885C241.141 181.661 241.028 181.386 241.028 181.062C241.028 180.743 241.141 180.475 241.365 180.256C241.596 180.032 241.874 179.919 242.199 179.919ZM241.244 167.625H243.135V178.608H241.244V167.625Z" fill="#2F2760"/>
<path d="M249.664 179.919C249.976 179.919 250.245 180.032 250.469 180.256C250.694 180.481 250.806 180.753 250.806 181.071C250.806 181.389 250.694 181.661 250.469 181.885C250.232 182.104 249.957 182.213 249.645 182.213C249.339 182.213 249.068 182.104 248.831 181.885C248.606 181.661 248.494 181.386 248.494 181.062C248.494 180.743 248.606 180.475 248.831 180.256C249.062 180.032 249.339 179.919 249.664 179.919ZM248.709 167.625H250.6V178.608H248.709V167.625Z" fill="#2F2760"/>
<path d="M261.636 167.625H264.276C266.343 167.625 267.376 168.908 267.376 171.473C267.376 172.453 267.242 173.181 266.973 173.655C266.705 174.129 266.23 174.488 265.55 174.732C266.33 175.044 266.864 175.443 267.151 175.93C267.444 176.411 267.591 177.135 267.591 178.103C267.591 180.756 266.455 182.082 264.183 182.082H261.636V167.625ZM263.471 173.992C264.227 173.992 264.751 173.817 265.044 173.468C265.338 173.099 265.484 172.453 265.484 171.529C265.484 169.969 264.923 169.189 263.799 169.189H263.649H263.565C263.515 169.189 263.484 169.192 263.471 169.198V173.992ZM263.471 180.415C264.27 180.415 264.823 180.244 265.129 179.9C265.434 179.557 265.587 178.936 265.587 178.037C265.587 177.113 265.428 176.467 265.11 176.099C264.798 175.724 264.251 175.537 263.471 175.537V180.415Z" fill="#2F2760"/>
<path d="M275.291 178.814H276.957C276.826 181.093 275.89 182.232 274.148 182.232C273.63 182.232 273.184 182.135 272.809 181.942C272.441 181.748 272.135 181.449 271.892 181.043C271.648 180.637 271.467 180.122 271.349 179.498C271.236 178.874 271.18 178.131 271.18 177.269C271.18 175.559 271.417 174.292 271.892 173.468C272.372 172.644 273.112 172.232 274.111 172.232C276.052 172.232 277.023 173.942 277.023 177.363V177.588H272.931C272.931 179.66 273.343 180.696 274.167 180.696C274.916 180.696 275.291 180.069 275.291 178.814ZM275.197 176.295C275.122 175.278 275.007 174.61 274.851 174.292C274.688 173.936 274.426 173.758 274.064 173.758C273.696 173.758 273.434 173.936 273.277 174.292C273.121 174.61 273.006 175.278 272.931 176.295H275.197Z" fill="#2F2760"/>
<path d="M286.916 167.625H289.482C290.718 167.625 291.616 167.937 292.178 168.561C292.74 169.192 293.021 170.19 293.021 171.558C293.021 173.48 292.456 174.722 291.326 175.284C290.758 175.54 289.937 175.668 288.864 175.668V182.082H286.916V167.625ZM288.864 174.001C289.669 174.001 290.224 173.839 290.53 173.514C290.842 173.184 290.999 172.597 290.999 171.754C290.999 170.893 290.849 170.262 290.549 169.863C290.249 169.463 289.778 169.263 289.135 169.263H288.864V174.001Z" fill="#2F2760"/>
<path d="M300.084 178.814H301.75C301.619 181.093 300.683 182.232 298.941 182.232C298.423 182.232 297.977 182.135 297.602 181.942C297.234 181.748 296.928 181.449 296.685 181.043C296.441 180.637 296.26 180.122 296.142 179.498C296.029 178.874 295.973 178.131 295.973 177.269C295.973 175.559 296.21 174.292 296.685 173.468C297.165 172.644 297.905 172.232 298.904 172.232C300.845 172.232 301.816 173.942 301.816 177.363V177.588H297.724C297.724 179.66 298.136 180.696 298.96 180.696C299.709 180.696 300.084 180.069 300.084 178.814ZM299.99 176.295C299.915 175.278 299.8 174.61 299.644 174.292C299.481 173.936 299.219 173.758 298.857 173.758C298.489 173.758 298.227 173.936 298.071 174.292C297.915 174.61 297.799 175.278 297.724 176.295H299.99Z" fill="#2F2760"/>
<path d="M305.527 172.391H307.315V173.599C307.621 173.087 307.924 172.728 308.223 172.522C308.523 172.316 308.919 172.197 309.412 172.166V174.039C309.288 174.02 309.181 174.011 309.094 174.011C308.451 174.011 307.992 174.176 307.718 174.507C307.449 174.832 307.315 175.4 307.315 176.211V182.082H305.527V172.391Z" fill="#2F2760"/>
<path d="M312.458 172.391H313.357V169.011C313.357 167.906 313.519 167.125 313.844 166.67C314.169 166.214 314.734 165.986 315.539 165.986C315.888 165.986 316.294 166.07 316.756 166.239V168.13C316.469 167.974 316.216 167.896 315.998 167.896C315.692 167.896 315.473 167.987 315.342 168.168C315.217 168.349 315.155 168.655 315.155 169.086L315.146 169.816V172.391H316.662V173.814H315.146V182.082H313.357V173.814H312.458V172.391Z" fill="#2F2760"/>
<path d="M323.716 178.814H325.383C325.251 181.093 324.315 182.232 322.573 182.232C322.055 182.232 321.609 182.135 321.234 181.942C320.866 181.748 320.56 181.449 320.317 181.043C320.073 180.637 319.892 180.122 319.774 179.498C319.661 178.874 319.605 178.131 319.605 177.269C319.605 175.559 319.842 174.292 320.317 173.468C320.798 172.644 321.537 172.232 322.536 172.232C324.477 172.232 325.448 173.942 325.448 177.363V177.588H321.356C321.356 179.66 321.768 180.696 322.592 180.696C323.341 180.696 323.716 180.069 323.716 178.814ZM323.622 176.295C323.547 175.278 323.432 174.61 323.276 174.292C323.113 173.936 322.851 173.758 322.489 173.758C322.121 173.758 321.859 173.936 321.703 174.292C321.547 174.61 321.431 175.278 321.356 176.295H323.622Z" fill="#2F2760"/>
<path d="M333.119 172.578V174.404C332.87 174.098 332.57 173.945 332.221 173.945C331.234 173.945 330.741 175.013 330.741 177.148C330.741 179.414 331.231 180.547 332.211 180.547C332.486 180.547 332.789 180.425 333.119 180.181V181.857C332.645 182.107 332.164 182.232 331.677 182.232C329.755 182.232 328.793 180.596 328.793 177.325C328.793 175.584 329.031 174.301 329.505 173.477C329.98 172.647 330.716 172.232 331.715 172.232C332.196 172.232 332.664 172.347 333.119 172.578Z" fill="#2F2760"/>
<path d="M336.97 169.675H338.759V172.391H339.733V173.814H338.759V182.082H336.97V173.814H335.987V172.391H336.97V169.675Z" fill="#2F2760"/>
<path d="M346.861 178.814H348.528C348.397 181.093 347.46 182.232 345.719 182.232C345.201 182.232 344.754 182.135 344.38 181.942C344.011 181.748 343.705 181.449 343.462 181.043C343.219 180.637 343.038 180.122 342.919 179.498C342.807 178.874 342.75 178.131 342.75 177.269C342.75 175.559 342.988 174.292 343.462 173.468C343.943 172.644 344.682 172.232 345.681 172.232C347.623 172.232 348.593 173.942 348.593 177.363V177.588H344.501C344.501 179.66 344.913 180.696 345.737 180.696C346.486 180.696 346.861 180.069 346.861 178.814ZM346.767 176.295C346.692 175.278 346.577 174.61 346.421 174.292C346.259 173.936 345.996 173.758 345.634 173.758C345.266 173.758 345.004 173.936 344.848 174.292C344.692 174.61 344.576 175.278 344.501 176.295H346.767Z" fill="#2F2760"/>
<path d="M357.838 166.173V182.082H356.049V180.837C355.793 181.367 355.537 181.733 355.281 181.932C355.025 182.132 354.685 182.232 354.261 182.232C353.462 182.232 352.875 181.823 352.5 181.005C352.126 180.181 351.939 178.889 351.939 177.129C351.939 176.28 351.985 175.546 352.079 174.928C352.173 174.31 352.313 173.802 352.5 173.402C352.694 173.003 352.941 172.709 353.24 172.522C353.54 172.328 353.896 172.232 354.308 172.232C354.701 172.232 355.025 172.325 355.281 172.513C355.406 172.6 355.534 172.725 355.665 172.887C355.796 173.049 355.924 173.249 356.049 173.486V166.173H357.838ZM353.793 177.194C353.793 178.468 353.877 179.357 354.045 179.863C354.22 180.369 354.526 180.621 354.963 180.621C355.363 180.621 355.653 180.359 355.834 179.835C356.015 179.273 356.105 178.409 356.105 177.241C356.105 176.068 356.015 175.2 355.834 174.638C355.653 174.114 355.363 173.852 354.963 173.852C354.539 173.852 354.236 174.101 354.055 174.601C353.88 175.063 353.793 175.927 353.793 177.194Z" fill="#2F2760"/>
<path d="M369.735 179.919C370.047 179.919 370.315 180.032 370.54 180.256C370.765 180.481 370.877 180.753 370.877 181.071C370.877 181.389 370.765 181.661 370.54 181.885C370.303 182.104 370.028 182.213 369.716 182.213C369.41 182.213 369.138 182.104 368.901 181.885C368.677 181.661 368.564 181.386 368.564 181.062C368.564 180.743 368.677 180.475 368.901 180.256C369.132 180.032 369.41 179.919 369.735 179.919ZM368.78 167.625H370.671V178.608H368.78V167.625Z" fill="#2F2760"/>
<path d="M377.2 179.919C377.512 179.919 377.781 180.032 378.005 180.256C378.23 180.481 378.342 180.753 378.342 181.071C378.342 181.389 378.23 181.661 378.005 181.885C377.768 182.104 377.493 182.213 377.181 182.213C376.875 182.213 376.604 182.104 376.367 181.885C376.142 181.661 376.03 181.386 376.03 181.062C376.03 180.743 376.142 180.475 376.367 180.256C376.598 180.032 376.875 179.919 377.2 179.919ZM376.245 167.625H378.136V178.608H376.245V167.625Z" fill="#2F2760"/>
<path d="M384.665 179.919C384.977 179.919 385.246 180.032 385.471 180.256C385.695 180.481 385.808 180.753 385.808 181.071C385.808 181.389 385.695 181.661 385.471 181.885C385.233 182.104 384.959 182.213 384.647 182.213C384.341 182.213 384.069 182.104 383.832 181.885C383.607 181.661 383.495 181.386 383.495 181.062C383.495 180.743 383.607 180.475 383.832 180.256C384.063 180.032 384.341 179.919 384.665 179.919ZM383.71 167.625H385.602V178.608H383.71V167.625Z" fill="#2F2760"/>
<path d="M269.181 91.1432C269.696 91.1497 270.001 90.5781 270.148 90.0845C270.695 88.2602 270.737 86.2881 270.27 84.4419C270.019 84.4565 269.766 84.4703 269.514 84.4849C269.781 85.6159 268.962 86.8857 267.822 87.1089C267.657 88.1969 267.817 89.3327 268.275 90.333C268.454 90.7219 268.753 91.1384 269.181 91.1432Z" fill="#2F2760"/>
<path d="M306.849 86.4302C306.165 86.2654 306.197 85.2692 305.777 84.7042C305.129 83.8306 303.757 84.286 302.808 84.817C301.346 85.6338 299.826 86.3913 298.406 87.2778C296.733 88.3211 296.567 90.3898 296.305 92.1435C296.174 93.0187 295.708 93.7454 296.507 94.2999C298.017 95.3488 300.145 92.8677 301.669 92.642C303.696 92.3416 303.815 95.2003 305.056 96.2711C305.605 96.7445 306.369 96.958 307.083 96.8378C307.797 96.7169 308.449 96.2646 308.812 95.6379C309.101 94.5028 309.595 93.7892 310.264 92.8239C310.748 92.1256 311.255 91.3349 311.127 90.4954C311.014 89.7574 310.441 89.1923 310.003 88.5874C308.952 87.1398 308.612 85.2002 309.107 83.4815C308.417 83.4774 308.147 84.3591 308.043 85.0419C307.939 85.7239 307.521 86.5918 306.849 86.4302Z" fill="#2F2760"/>
<path d="M288.837 76.1639C288.8 76.2817 288.763 76.4002 288.726 76.5179C289.376 76.8021 289.74 77.48 290.096 78.093C290.45 78.7027 290.841 79.293 291.31 79.8191C291.844 80.4166 292.475 80.9265 293.168 81.3292C294.396 82.042 295.79 82.4082 297.164 82.7662C298.112 83.013 299.07 83.2615 300.05 83.298C301.029 83.3345 302.046 83.1413 302.845 82.5738C300.797 82.4666 298.707 82.5389 296.738 81.9616C294.971 81.4436 293.362 80.4004 292.169 78.9991C291.684 78.4299 291.266 77.8031 290.745 77.2649C290.226 76.7266 289.577 76.2711 288.837 76.1639Z" fill="#2F2760"/>
<path d="M297.479 80.5633C297.653 80.5739 297.834 80.5714 297.989 80.4919C298.356 80.3027 298.394 79.8066 298.439 79.3966C298.513 78.7219 298.736 78.0643 299.089 77.4846C299.258 77.2053 299.459 76.9398 299.566 76.6313C299.673 76.3228 299.668 75.9485 299.451 75.7042C299.202 75.4232 298.757 75.4046 298.408 75.5442C298.06 75.683 297.779 75.9469 297.484 76.1775C297.018 76.542 296.497 76.8375 296.064 77.2411C295.63 77.6438 295.281 78.1918 295.299 78.7836C295.314 79.2984 295.616 79.7798 296.031 80.0851C296.446 80.3896 296.964 80.5316 297.479 80.5633Z" fill="#2F2760"/>
<path d="M304.547 79.0485C304.423 79.5981 304.897 80.1064 305.394 80.3727C305.891 80.6398 306.468 80.8005 306.844 81.2203C307.14 81.5515 307.267 81.9964 307.484 82.3837C307.701 82.771 308.088 83.1339 308.529 83.077C308.929 83.0259 309.239 82.6435 309.641 82.637C310.085 82.6297 310.386 83.0624 310.662 83.4115C310.937 83.7598 311.429 84.0854 311.791 83.8272C312.081 83.621 312.05 83.1517 311.824 82.8781C311.597 82.6045 311.243 82.4771 310.907 82.3618C310.844 82.0922 310.938 81.7918 311.144 81.6059C310.146 81.0149 309.147 80.4238 308.149 79.8336C307.742 79.5924 307.258 79.344 306.819 79.5194C306.492 79.6501 306.229 80.0032 305.882 79.9497C305.593 79.905 305.434 79.6022 305.271 79.3586C305.109 79.115 304.791 78.8869 304.547 79.0485Z" fill="#2F2760"/>
<path d="M304.989 59.8676C304.78 59.3602 304.384 58.8381 304.573 58.3234C304.612 58.217 304.676 58.1139 304.668 58.0011C304.651 57.8062 304.439 57.7031 304.27 57.6065C303.57 57.2087 303.239 56.4008 302.84 55.7018C302.441 55.0028 301.783 54.2972 300.982 54.3841C301.306 54.8063 301.631 55.2285 301.955 55.6507C302.65 56.5559 303.359 57.4871 303.688 58.5791C304.016 59.6719 303.89 60.9766 303.076 61.7772C302.832 62.0175 302.538 62.2026 302.281 62.4299C302.025 62.6573 301.797 62.9471 301.754 63.2873C301.71 63.6275 301.905 64.0147 302.241 64.0878C302.46 64.1357 302.685 64.048 302.887 63.9498C303.646 63.5812 304.337 63.0315 304.761 62.3008C305.185 61.5701 305.311 60.6478 304.989 59.8676Z" fill="#2F2760"/>
<path d="M304.891 97.9727C304.819 98.0742 304.805 98.2049 304.794 98.3291C304.752 98.7805 304.711 99.2328 304.67 99.6842C304.864 99.784 305.081 99.603 305.218 99.4325C305.612 98.9437 305.941 98.4022 306.193 97.8274C305.98 97.9094 305.743 97.8412 305.518 97.8063C305.294 97.7706 305.024 97.7868 304.891 97.9727Z" fill="#2F2760"/>
<path d="M286.786 40.2069C265.562 40.2069 248.356 57.4124 248.356 78.6368C248.356 99.8612 265.562 117.067 286.786 117.067C308.01 117.067 325.216 99.8612 325.216 78.6368C325.216 57.4124 308.01 40.2069 286.786 40.2069ZM299.476 45.8317C298.712 46.1621 297.955 46.5551 297.209 46.8766C294.445 48.0668 291.378 48.2941 288.376 48.506C286.809 48.6164 285.242 48.7277 283.674 48.8381C283.648 49.3269 283.227 49.7636 282.74 49.8075C282.252 49.8521 281.76 49.4982 281.646 49.0224C280.146 50.1193 278.13 50.4757 276.344 49.9617C276.347 49.2936 277.288 48.8592 277.798 49.2919C278.075 48.3802 277.315 47.4149 276.41 47.1161C275.505 46.8173 274.52 47.0008 273.585 47.1867C272.505 47.4019 271.4 47.6259 270.452 48.187C269.503 48.7488 268.725 49.7222 268.701 50.824C270.687 49.965 272.673 49.106 274.66 48.247C273.608 49.1791 272.557 50.1111 271.505 51.0424C270.868 51.6066 270.139 52.2066 269.288 52.1701C268.437 52.1335 267.691 51.0204 268.287 50.4123C267.155 51.2145 265.731 51.3509 264.34 51.5693C270.435 46.5039 278.26 43.4545 286.786 43.4545C291.259 43.4545 295.536 44.3021 299.476 45.8317ZM260.564 55.213C261.474 55.1513 262.415 55.5224 263.003 56.2238C263.714 57.0698 263.872 58.3396 263.391 59.335C264.018 59.2717 264.645 59.2083 265.271 59.145C265.344 59.4787 265.417 59.8124 265.489 60.1461C266.095 60.185 266.701 60.224 267.306 60.263C267.225 61.5206 266.355 62.6922 265.174 63.1346C263.994 63.5763 262.568 63.2637 261.681 62.369C261.051 62.7222 260.334 61.9265 260.296 61.2048C260.258 60.483 260.557 59.7572 260.412 59.0492C260.242 58.226 259.485 57.699 258.645 57.5448C259.252 56.7386 259.893 55.9624 260.564 55.213ZM293.781 113.119C293.911 112.78 293.954 112.417 293.863 112.061C295.064 112.234 296.334 111.856 297.246 111.056C297.752 109.821 297.04 108.356 295.959 107.573C294.879 106.791 293.517 106.528 292.205 106.286C289.321 105.755 286.397 106.079 283.512 106.417C281.13 106.696 278.438 107.211 276.756 109.084C276.057 109.862 275.602 110.9 275.476 111.943C261.609 107.221 251.604 94.0798 251.604 78.6368C251.604 76.9619 251.729 75.3162 251.957 73.7022C252.384 74.2737 253.027 74.6878 253.731 74.6683C254.454 77.6934 255.178 80.7193 255.901 83.7444C256.8 87.5059 257.748 91.3745 260.018 94.506C260.496 95.1661 261.081 95.8196 261.869 96.0275C263.151 96.3652 264.466 95.3447 264.97 94.1179C265.474 92.8912 265.391 91.5166 265.388 90.19C265.371 84.273 267.125 78.3624 270.367 73.4131C269.066 73.8735 267.359 74.2275 266.52 73.1314C266.145 72.6402 266.076 71.9875 266.02 71.3721C265.829 69.2408 265.637 67.1088 265.445 64.9776C266.531 67.4441 267.176 70.1031 267.34 72.792C269.4 72.499 271.376 71.6359 272.992 70.3239C273.461 69.9431 273.933 69.456 273.947 68.8519C273.986 67.1811 270.927 67.108 270.577 65.4737C270.637 65.7554 275.666 67.2964 276.285 67.6585C277.995 68.6579 278.506 70.7769 279.356 72.5095C279.663 73.1371 279.74 73.8775 280.133 74.4589C280.416 74.8778 280.906 75.1969 281.407 75.1287C282.513 74.9776 283.251 72.2603 283.73 71.3461C284.664 69.5624 285.724 68.4273 287.133 70.2435C288.328 71.7853 289.957 73.5577 290.765 75.3381C291.405 76.7476 291.603 78.6165 293.719 78.5337C293.947 78.5248 292.441 76.2564 292.318 76.1029C291.592 75.1944 291.178 74.2916 290.692 73.1891C291.307 73.9742 292.186 74.6123 293.18 74.6894C294.174 74.7657 295.25 74.1438 295.46 73.1696C295.67 72.1953 294.717 71.0936 293.753 71.3461C293.504 70.7916 293.978 70.1485 294.54 69.9171C295.102 69.6866 295.734 69.715 296.327 69.5867C298.471 69.1223 299.654 66.2409 298.453 64.4044C297.836 63.461 296.718 62.3227 297.442 61.4589C297.867 60.9515 298.73 61.0408 299.218 61.4881C299.706 61.9355 299.896 62.6183 299.995 63.2735C300.2 63.2256 300.405 63.1769 300.609 63.129C301.174 60.3953 301.674 57.4019 300.373 54.9313C300.006 54.2339 299.497 53.4058 299.905 52.7319C300.138 52.3479 300.598 52.1758 300.94 51.8843C301.281 51.5928 301.475 50.9904 301.108 50.7314C301.494 50.7485 301.881 50.7655 302.268 50.7834C302.181 52.6946 303.627 54.5611 305.499 54.9565C304.595 52.6036 303.92 50.1631 303.482 47.6803C314.479 53.6355 321.967 65.2796 321.967 78.6401C321.968 95.6418 309.841 109.865 293.781 113.119Z" fill="#2F2760"/>
<path d="M314.723 98.0565C312.646 99.7704 310.569 101.484 308.492 103.197C311.336 102.921 313.912 100.796 314.723 98.0565Z" fill="#2F2760"/>
<path d="M169.766 53.7161L144.75 112.552C144.209 114.019 143.36 115.177 142.202 116.026C141.121 116.798 139.924 117.184 138.611 117.184C136.526 117.184 134.982 116.605 133.978 115.447C132.975 114.289 132.473 112.86 132.473 111.162C132.473 110.467 132.589 109.733 132.82 108.961L161.659 39.7022C162.277 38.158 163.203 36.9612 164.439 36.1118C165.751 35.2625 167.141 34.9151 168.608 35.0695C169.998 35.0695 171.272 35.4941 172.43 36.3435C173.665 37.1156 174.553 38.2352 175.094 39.7022L203.585 107.571C203.971 108.575 204.164 109.502 204.164 110.351C204.164 112.436 203.469 114.096 202.079 115.331C200.767 116.567 199.3 117.184 197.678 117.184C196.288 117.184 195.014 116.76 193.856 115.91C192.775 115.061 191.926 113.903 191.308 112.436L166.407 54.4111L169.766 53.7161ZM148.34 98.4218L154.71 85.1028H185.981L188.181 98.4218H148.34Z" fill="#2F2760"/>
<path d="M360.775 118.349C356.374 118.349 352.282 117.461 348.499 115.685C344.715 113.909 341.627 111.361 339.233 108.041C338.307 106.651 337.843 105.3 337.843 103.987C337.843 102.057 338.577 100.435 340.044 99.1229C341.588 97.8102 343.094 97.1539 344.561 97.1539C345.719 97.1539 346.839 97.5014 347.92 98.1963C349.078 98.8912 350.12 99.7019 351.047 100.628C352.591 102.018 354.097 103.022 355.564 103.64C357.108 104.18 358.845 104.45 360.775 104.45C363.092 104.45 365.254 103.871 367.261 102.713C369.269 101.555 370.89 100.011 372.126 98.0805C373.361 96.1502 373.979 94.0655 373.979 91.8263V43.1828C373.979 41.1753 374.712 39.5153 376.179 38.2027C377.646 36.8129 379.345 36.118 381.275 36.118C383.437 36.118 385.174 36.8129 386.487 38.2027C387.8 39.5153 388.456 41.1753 388.456 43.1828V91.8263C388.456 96.5363 387.22 100.899 384.75 104.914C382.279 108.929 378.959 112.172 374.789 114.642C370.62 117.113 365.949 118.349 360.775 118.349Z" fill="#2F2760"/>
<rect x="224.556" y="28.6965" width="11.7047" height="87.785" fill="#E51E25"/>
<rect x="209.922" y="46.8386" width="40.9663" height="11.7047" fill="#E51E25"/>
<path fill-rule="evenodd" clip-rule="evenodd" d="M336.332 24.0145C336.113 24.0145 335.913 24.1363 335.812 24.3304C335.138 25.631 333.948 27.7343 332.581 29.7999C331.205 31.879 329.683 33.8651 328.349 34.977C326.811 36.2587 326.756 37.5846 326.683 39.3438C326.68 39.4031 326.678 39.4629 326.675 39.5232C326.596 41.3824 327.093 44.3465 327.341 45.4339C327.136 44.5325 327.227 42.6087 327.304 41.0071C327.317 40.7281 327.33 40.4588 327.341 40.2064C327.413 38.4954 327.879 36.8922 329.098 35.8762C330.573 34.6471 332.173 32.5366 333.557 30.4459C334.749 28.6452 335.807 26.8184 336.521 25.4936C336.536 25.8171 336.413 26.4471 335.818 27.5383C335.688 27.776 335.739 28.0717 335.94 28.2531C336.141 28.4345 336.44 28.4542 336.663 28.3008C337.033 28.0469 337.473 27.7845 337.903 27.5865C338.346 27.3822 338.72 27.2739 338.975 27.2698C339.096 27.2679 339.149 27.2903 339.166 27.2999L339.167 27.3004C339.173 27.3035 339.189 27.3126 339.208 27.3667C339.265 27.5298 339.281 27.9468 338.995 28.8039C338.93 28.9987 338.972 29.2132 339.106 29.3692C339.239 29.5252 339.444 29.6 339.647 29.5663C339.889 29.526 340.166 29.5167 340.42 29.559C340.676 29.6017 340.867 29.6894 340.989 29.8066C341.173 29.983 341.449 30.5016 340.775 31.9625C340.705 32.1137 340.703 32.2874 340.769 32.4402C340.835 32.5929 340.963 32.7104 341.121 32.763C341.613 32.9271 342.1 33.291 342.233 33.792C342.358 34.2615 342.24 35.1278 340.892 36.4758C340.664 36.7044 340.664 37.0749 340.892 37.3035C340.944 37.355 341.003 37.395 341.065 37.4233C341.114 37.532 341.197 37.6267 341.308 37.6904C341.555 37.8313 341.824 38.1068 341.897 38.4475C341.962 38.7458 341.912 39.2605 341.185 39.9872C341.058 40.1147 340.996 40.2937 341.018 40.4726C341.04 40.6514 341.143 40.8102 341.298 40.9029C341.437 40.9864 341.635 41.1822 341.717 41.4637C341.791 41.718 341.793 42.1267 341.404 42.71C341.225 42.9789 341.298 43.3423 341.567 43.5215C341.836 43.7008 342.199 43.6282 342.378 43.3592C342.926 42.5379 343.026 41.7762 342.841 41.1381C342.751 40.8254 342.598 40.5631 342.423 40.3534C343.01 39.6012 343.186 38.8673 343.041 38.1995C342.908 37.5842 342.523 37.1302 342.15 36.847C343.271 35.5747 343.619 34.4498 343.364 33.4913C343.161 32.7272 342.612 32.2155 342.065 31.908C342.554 30.5961 342.462 29.5971 341.799 28.9615C341.453 28.63 341.015 28.4715 340.612 28.4044C340.517 28.3886 340.422 28.3774 340.327 28.3704C340.44 27.8258 340.445 27.3595 340.313 26.9811C340.208 26.68 340.017 26.4393 339.75 26.2855C339.494 26.1384 339.213 26.0953 338.956 26.0995C338.501 26.1068 338.003 26.2645 337.55 26.4621C337.7 25.9328 337.728 25.4902 337.65 25.1221C337.572 24.7522 337.385 24.4614 337.122 24.2686C336.868 24.0824 336.58 24.0145 336.332 24.0145ZM357.876 36.6446C358.739 35.4364 359.446 34.6494 360.013 34.1623C360.588 33.6676 360.968 33.5264 361.182 33.5077C361.35 33.493 361.453 33.5483 361.549 33.6703C361.664 33.8175 361.755 34.057 361.795 34.3389C361.822 34.5251 361.936 34.6872 362.103 34.7745C362.27 34.8618 362.468 34.8637 362.636 34.7796C363.052 34.5717 363.534 34.371 363.984 34.2416C364.456 34.1063 364.811 34.0736 365.015 34.1182C365.059 34.1279 365.086 34.1393 365.101 34.1474C365.115 34.155 365.12 34.1609 365.12 34.1609C365.12 34.1609 365.125 34.1669 365.131 34.1831C365.137 34.2012 365.146 34.2364 365.147 34.2955C365.154 34.5644 365.016 35.0975 364.498 36.0175C364.416 36.1636 364.4 36.3379 364.455 36.4962C364.51 36.6546 364.63 36.7818 364.785 36.8456C365.158 36.9992 365.562 37.2221 365.898 37.4949C366.239 37.7715 366.471 38.067 366.567 38.3559C366.655 38.6174 366.651 38.9239 366.419 39.3073C366.173 39.7139 365.664 40.2143 364.711 40.7745C364.562 40.8623 364.459 41.0118 364.431 41.1827C364.402 41.3535 364.451 41.5282 364.564 41.6598C364.764 41.8933 364.914 42.273 364.787 42.6749C364.659 43.0777 364.194 43.6885 362.75 44.2441C362.575 44.3111 362.444 44.4572 362.395 44.6373C362.346 44.8175 362.386 45.0101 362.503 45.1559C362.662 45.3553 362.796 45.5919 362.862 45.8198C362.926 46.0448 362.913 46.2216 362.845 46.3591C362.778 46.4937 362.611 46.6853 362.174 46.8479C361.731 47.0127 361.049 47.1312 360.034 47.1312C359.846 47.1312 359.669 47.2217 359.559 47.3743C359.449 47.5269 359.419 47.7231 359.478 47.9015C359.648 48.4112 359.715 49.125 359.47 49.6724C359.354 49.9315 359.166 50.1623 358.862 50.3345C358.551 50.5103 358.088 50.6426 357.4 50.6426C357.227 50.6426 357.062 50.7196 356.951 50.8529C356.84 50.9861 356.793 51.1618 356.824 51.3325C356.91 51.805 356.874 52.3833 356.636 52.7384C356.53 52.8961 356.379 53.0208 356.14 53.0849C355.888 53.1526 355.5 53.1622 354.921 53.0042C354.745 52.9562 354.556 52.993 354.411 53.1037C354.266 53.2144 354.181 53.3864 354.181 53.5688C354.181 53.9526 354.038 54.3959 353.716 54.6348C353.425 54.8502 352.793 55.0385 351.48 54.4917C351.3 54.4164 351.093 54.4364 350.931 54.5449C350.768 54.6535 350.67 54.8362 350.67 55.0319C350.67 55.0639 350.643 55.2889 350.238 55.486C349.818 55.6906 349.003 55.849 347.54 55.6239C347.355 55.5954 347.167 55.6576 347.035 55.7911C346.903 55.9247 346.843 56.1134 346.874 56.2986C346.896 56.4345 346.857 56.5542 346.741 56.6266C346.581 56.7252 346.108 56.8565 344.986 56.5197C344.721 56.4402 344.436 56.5571 344.304 56.8C343.888 57.5614 341.743 59.8131 337.502 58.2507C341.722 59.8055 344.069 59.045 345.071 57.7552C346.076 57.9976 346.831 57.9472 347.357 57.6216C347.686 57.4175 347.875 57.1405 347.969 56.8584C349.226 56.9841 350.126 56.8427 350.751 56.5383C351.151 56.3431 351.438 56.0783 351.617 55.7883C352.824 56.1714 353.753 56.0638 354.413 55.5753C354.888 55.2235 355.142 54.7315 355.262 54.2677C355.701 54.3268 356.094 54.3091 356.443 54.2154C356.97 54.0741 357.353 53.7708 357.608 53.3897C357.939 52.8958 358.04 52.299 358.037 51.7789C358.585 51.7172 359.051 51.5725 359.439 51.3531C359.974 51.0498 360.328 50.6222 360.539 50.1498C360.814 49.5324 360.841 48.8577 360.762 48.2811C361.506 48.2369 362.106 48.1219 362.582 47.945C363.211 47.7113 363.658 47.3542 363.894 46.8792C364.128 46.4071 364.106 45.9134 363.987 45.4982C363.943 45.3453 363.885 45.1977 363.818 45.0579C365.003 44.4872 365.661 43.7893 365.902 43.0286C366.088 42.4418 366.001 41.8984 365.81 41.4674C366.571 40.9588 367.101 40.4418 367.421 39.9129C367.821 39.2508 367.88 38.588 367.677 37.9839C367.484 37.4071 367.073 36.9405 366.636 36.5862C366.376 36.3749 366.092 36.1918 365.81 36.0387C366.154 35.336 366.33 34.7482 366.317 34.2661C366.309 33.9451 366.217 33.6408 366.007 33.397C365.8 33.1563 365.527 33.0322 365.265 32.9748C364.766 32.8658 364.178 32.9685 363.662 33.1166C363.357 33.2039 363.049 33.3159 362.755 33.4387C362.681 33.2658 362.588 33.0983 362.469 32.9472C362.163 32.5572 361.693 32.2881 361.08 32.3417C360.513 32.3913 359.906 32.711 359.25 33.2746C358.585 33.8457 357.817 34.7145 356.924 35.9643C354.759 38.9944 352.703 41.0371 350.071 42.4056C347.431 43.7783 344.159 44.5012 339.514 44.7914C331.886 45.2682 328.402 48.5808 327.602 50.4081C327.473 50.7042 327.608 51.0493 327.904 51.1788C328.2 51.3084 328.545 51.1733 328.675 50.8772C329.241 49.5832 332.233 46.4193 339.587 45.9596C344.306 45.6647 347.764 44.9245 350.611 43.4441C353.465 41.9597 355.651 39.7594 357.876 36.6446ZM320.018 37.4704C320.978 37.3503 321.894 37.7001 322.661 38.5302C323.775 39.3315 324.321 40.7847 324.871 42.2517C325.346 43.5167 325.825 44.7918 326.675 45.6682C326.513 45.4249 326.169 44.7305 326.019 44.3847C325.839 43.9693 325.652 43.3608 325.498 42.3604C325.193 40.38 324.5 38.7967 323.521 37.7363C322.531 36.6644 321.253 36.1364 319.873 36.3089C318.704 36.4551 317.89 37.2142 317.365 38.0077C316.892 38.7228 316.611 39.5228 316.48 40.1119L314.849 41.7429C314.659 41.933 314.623 42.2282 314.762 42.4586C314.901 42.6889 315.178 42.7952 315.435 42.7161C316.407 42.4172 317.013 42.2744 317.442 42.306C317.635 42.3202 317.77 42.3693 317.882 42.4471C317.999 42.5281 318.126 42.6659 318.261 42.9125C318.541 43.4265 318.785 44.2849 319.05 45.6814C319.29 46.943 319.538 48.582 319.859 50.702L319.952 51.3155C320.916 59.704 325.114 60.7442 328.063 61.475C328.781 61.6527 329.424 61.8122 329.93 62.0547C329.553 61.874 329.093 61.7275 328.583 61.5648C325.98 60.7356 322.055 59.4853 321.109 51.1402L321.015 50.5189C320.696 48.4094 320.444 46.7475 320.2 45.4628C319.935 44.0704 319.666 43.0451 319.288 42.352C319.094 41.995 318.856 41.6985 318.55 41.4858C318.239 41.2697 317.894 41.1657 317.528 41.1387C317.394 41.1288 317.254 41.1294 317.109 41.139L317.433 40.8149C317.517 40.7307 317.573 40.6229 317.595 40.5057C317.681 40.0313 317.92 39.29 318.341 38.6539C318.762 38.0185 319.314 37.5584 320.018 37.4704ZM337.586 62.0547C336.66 61.7446 336.331 59.6629 336.331 59.1803C336.332 59.1626 336.332 59.1453 336.332 59.1285L336.331 59.1803C336.331 59.1803 336.331 59.1803 336.331 59.1803C336.33 59.2818 336.326 59.3999 336.321 59.5303C336.287 60.4495 336.231 61.9808 337.096 62.6203C338.004 63.2922 339.366 63.6274 341.306 63.3397C341.343 63.7479 341.443 64.2049 341.644 64.6457C341.996 65.4183 342.663 66.1427 343.798 66.4265C344.111 66.5048 344.429 66.3142 344.507 66.0006C344.586 65.6871 344.395 65.3693 344.082 65.2909C343.344 65.1065 342.937 64.6604 342.709 64.1601C342.471 63.6375 342.434 63.0595 342.473 62.7045C342.494 62.5179 342.424 62.3327 342.285 62.2066C342.146 62.0804 341.955 62.0286 341.771 62.0672C339.644 62.5149 338.239 62.538 337.586 62.0547ZM320.858 39.5057C321.343 39.5057 321.736 39.8988 321.736 40.3836C321.736 40.8684 321.343 41.2614 320.858 41.2614C320.374 41.2614 319.981 40.8684 319.981 40.3836C319.981 39.8988 320.374 39.5057 320.858 39.5057Z" fill="#2F2760"/>
<path fill-rule="evenodd" clip-rule="evenodd" d="M392.518 132.283H125.067V158.618H392.518V132.283ZM143.827 142.216V142.835H139.933C139.913 141.896 139.274 141.537 137.876 141.537H136.897C134.9 141.537 134.7 142.176 134.7 144.373V146.769C134.7 148.986 134.92 149.585 136.897 149.585H137.976C139.454 149.585 140.033 149.246 140.033 148.147V147.588H137.816V144.872H143.827V147.348C143.827 151.243 142.21 153 138.455 153H135.819C132.563 153 130.826 150.923 130.826 146.849V144.652C130.826 140.198 132.464 138.121 136.378 138.121H138.495C141.73 138.121 143.827 139.959 143.827 142.216ZM145.544 148.746V146.629C145.544 143.554 146.583 142.415 149.618 142.415H150.996C154.032 142.415 155.071 143.554 155.071 146.629V148.746C155.071 151.822 154.032 152.96 150.996 152.96H149.618C146.583 152.96 145.544 151.822 145.544 148.746ZM150.118 144.872C148.959 144.872 148.879 145.371 148.879 146.869V148.507C148.879 150.025 148.959 150.504 150.118 150.504H150.517C151.675 150.504 151.735 150.005 151.735 148.507V146.869C151.735 145.351 151.675 144.872 150.517 144.872H150.118ZM156.715 148.746V146.629C156.715 143.554 157.753 142.415 160.789 142.415H162.167C165.203 142.415 166.241 143.554 166.241 146.629V148.746C166.241 151.822 165.203 152.96 162.167 152.96H160.789C157.753 152.96 156.715 151.822 156.715 148.746ZM161.288 144.872C160.13 144.872 160.05 145.371 160.05 146.869V148.507C160.05 150.025 160.13 150.504 161.288 150.504H161.688C162.846 150.504 162.906 150.005 162.906 148.507V146.869C162.906 145.351 162.846 144.872 161.688 144.872H161.288ZM173.977 138.301H177.253V152.821H174.077L174.117 151.363C173.538 152.481 172.679 152.96 171.301 152.96C168.924 152.96 167.886 151.602 167.886 148.746V146.629C167.886 143.773 168.924 142.415 171.301 142.415C172.619 142.415 173.538 142.915 173.977 143.833V138.301ZM173.977 146.909C173.977 145.591 173.877 144.992 172.799 144.992H172.419C171.341 144.992 171.221 145.591 171.221 146.909V148.487C171.221 149.805 171.341 150.404 172.419 150.404H172.799C173.877 150.404 173.977 149.805 173.977 148.487V146.909ZM190.464 152.821H186.749V138.301H192.541L197.055 149.086V138.301H200.77V152.821H194.978L190.464 141.936V152.821ZM206.234 146.07V146.529H209.29V146.17C209.29 144.852 209.05 144.472 207.972 144.472H207.552C206.494 144.472 206.234 144.852 206.234 146.07ZM209.23 149.685H212.445C212.285 152.042 211.067 152.96 208.411 152.96H207.033C203.997 152.96 202.959 151.822 202.959 148.746V146.629C202.959 143.554 203.997 142.415 207.033 142.415H208.411C211.447 142.415 212.485 143.554 212.485 146.629V148.247H206.234V149.505C206.234 150.464 206.594 150.763 207.532 150.763H207.952C208.81 150.763 209.15 150.524 209.23 149.685ZM219.902 152.821H215.348L213.671 142.555H216.946L217.825 150.224L219.243 142.555H223.117L224.555 150.184L225.394 142.555H228.649L226.952 152.821H222.478L221.18 145.711L219.902 152.821ZM229.725 150.025V149.885H233.101C233.22 150.704 233.58 150.883 234.459 150.883H234.898C235.877 150.883 236.236 150.664 236.236 149.885C236.236 149.126 235.917 148.946 234.858 148.846L232.761 148.646C230.924 148.467 229.845 147.388 229.845 145.99V145.171C229.845 143.394 231.143 142.415 233.68 142.415H235.697C238.034 142.415 239.192 143.314 239.192 145.092V145.311H235.957C235.937 144.732 235.537 144.472 234.718 144.472H234.299C233.4 144.472 233.061 144.752 233.061 145.451C233.061 146.05 233.32 146.25 234.019 146.31L236.336 146.529C238.453 146.729 239.492 147.508 239.492 149.026V149.905C239.492 151.782 238.133 152.96 235.817 152.96H233.64C231.004 152.96 229.725 152.022 229.725 150.025ZM255.167 152.821H251.233V141.537H247.498V138.301H258.882V141.537H255.167V152.821ZM261.25 146.07V146.529H264.305V146.17C264.305 144.852 264.066 144.472 262.987 144.472H262.568C261.509 144.472 261.25 144.852 261.25 146.07ZM264.245 149.685H267.461C267.301 152.042 266.083 152.96 263.427 152.96H262.049C259.013 152.96 257.974 151.822 257.974 148.746V146.629C257.974 143.554 259.013 142.415 262.049 142.415H263.427C266.462 142.415 267.501 143.554 267.501 146.629V148.247H261.25V149.505C261.25 150.464 261.609 150.763 262.548 150.763H262.967C263.826 150.763 264.166 150.524 264.245 149.685ZM273 152.821H269.685V138.301H273V152.821ZM281.542 142.555H284.798V152.821H281.642L281.682 151.363C281.083 152.521 280.204 152.96 278.766 152.96C276.17 152.96 275.511 151.982 275.511 149.246V142.555H278.766V148.507C278.766 150.044 279.006 150.284 280.224 150.284C281.422 150.284 281.542 149.705 281.542 148.327V142.555ZM292.996 142.555H296.252V152.161C296.252 153.799 296.152 154.898 295.273 155.756C294.694 156.316 293.556 156.755 292.297 156.755H291.179C288.662 156.755 287.364 155.836 287.364 154.099V153.52H290.5C290.5 154.199 290.76 154.418 291.479 154.418H291.958C292.956 154.418 293.136 153.919 293.136 152.661V151.163C292.657 152.181 291.758 152.581 290.22 152.581C287.924 152.581 286.905 151.343 286.905 148.686V146.629C286.905 143.773 287.924 142.415 290.3 142.415C291.618 142.415 292.557 142.915 292.996 143.833V142.555ZM291.479 144.992C290.34 144.992 290.22 145.591 290.22 146.909V148.487C290.22 149.805 290.34 150.404 291.479 150.404H291.878C293.016 150.404 293.136 149.785 293.136 148.487V146.909C293.136 145.611 293.016 144.992 291.878 144.992H291.479ZM304.859 142.555H308.115V152.821H304.959L304.999 151.363C304.4 152.521 303.521 152.96 302.083 152.96C299.487 152.96 298.828 151.982 298.828 149.246V142.555H302.083V148.507C302.083 150.044 302.323 150.284 303.541 150.284C304.739 150.284 304.859 149.705 304.859 148.327V142.555ZM325.293 147.228H329.247V147.648C329.247 151.462 327.669 153 323.915 153H322.597C318.422 153 317.044 151.403 317.044 147.069V144.053C317.044 139.719 318.422 138.121 322.597 138.121H323.675C327.749 138.121 329.147 139.46 329.147 143.334V143.614H325.273V143.354C325.273 141.996 324.694 141.537 323.216 141.537C321.298 141.537 321.119 142.216 321.119 144.373V146.769C321.119 148.926 321.298 149.585 323.216 149.585C324.753 149.585 325.293 149.106 325.293 147.568V147.228ZM334.621 152.821H331.365V138.301H334.621V144.013C334.9 142.975 335.839 142.415 337.397 142.415C339.993 142.415 340.652 143.414 340.652 146.15V152.821H337.397V146.869C337.397 145.331 337.157 145.092 335.939 145.092C334.74 145.092 334.621 145.691 334.621 147.069V152.821ZM349.172 142.555H352.427V152.821H349.272L349.312 151.363C348.713 152.521 347.834 152.96 346.396 152.96C343.8 152.96 343.141 151.982 343.141 149.246V142.555H346.396V148.507C346.396 150.044 346.636 150.284 347.854 150.284C349.052 150.284 349.172 149.705 349.172 148.327V142.555ZM358.25 152.821H354.994V142.555H358.15L358.11 144.013C358.629 142.875 359.368 142.415 360.606 142.415C362.823 142.415 363.362 143.474 363.362 146.15V147.069H360.307V146.41C360.307 145.391 360.027 145.092 359.288 145.092C358.309 145.092 358.25 145.671 358.25 147.069V152.821ZM370.629 148.766H373.904C373.904 148.846 373.909 148.926 373.914 149.006C373.919 149.086 373.924 149.166 373.924 149.246C373.924 151.962 372.726 152.96 369.83 152.96H368.452C365.417 152.96 364.378 151.822 364.378 148.746V146.629C364.378 143.554 365.417 142.415 368.452 142.415H369.83C372.726 142.415 373.904 143.414 373.904 146.09V146.37H370.629V146.27C370.629 145.211 370.33 144.872 369.391 144.872H368.952C367.793 144.872 367.713 145.371 367.713 146.869V148.507C367.713 150.025 367.793 150.504 368.952 150.504H369.391C370.35 150.504 370.629 150.144 370.629 149.006V148.766ZM379.265 152.821H376.01V138.301H379.265V144.013C379.545 142.975 380.483 142.415 382.041 142.415C384.637 142.415 385.296 143.414 385.296 146.15V152.821H382.041V146.869C382.041 145.331 381.801 145.092 380.583 145.092C379.385 145.092 379.265 145.691 379.265 147.069V152.821Z" fill="#2F2760"/>
<path fill-rule="evenodd" clip-rule="evenodd" d="M69.4017 239.231C62.6024 239.983 57.3195 233.231 59.77 226.844L115.02 82.8412L112.639 87.8645C110.823 91.6962 106.962 94.1388 102.722 94.1388H91.1752C86.9988 94.1388 83.1843 96.5092 81.335 100.254L1.14861 262.617C-2.45364 269.911 2.85386 278.452 10.9888 278.452H225.898C229.196 278.452 231.87 281.125 231.87 284.423C231.87 287.721 234.543 290.395 237.841 290.395H254.465H262.535H279.158C282.456 290.395 285.13 287.721 285.13 284.423C285.13 281.125 287.803 278.452 291.101 278.452H506.011C514.146 278.452 519.453 269.911 515.851 262.617L435.665 100.254C433.815 96.5093 430.001 94.1388 425.824 94.1388H414.278C410.038 94.1388 406.177 91.6962 404.361 87.8645L401.98 82.8412L457.23 226.845C459.68 233.231 454.398 239.983 447.599 239.232L447.598 239.231L447.596 239.231C425.635 236.803 400.174 233.988 345.169 219.058C322.507 212.907 300.35 216.994 281.221 228.198C273.634 232.641 262.981 228.642 261.78 219.932L258.649 197.222C258.588 196.731 257.877 196.731 257.816 197.222L254.724 219.65C253.527 228.332 242.937 232.339 235.352 227.949C216.32 216.934 194.324 212.953 171.831 219.058C116.826 233.988 91.3642 236.803 69.4033 239.231H69.4032L69.4017 239.231ZM254.465 266.508C253.876 266.508 253.348 266.17 253.089 265.64C247.128 253.469 226.544 231.174 187.97 232.938C168.986 233.807 158.778 237.156 146.822 241.078C129.358 246.807 108.166 253.759 50.4479 255.993C42.3028 256.308 36.8101 247.849 40.3013 240.483L102.049 110.208C103.952 106.192 101.023 101.563 96.5793 101.563C94.2395 101.563 92.1093 102.912 91.1084 105.026L22.2916 250.434C19.0369 257.311 23.6142 264.823 31.2225 264.849C40.5876 264.881 54.7348 264.823 75.3169 264.572C102.323 264.242 126.893 257.697 148.898 251.834L148.898 251.834C170.027 246.205 188.792 241.206 205.078 242.945C225.482 245.124 236.68 257.7 241.76 267.908C244.06 272.53 248.464 276.192 253.627 276.192H254.465H262.535H263.373C268.536 276.192 272.94 272.53 275.24 267.908C280.32 257.7 291.517 245.124 311.921 242.945C328.208 241.206 346.972 246.205 368.102 251.834C390.107 257.697 414.677 264.242 441.683 264.572C462.265 264.823 476.412 264.881 485.777 264.849C493.385 264.823 497.963 257.311 494.708 250.434L425.891 105.026C424.89 102.912 422.76 101.563 420.42 101.563C415.976 101.563 413.048 106.192 414.951 110.208L476.698 240.483C480.189 247.849 474.697 256.308 466.552 255.993C408.834 253.759 387.641 246.807 370.178 241.078C358.222 237.156 348.014 233.807 329.029 232.938C290.456 231.174 269.871 253.469 263.911 265.64C263.652 266.17 263.124 266.508 262.535 266.508H254.465Z" fill="#2F2760"/>
</svg>
