<svg width="76" height="76" viewBox="0 0 76 76" fill="none" xmlns="http://www.w3.org/2000/svg">
<path d="M13.8835 70.4282V62.9282C12.3835 63.0949 9.28345 62.4282 8.88345 58.4282C8.48345 54.4282 8.71679 41.4282 8.88345 35.4282M8.88345 35.4282C8.21678 34.2616 7.28343 31.5282 8.88345 29.9282C10.4835 28.3282 13.8835 26.9282 15.3835 26.4282C16.4668 27.0949 17.8918 28.3449 18.646 29.9282M8.88345 35.4282C10.5501 37.0949 14.6835 39.4282 17.8835 35.4282C19.4835 33.4282 19.4002 31.5116 18.646 29.9282M18.646 29.9282H36.3835C36.7955 30.1858 37.3349 30.5992 37.8835 31.1421M40.3835 43.9282C40.3835 40.254 40.3835 37.4478 40.3835 36.4282C40.3835 34.2171 39.1103 32.3561 37.8835 31.1421M40.3835 43.9282C40.3835 51.7861 40.3835 63.6144 40.3835 70.4282V43.9282ZM33.8835 43.9282V70.4282M37.8835 31.1421C37.3835 30.0708 37.4835 27.9282 41.8835 27.9282C46.2835 27.9282 53.7168 27.9282 56.8835 27.9282M56.8835 27.9282C57.0502 26.0949 58.3835 22.8282 62.3835 24.4282C67.3835 26.4282 68.3835 27.4282 68.3835 29.9282C68.3835 31.7445 67.0639 33.8247 65.3835 34.8267M56.8835 27.9282C56.8835 31.4282 60.8835 35.4282 63.3835 35.4282C64.0672 35.4282 64.7509 35.2039 65.3835 34.8267M65.3835 34.8267V59.9283C65.3835 60.9283 64.3835 62.9282 60.3835 62.9282V70.4282" stroke="#2F2760" stroke-width="1.5"/>
<circle cx="8.5" cy="8.5" r="8.5" transform="matrix(1 0 0 -1 42 22)" stroke="#2F2760" stroke-width="1.5"/>
<circle cx="8.5" cy="8.5" r="8.5" transform="matrix(1 0 0 -1 16 26)" stroke="#2F2760" stroke-width="1.5"/>
</svg>
