<svg width="76" height="76" viewBox="0 0 76 76" fill="none" xmlns="http://www.w3.org/2000/svg">
<path d="M4.24265 69C4.54657 66.4167 6.97794 61.3412 14.2721 61.7059C21.5662 62.0706 23.6936 66.7206 23.8456 69M20.6544 52.5882C20.6544 56.1131 17.7969 58.9706 14.2721 58.9706C10.7472 58.9706 7.8897 56.1131 7.8897 52.5882C7.8897 49.0634 10.7472 46.2059 14.2721 46.2059C17.7969 46.2059 20.6544 49.0634 20.6544 52.5882Z" stroke="#2F2760" stroke-width="1.5"/>
<path d="M27.9485 69C28.2525 66.4167 30.6838 61.3412 37.9779 61.7059C45.2721 62.0706 47.3995 66.7206 47.5515 69M44.3603 52.5882C44.3603 56.1131 41.5028 58.9706 37.9779 58.9706C34.4531 58.9706 31.5956 56.1131 31.5956 52.5882C31.5956 49.0634 34.4531 46.2059 37.9779 46.2059C41.5028 46.2059 44.3603 49.0634 44.3603 52.5882Z" stroke="#2F2760" stroke-width="1.5"/>
<path d="M51.6544 69C51.9583 66.4167 54.3897 61.3412 61.6838 61.7059C68.9779 62.0706 71.1054 66.7206 71.2574 69M68.0662 52.5882C68.0662 56.1131 65.2087 58.9706 61.6838 58.9706C58.1589 58.9706 55.3015 56.1131 55.3015 52.5882C55.3015 49.0634 58.1589 46.2059 61.6838 46.2059C65.2087 46.2059 68.0662 49.0634 68.0662 52.5882Z" stroke="#2F2760" stroke-width="1.5"/>
<path d="M27.9485 29.7941C28.2029 27.6319 29.9477 23.7237 34.7868 22.721C35.7292 22.5257 37.2448 25.1758 38.4338 25.2353C39.6323 25.2952 41.1472 22.4592 42.0809 22.721C46.8296 24.0524 48.3362 27.6129 48.4632 29.5177M44.3603 13.3824C44.3603 16.9072 41.5028 19.7647 37.9779 19.7647C34.4531 19.7647 31.5956 16.9072 31.5956 13.3824C31.5956 9.85748 34.4531 7 37.9779 7C41.5028 7 44.3603 9.85748 44.3603 13.3824Z" stroke="#2F2760" stroke-width="1.5"/>
<path d="M50.7427 53.9559V41.1912H53.9338L56.6691 33.4412H20.1985L22.0221 41.1912H25.2132V53.9559M28.8603 38.4559H48.4632" stroke="#2F2760" stroke-width="1.5"/>
</svg>
