<svg width="67" height="86" viewBox="0 0 67 86" fill="none" xmlns="http://www.w3.org/2000/svg">
<mask id="path-1-inside-1_1411_1208" fill="white">
<path fill-rule="evenodd" clip-rule="evenodd" d="M25.4104 42.57L22.1795 39.3391H1.16833V23.1777H15.5127C16.032 21.9685 16.7853 20.8357 17.7726 19.8483C19.8797 17.7412 22.6489 16.7001 25.4104 16.7248V0.551758H41.5718V16.7887C43.8983 17.0448 46.1567 18.0645 47.9404 19.8483C48.9278 20.8357 49.6812 21.9685 50.2004 23.1777H65.8138V39.3391H43.5336L41.5718 41.3008V84.5909H25.4104V42.57ZM29.3269 30.8812C28.0571 29.6114 28.0754 27.5343 29.3679 26.2419C30.6603 24.9494 32.7374 24.9311 34.0072 26.2009C35.2996 24.9085 37.3767 24.8901 38.6465 26.1599C39.9164 27.4297 39.898 29.5068 38.6056 30.7992L33.9252 35.4795L29.3269 30.8812Z"/>
</mask>
<path d="M22.1795 39.3391L23.8519 37.6667L23.1592 36.974H22.1795V39.3391ZM25.4104 42.57H27.7755V41.5903L27.0828 40.8976L25.4104 42.57ZM1.16833 39.3391H-1.19674V41.7041H1.16833V39.3391ZM1.16833 23.1777V20.8126H-1.19674V23.1777H1.16833ZM15.5127 23.1777V25.5428H17.071L17.6859 24.1109L15.5127 23.1777ZM17.7726 19.8483L16.1002 18.176L16.1002 18.1761L17.7726 19.8483ZM25.4104 16.7248L25.3893 19.0898L27.7755 19.1111V16.7248H25.4104ZM25.4104 0.551758V-1.81332H23.0453V0.551758H25.4104ZM41.5718 0.551758H43.9369V-1.81332H41.5718V0.551758ZM41.5718 16.7887H39.2067V18.9077L41.313 19.1396L41.5718 16.7887ZM47.9404 19.8483L46.268 21.5207L46.2681 21.5207L47.9404 19.8483ZM50.2004 23.1777L48.0272 24.1109L48.6421 25.5428H50.2004V23.1777ZM65.8138 23.1777H68.1789V20.8126H65.8138V23.1777ZM65.8138 39.3391V41.7041H68.1789V39.3391H65.8138ZM43.5336 39.3391V36.974H42.5539L41.8612 37.6667L43.5336 39.3391ZM41.5718 41.3008L39.8994 39.6285L39.2067 40.3212V41.3008H41.5718ZM41.5718 84.5909V86.956H43.9369V84.5909H41.5718ZM25.4104 84.5909H23.0453V86.956H25.4104V84.5909ZM34.0072 26.2009L32.3348 27.8732L34.0072 29.5456L35.6796 27.8732L34.0072 26.2009ZM38.6465 26.1599L36.9742 27.8323L36.9742 27.8323L38.6465 26.1599ZM38.6056 30.7992L36.9332 29.1269L36.9332 29.1269L38.6056 30.7992ZM33.9252 35.4795L32.2529 37.1519L33.9252 38.8243L35.5976 37.1519L33.9252 35.4795ZM20.5071 41.0114L23.738 44.2423L27.0828 40.8976L23.8519 37.6667L20.5071 41.0114ZM1.16833 41.7041H22.1795V36.974H1.16833V41.7041ZM-1.19674 23.1777V39.3391H3.53341V23.1777H-1.19674ZM15.5127 20.8126H1.16833V25.5428H15.5127V20.8126ZM16.1002 18.1761C14.8971 19.3793 13.9753 20.764 13.3396 22.2445L17.6859 24.1109C18.0886 23.1731 18.6736 22.2922 19.4451 21.5206L16.1002 18.1761ZM25.4315 14.3598C22.0617 14.3297 18.6742 15.6019 16.1002 18.176L19.445 21.5207C21.0852 19.8804 23.2362 19.0705 25.3893 19.0898L25.4315 14.3598ZM23.0453 0.551758V16.7248H27.7755V0.551758H23.0453ZM41.5718 -1.81332H25.4104V2.91684H41.5718V-1.81332ZM43.9369 16.7887V0.551758H39.2067V16.7887H43.9369ZM49.6129 18.176C47.4351 15.9982 44.6722 14.7506 41.8305 14.4378L41.313 19.1396C43.1244 19.3389 44.8783 20.1308 46.268 21.5207L49.6129 18.176ZM52.3736 22.2444C51.7378 20.764 50.8161 19.3792 49.6128 18.176L46.2681 21.5207C47.0396 22.2923 47.6245 23.1731 48.0272 24.1109L52.3736 22.2444ZM65.8138 20.8126H50.2004V25.5428H65.8138V20.8126ZM68.1789 39.3391V23.1777H63.4488V39.3391H68.1789ZM43.5336 41.7041H65.8138V36.974H43.5336V41.7041ZM43.2441 42.9732L45.2059 41.0114L41.8612 37.6667L39.8994 39.6285L43.2441 42.9732ZM43.9369 84.5909V41.3008H39.2067V84.5909H43.9369ZM25.4104 86.956H41.5718V82.2258H25.4104V86.956ZM23.0453 42.57V84.5909H27.7755V42.57H23.0453ZM27.6955 24.5695C25.5074 26.7576 25.4333 30.3324 27.6545 32.5536L30.9993 29.2088C30.6808 28.8904 30.6434 28.311 31.0402 27.9142L27.6955 24.5695ZM35.6796 24.5285C33.4584 22.3073 29.8836 22.3814 27.6955 24.5695L31.0402 27.9142C31.437 27.5174 32.0164 27.5548 32.3348 27.8732L35.6796 24.5285ZM40.3189 24.4875C38.0977 22.2664 34.5229 22.3405 32.3348 24.5285L35.6796 27.8732C36.0764 27.4764 36.6557 27.5138 36.9742 27.8323L40.3189 24.4875ZM40.2779 32.4716C42.466 30.2835 42.5401 26.7087 40.3189 24.4875L36.9742 27.8323C37.2926 28.1507 37.33 28.7301 36.9332 29.1269L40.2779 32.4716ZM35.5976 37.1519L40.2779 32.4716L36.9332 29.1269L32.2529 33.8072L35.5976 37.1519ZM27.6545 32.5536L32.2529 37.1519L35.5976 33.8072L30.9993 29.2088L27.6545 32.5536Z" fill="#2F2760" mask="url(#path-1-inside-1_1411_1208)"/>
</svg>
