<svg width="76" height="76" viewBox="0 0 76 76" fill="none" xmlns="http://www.w3.org/2000/svg">
<path d="M20.8268 53.7803C19.1855 51.1735 20.3523 47.599 22.1241 41.407C24.1999 34.1529 27.8901 29.4607 29.4757 28.0214C32.0354 28.5161 36.5723 28.6991 41.1517 27.4017M20.8268 53.7803C21.589 54.991 22.9569 55.993 25.1512 56.9515C30.6866 59.3696 33.8001 60.8377 34.665 61.2695H20.8268C20.1111 61.5871 19.0796 62.3164 18.4727 63.4284M20.8268 53.7803H17.7997C14.7888 55.9888 10.7082 61.0104 18.4727 63.4284M18.4727 63.4284C17.9795 64.3323 17.7668 65.4889 18.2321 66.8828C19.27 69.9917 20.5 69.9053 21.2592 69.9053H45.0438C47.0618 69.4735 50.5791 67.1419 48.5033 61.2695L34.665 49.6111L40.7193 36.6573C45.1879 35.218 54.99 30.9576 58.4496 25.4307C62.774 18.522 64.5038 15.9312 61.4767 14.6358C59.736 13.8909 58.9962 13.2888 57.2017 14.6358M57.2017 14.6358C55.8756 15.6313 53.9734 17.6912 50.6656 21.5445C48.0054 24.6433 44.5667 26.4341 41.1517 27.4017M57.2017 14.6358C56.1762 12.333 53.1737 9.45433 49.3682 16.363C44.6113 24.9989 45.4762 24.6229 41.1517 27.4017M44.1788 15.0677C44.1788 20.0756 40.113 24.1353 35.0975 24.1353C30.082 24.1353 26.0161 20.0756 26.0161 15.0677C26.0161 10.0597 30.082 6 35.0975 6C40.113 6 44.1788 10.0597 44.1788 15.0677Z" stroke="#2F2760" stroke-width="1.5"/>
</svg>
