<svg width="50" height="50" viewBox="0 0 50 50" fill="none" xmlns="http://www.w3.org/2000/svg">
<path d="M0.5 11.9933V49.5H38.5067L49.5 38.5067V0.5H11.9933L0.5 11.9933Z" stroke="#101010"/>
<path d="M36.3733 35.16L31.0267 33.3333L29.1867 38.6667L25.08 30.6667L21.1867 38.6667L19.3467 33.3333L14 35.16L17.8933 27.16C16.6133 25.56 15.8533 23.5333 15.8533 21.3333C15.8533 18.858 16.8367 16.484 18.587 14.7337C20.3373 12.9833 22.7113 12 25.1867 12C27.662 12 30.036 12.9833 31.7863 14.7337C33.5367 16.484 34.52 18.858 34.52 21.3333C34.52 23.5333 33.76 25.56 32.48 27.16L36.3733 35.16ZM18.52 21.3333L22.1067 23.12L21.8533 27.12L25.1867 24.9067L28.52 27.1067L28.2933 23.12L31.8533 21.3333L28.28 19.5333L28.52 15.56L25.1867 17.7467L21.8533 15.5333L22.08 19.5467L18.52 21.3333Z" fill="#101010"/>
</svg>
