<svg width="76" height="76" viewBox="0 0 76 76" fill="none" xmlns="http://www.w3.org/2000/svg">
<path d="M18.3091 31.4363H13.9333L9.12 46.3139H12.183M18.3091 31.4363V23.1224M18.3091 31.4363H30.1236M18.3091 23.1224H30.1236M18.3091 23.1224L24.4351 9.99512L30.1236 23.1224M30.1236 23.1224V31.4363M30.1236 31.4363H63.3794L66.88 46.3139H64.6921M12.183 46.3139V66.0048H9.12H64.6921M12.183 46.3139H64.6921M66.88 66.0048H64.6921M64.6921 66.0048V46.3139M20.497 61.1915H27.0606V52.8775C27.0606 52.8775 25.3103 50.2521 23.56 50.2521C21.9845 50.2521 20.497 52.8775 20.497 52.8775V61.1915ZM34.937 61.1915H41.5006V52.8775C41.5006 52.8775 39.7503 50.2521 38 50.2521C36.4245 50.2521 34.937 52.8775 34.937 52.8775V61.1915ZM49.377 61.6291H55.9406V53.3151C55.9406 53.3151 54.1903 50.6897 52.44 50.6897C50.8645 50.6897 49.377 53.3151 49.377 53.3151V61.6291Z" stroke="#2F2760" stroke-width="1.5"/>
</svg>
