<svg width="1280" height="512" viewBox="0 0 1280 512" fill="none" xmlns="http://www.w3.org/2000/svg">
<g clip-path="url(#clip0_26_96)">
<rect width="1280" height="512" fill="#3B0D80"/>
<g opacity="0.2">
<path d="M1327.09 277.213C1313.51 343.387 1293.51 408.147 1266.89 470.952C1221.47 578.307 1159.1 676.1 1080.87 762.266H1086.74C1163.99 676.426 1225.82 579.285 1270.91 472.69C1294.93 415.862 1313.61 357.512 1327.09 297.967V277.322V277.213Z" fill="#FAFAFA"/>
<path d="M1327.09 -7.9073C1323.94 -57.347 1317.64 -106.135 1308.18 -153.727H1302.64C1315.57 -88.6407 1322.74 -21.5983 1323.72 46.748C1324.59 102.49 1322.2 152.256 1316.66 198.762C1309.16 259.719 1295.69 320.133 1276.35 378.483C1257.22 436.29 1232.34 492.249 1202.46 544.731C1165.51 609.6 1121.07 672.079 1066.63 735.97C1058.92 744.989 1051.2 753.682 1043.38 762.266H1050.77C1057.51 754.768 1064.13 747.162 1070.76 739.447C1125.42 675.339 1169.97 612.534 1207.13 547.447C1237.23 494.639 1262.22 438.354 1281.45 380.222C1300.9 321.546 1314.48 260.697 1321.98 199.414C1324.16 181.702 1325.78 163.665 1326.98 144.867V-7.9073H1327.09Z" fill="#FAFAFA"/>
<path d="M1015.78 762.266C1030.99 745.532 1045.99 727.93 1060.66 709.349C1099.67 660.127 1149.98 593.953 1193.55 518.544C1253.74 414.232 1291.45 295.033 1302.75 173.879C1307.64 120.636 1306.88 68.3711 1305.47 24.2557C1303.51 -36.8105 1297.32 -96.3555 1287.1 -153.727H1281.56C1291.88 -96.3555 1298.08 -36.7019 1300.03 24.473C1301.45 68.3711 1302.21 120.419 1297.32 173.444C1286.12 293.838 1248.64 412.167 1188.88 515.828C1145.41 590.911 1095.21 656.867 1056.42 705.981C1040.66 725.865 1024.69 744.554 1008.39 762.266H1015.78Z" fill="#FAFAFA"/>
<path d="M983.401 762.266C1006.44 737.383 1028.71 710.109 1051.1 679.576L1058.92 668.819C1100.1 612.534 1142.8 554.293 1180.51 490.075C1240.81 387.067 1276.56 268.955 1284.06 148.561C1286.99 99.2299 1284.6 49.7902 1282.32 1.98039C1279.71 -51.9143 1274.28 -103.853 1266.24 -153.619H1259.61C1267.76 -103.745 1273.19 -51.697 1275.8 2.30637C1278.08 50.0075 1280.47 99.2299 1277.54 148.235C1270.15 267.542 1234.62 384.676 1174.86 486.816C1137.26 550.707 1094.78 608.839 1053.59 665.016L1045.77 675.773C1022.3 707.936 998.722 736.513 974.491 762.374H983.401V762.266Z" fill="#FAFAFA"/>
<path d="M951.673 762.266C982.315 730.429 1011.22 693.811 1040.99 649.369C1054.03 629.919 1067.83 610.144 1081.09 591.02C1109.77 549.838 1139.44 507.135 1166.93 461.064C1196.92 410.537 1220.6 355.447 1237.23 297.532C1253.74 240.269 1262.98 181.485 1264.72 123.026C1265.81 83.9093 1263.09 45.5528 1260.26 5.0231C1259.72 -3.45229 1259.07 -11.9277 1258.53 -20.5117C1255.37 -67.5609 1250.81 -111.785 1244.51 -153.727H1237.88C1244.18 -111.676 1248.85 -67.235 1252.01 -20.0771C1252.55 -11.493 1253.2 -3.01765 1253.74 5.45773C1256.57 45.8788 1259.29 84.1266 1258.2 122.809C1256.46 180.724 1247.22 238.965 1230.93 295.685C1214.41 353.166 1190.94 407.604 1161.28 457.695C1133.89 503.549 1104.34 546.144 1075.65 587.217C1062.29 606.34 1048.6 626.116 1035.45 645.675C1004.37 691.855 974.491 729.559 942.437 762.157H951.564L951.673 762.266Z" fill="#FAFAFA"/>
<path d="M921.14 762.266C970.145 714.673 1004.16 664.038 1031.43 619.488C1049.36 590.15 1068.48 562.116 1088.58 532.453C1110.21 500.616 1132.59 467.801 1153.89 432.595C1213.76 333.172 1246.46 214.191 1246.14 97.6003C1245.92 64.6767 1242.77 32.7311 1239.4 -1.17046C1238.1 -14.7528 1236.68 -28.7698 1235.49 -42.8954C1232.12 -82.6645 1228.1 -119.282 1223.32 -153.727H1215.6C1220.39 -119.174 1224.51 -82.2299 1227.88 -42.2435C1229.08 -28.0092 1230.49 -13.9922 1231.8 -0.409836C1235.16 33.2744 1238.31 65.1114 1238.53 97.6003C1238.86 212.779 1206.48 330.347 1147.37 428.683C1126.18 463.672 1103.9 496.486 1082.28 528.215C1062.07 557.987 1042.95 586.13 1024.91 615.576C996.875 661.322 961.561 713.804 910.057 762.266H921.031H921.14Z" fill="#FAFAFA"/>
<path d="M888.977 762.266C891.367 760.092 893.866 758.028 896.257 755.855C950.695 706.849 985.574 653.824 1021.32 589.389C1041.32 553.315 1064.13 519.413 1088.26 483.556C1105.43 458.13 1123.14 431.726 1140.3 403.8C1170.4 354.469 1193.22 300.249 1208.11 242.659C1222.78 185.94 1229.08 128.568 1226.8 72.1739C1225.6 43.3793 1221.91 15.5627 1218 -13.7751C1215.82 -30.3999 1213.43 -47.568 1211.69 -65.1707C1208.54 -95.5951 1205.17 -125.042 1201.26 -153.619H1193.55C1197.46 -124.824 1200.83 -95.0518 1204.09 -64.4101C1205.93 -46.8074 1208.22 -29.5306 1210.5 -12.7972C1214.41 16.432 1218.1 44.0313 1219.19 72.4999C1221.36 128.133 1215.17 184.744 1200.72 240.812C1186.05 297.641 1163.45 351.21 1133.78 399.889C1116.62 427.705 1099.01 454.001 1081.95 479.427C1057.72 515.393 1034.91 549.403 1014.69 585.804C979.272 649.586 944.719 702.069 891.15 750.313C886.586 754.442 881.914 758.462 877.242 762.374H888.977V762.266Z" fill="#FAFAFA"/>
<path d="M854.315 762.266C868.766 751.291 882.675 739.556 895.931 726.951C951.673 674.143 983.51 615.142 1011.33 559.182C1031.75 518.109 1057.07 480.405 1083.8 440.527C1097.93 419.556 1112.49 397.824 1126.72 374.897C1186.59 278.191 1216.15 158.558 1207.56 46.6391C1205.61 20.7783 1201.37 -3.99583 1196.81 -30.2913C1193.66 -48.7632 1190.4 -67.8872 1187.9 -87.5544C1185.07 -110.155 1182.36 -132.104 1179.42 -153.619H1171.71C1174.64 -131.778 1177.47 -109.503 1180.29 -86.5765C1182.79 -66.6919 1186.05 -47.4593 1189.2 -28.8787C1193.66 -2.8006 1197.89 21.8649 1199.85 47.3997C1208.22 157.797 1179.2 275.8 1120.09 371.094C1105.86 393.912 1091.3 415.536 1077.28 436.507C1050.34 476.602 1024.91 514.524 1004.26 556.031C976.773 611.339 945.262 669.797 890.498 721.736C874.851 736.513 858.444 750.096 841.276 762.591H853.989L854.315 762.266Z" fill="#FAFAFA"/>
<path d="M813.785 762.266C843.014 744.12 870.288 722.605 895.279 697.722C946.566 646.653 973.405 590.911 1000.79 528.758C1020.56 483.882 1047.62 443.678 1076.3 401.084C1088.26 383.373 1100.54 365.009 1112.81 345.777C1143.02 297.75 1164.97 244.398 1177.9 187.244C1190.5 131.936 1193.98 74.5647 1187.9 21.1046C1185.18 -2.58302 1180.4 -25.0754 1175.4 -48.8716C1171.27 -68.5389 1166.93 -88.858 1163.88 -109.938C1161.82 -123.846 1159.86 -137.863 1157.91 -151.554C1157.91 -152.315 1157.69 -152.967 1157.58 -153.727H1150.95C1151.06 -152.749 1151.28 -151.663 1151.39 -150.685C1153.34 -137.103 1155.3 -122.977 1157.36 -109.069C1160.52 -87.6628 1164.75 -67.235 1168.99 -47.5677C1173.99 -23.8801 1178.77 -1.49643 1181.38 21.8652C1187.35 74.456 1183.99 131.176 1171.49 185.723C1158.67 242.116 1137.04 294.816 1107.16 342.191C1094.99 361.424 1082.72 379.678 1070.76 397.39C1041.97 440.201 1014.7 480.622 994.702 526.15C967.537 587.76 941.024 642.85 890.607 693.159C863.333 720.323 833.344 743.468 801.072 762.374H813.676L813.785 762.266Z" fill="#FAFAFA"/>
<path d="M762.824 762.266C773.147 757.702 783.361 752.595 793.466 747.053C830.953 726.517 865.072 700.113 894.953 668.711C945.805 615.359 967.537 558.531 990.682 498.442C1008.94 450.958 1036.97 409.56 1066.63 365.661C1077.28 350.015 1088.26 333.824 1099.12 316.765C1159.1 223.21 1185.07 103.142 1168.56 -4.43021C1165.19 -26.3793 1159.97 -47.0244 1154.32 -68.9735C1149.11 -89.2927 1143.78 -110.264 1140.09 -132.43C1138.89 -139.493 1137.7 -146.664 1136.61 -153.836H1129.98C1131.18 -146.338 1132.37 -138.841 1133.68 -131.344C1137.48 -108.96 1142.8 -87.7714 1148.02 -67.3436C1153.56 -45.6119 1158.78 -24.9667 1162.14 -3.45226C1178.44 102.599 1152.8 221.037 1093.69 313.288C1082.82 330.239 1071.85 346.429 1061.31 362.076C1031.43 406.191 1003.18 447.916 984.597 496.16C961.778 555.705 940.155 611.882 890.172 664.255C860.726 695.115 827.041 721.084 790.206 741.295C775.863 749.227 761.086 756.181 745.982 762.157H762.715L762.824 762.266Z" fill="#FAFAFA"/>
<path d="M1327.09 381.417C1316.66 415.101 1304.6 448.351 1290.8 481.057C1247.33 583.957 1188.55 678.273 1115.53 762.266H1121.29C1193.44 678.599 1251.57 584.826 1294.82 482.687C1306.88 454.11 1317.64 425.098 1327.2 395.869V381.417H1327.09Z" fill="#FAFAFA"/>
<path d="M1327.09 463.454C1323.39 472.907 1319.59 482.252 1315.68 491.597C1274.06 589.933 1218.86 680.663 1150.95 762.266H1155.19C1222.45 680.88 1277.32 590.585 1318.61 492.792C1321.55 485.946 1324.26 479.101 1326.98 472.255V463.345L1327.09 463.454Z" fill="#FAFAFA"/>
<path style="mix-blend-mode:overlay" opacity="0.5" d="M1315.68 -131.452H11.775V737.817H1315.68V-131.452Z" fill="url(#paint0_radial_26_96)"/>
<mask id="mask0_26_96" style="mask-type:luminance" maskUnits="userSpaceOnUse" x="11" y="-132" width="1305" height="870">
<path d="M1315.68 -131.452H11.775V737.817H1315.68V-131.452Z" fill="white"/>
</mask>
<g mask="url(#mask0_26_96)">
<path d="M178.566 688.921C188.02 690.008 197.799 690.986 207.143 691.855C223.986 693.485 241.371 695.223 258.648 697.614C300.807 703.481 346.009 712.826 396.753 726.408C410.77 730.103 424.57 734.34 437.826 738.361C459.232 744.88 479.442 750.965 500.848 755.529C513.996 758.354 527.035 760.527 540.182 762.266H662.532C665.792 761.831 669.052 761.396 672.311 760.853C715.449 754.116 756.848 739.882 795.313 718.476C832.257 697.94 865.507 671.427 894.301 639.59C940.807 587.977 958.736 533.322 977.751 475.515L980.142 468.235C996.658 418.144 1025.56 375.767 1056.31 330.891C1065.76 317.091 1075.54 302.748 1085.32 287.753C1145.74 194.85 1169.53 76.1946 1148.89 -29.7477C1144.87 -50.1755 1139.11 -69.4081 1133.02 -89.8359C1126.83 -110.264 1120.53 -131.344 1116.18 -153.836H1110.64C1110.64 -153.836 1110.64 -153.836 1110.64 -153.727C1115.1 -130.692 1121.51 -109.177 1127.81 -88.3147C1133.89 -68.1042 1139.65 -48.9803 1143.56 -28.7698C1153.34 21.6479 1153.02 76.8465 1142.48 130.85C1131.72 186.049 1110.31 239.291 1080.76 284.711C1070.98 299.706 1061.31 313.94 1051.86 327.74C1021 372.942 991.768 415.644 975.035 466.497L972.644 473.777C953.846 531.04 936.026 585.261 890.281 635.896C861.921 667.298 829.106 693.485 792.705 713.695C754.783 734.775 714.036 748.792 671.551 755.42C616.135 764.004 559.198 762.266 502.043 750.096C480.855 745.641 460.753 739.556 439.456 733.036C426.091 729.016 412.291 724.778 398.165 721.084C347.205 707.502 301.894 698.048 259.408 692.181C242.023 689.79 224.529 688.052 207.687 686.313C198.342 685.335 188.563 684.466 179.109 683.38C124.454 677.186 56.4338 669.58 -3.65448 649.913C-5.93632 649.152 -8.32681 648.391 -10.6086 647.522V653.281C-8.8701 653.824 -7.13156 654.476 -5.39302 655.02C55.1299 674.795 123.476 682.51 178.458 688.704L178.566 688.921Z" fill="#FAFAFA"/>
<path d="M1129.66 -55.2825C1125.09 -74.5151 1118.79 -92.5524 1112.16 -111.568C1107.38 -125.259 1102.49 -139.276 1098.25 -153.836H1092.6C1096.95 -138.624 1102.06 -124.063 1106.95 -109.829C1113.57 -90.9225 1119.77 -72.9939 1124.33 -54.0872C1136.07 -4.86484 1137.15 49.5732 1127.48 103.359C1117.59 158.232 1096.84 210.931 1067.18 255.807C1058.38 269.172 1049.47 281.994 1040.99 294.381C1007.96 342.191 979.49 383.481 964.821 436.507C963.517 441.179 962.213 445.96 961.018 450.633C946.131 505.722 932.006 557.77 889.846 607.101C833.887 672.405 757.5 714.673 674.702 726.082C619.829 733.58 563.653 730.211 507.693 715.868C487.918 710.761 469.12 704.242 449.344 697.396C435.544 692.615 421.201 687.617 406.532 683.162C357.636 668.385 313.412 658.497 271.469 652.846C252.78 650.347 234.091 648.826 215.945 647.305C208.339 646.653 200.515 646.001 192.909 645.349L186.281 644.697C127.388 639.373 66.539 633.722 10.5798 616.446C3.4083 614.164 -3.65452 611.773 -10.3914 609.274V615.033C51.4355 637.851 120.977 644.262 185.846 650.13L192.474 650.782C200.081 651.434 208.013 652.086 215.619 652.738C233.656 654.259 252.345 655.78 270.817 658.279C312.434 663.821 356.332 673.709 405.011 688.378C419.571 692.833 433.914 697.722 447.605 702.503C467.598 709.458 486.396 715.977 506.39 721.084C543.551 730.537 580.712 735.318 617.656 735.318C654.6 735.318 656.339 734.014 675.462 731.407C759.564 719.889 837.147 676.969 893.975 610.578C937.004 560.269 951.13 507.678 966.233 452.045C967.537 447.373 968.732 442.592 970.036 437.919C984.379 385.763 1012.63 344.799 1045.34 297.424C1053.92 285.037 1062.72 272.215 1071.63 258.85C1101.62 213.431 1122.81 159.97 1132.81 104.337C1142.59 49.8992 1141.39 -5.29947 1129.55 -55.2825H1129.66Z" fill="#FAFAFA"/>
<path d="M1109.77 -80.6C1104.66 -98.8546 1097.49 -116.566 1090.65 -133.625C1088.04 -140.254 1085.32 -146.99 1082.72 -153.727H1078.04C1080.87 -146.339 1083.8 -139.167 1086.63 -131.996C1093.8 -114.176 1100.54 -97.3334 1105.64 -79.4047C1119.22 -31.2689 1121.83 22.4085 1113.14 75.9772C1104.23 130.633 1083.8 183.006 1054.14 227.23C1045.99 239.4 1037.84 251.135 1029.91 262.327C996.332 310.354 967.32 351.753 955.259 406.734C953.846 413.254 952.433 419.991 951.021 426.402C939.72 479.862 928.963 530.279 889.846 578.741C835.951 645.349 760.651 687.509 677.962 697.288C624.284 703.699 567.347 698.483 513.126 682.184C494.437 676.534 476.834 669.58 458.254 662.191C444.128 656.649 429.568 650.782 414.464 645.675C367.415 629.702 324.495 619.271 283.204 613.947C263.537 611.339 243.87 610.144 224.855 608.948C218.661 608.514 212.468 608.188 206.383 607.753C201.059 607.427 195.626 606.992 190.193 606.666C123.259 602.103 50.8922 597.213 -10.6086 571.026V575.807C51.1095 601.56 123.15 606.449 189.867 611.013C195.3 611.339 200.733 611.773 206.057 612.099C212.142 612.534 218.335 612.969 224.529 613.295C243.544 614.49 263.103 615.685 282.553 618.293C323.517 623.617 366.111 633.94 412.943 649.804C427.938 654.911 442.498 660.67 456.515 666.211C475.204 673.6 492.916 680.663 511.714 686.313C551.266 698.157 592.339 704.242 632.542 704.242C672.746 704.242 663.293 703.373 678.288 701.525C762.063 691.529 838.342 648.935 892.997 581.458C932.766 532.235 943.632 481.274 955.041 427.271C956.454 420.86 957.866 414.232 959.279 407.604C971.231 353.492 999.917 312.419 1033.28 264.826C1041.21 253.526 1049.36 241.899 1057.51 229.621C1087.6 184.853 1108.25 131.936 1117.16 76.6292C1125.96 22.5172 1123.35 -31.9209 1109.55 -80.6H1109.77Z" fill="#FAFAFA"/>
<path d="M1090.54 -106.026C1085.11 -122.434 1077.93 -138.406 1070.98 -153.727H1066.2C1073.81 -137.211 1080.87 -121.456 1086.41 -104.614C1101.95 -57.673 1105.97 -4.75618 1098.25 48.4866C1090.32 102.816 1070.44 154.646 1040.56 198.436C1032.84 209.736 1025.23 220.493 1017.85 230.925C983.836 278.843 954.498 320.242 945.045 376.962C943.741 385.003 942.437 393.261 941.242 401.193C933.31 453.24 925.812 502.463 889.411 550.164C837.581 617.967 763.585 659.909 681.113 668.059C627.87 673.383 571.693 666.429 518.777 648.065C501.065 641.872 484.44 634.483 466.946 626.66C452.712 620.249 438.043 613.729 422.722 607.862C377.955 590.911 335.035 579.719 295.266 574.721C274.838 572.113 254.41 571.244 234.634 570.483C229.744 570.266 224.963 570.048 220.182 569.831C212.359 569.505 204.536 569.179 196.604 568.853C126.736 565.919 50.7835 562.768 -10.5 531.801V536.69C51.1095 567.006 126.845 570.157 196.386 573.091C204.318 573.417 212.25 573.743 219.965 574.069C224.746 574.286 229.636 574.503 234.417 574.721C254.084 575.59 274.403 576.351 294.614 578.958C334.165 583.957 376.651 594.931 421.092 611.773C436.305 617.532 450.865 624.052 465.099 630.463C481.941 638.069 499.435 645.784 517.364 652.086C559.198 666.537 602.987 674.035 645.799 674.035C657.86 674.035 669.704 673.492 681.547 672.296C765.215 663.93 840.298 621.444 892.889 552.663C929.941 504.093 937.873 452.045 945.588 401.736C946.783 393.804 948.087 385.655 949.391 377.614C958.736 321.872 987.748 280.908 1021.43 233.424C1028.82 222.992 1036.43 212.235 1044.14 200.935C1074.35 156.711 1094.45 104.229 1102.49 49.2472C1110.31 -4.7562 1106.19 -58.3249 1090.54 -105.917V-106.026Z" fill="#FAFAFA"/>
<path d="M1071.31 -131.452C1068.48 -139.058 1065.11 -146.447 1061.74 -153.727H1056.96C1060.66 -145.904 1064.24 -138.08 1067.29 -129.931C1084.67 -84.2944 1090.21 -32.0295 1083.37 20.9959C1076.41 74.9993 1056.96 126.395 1027.08 169.532C1019.8 180.072 1012.52 190.178 1005.46 199.957C971.123 247.658 941.568 288.731 934.94 346.972C933.853 356.317 932.984 365.77 932.114 374.897C927.551 423.685 922.878 474.211 888.977 521.261C864.963 554.51 835.408 581.675 801.181 601.777C765.323 622.857 725.989 635.244 684.264 638.612C631.456 642.85 576.148 634.266 524.318 613.838C507.476 607.101 491.721 599.278 475.096 590.911C460.862 583.739 446.193 576.459 430.872 569.94C387.734 551.685 346.118 540.059 307.109 535.386C286.138 532.779 265.059 532.453 244.739 532.018C241.045 532.018 237.459 531.909 233.873 531.801C224.203 531.583 214.641 531.475 204.536 531.366C130.865 530.388 50.0229 529.301 -10.5 490.945V496.16C50.5662 533.648 131.082 534.734 204.427 535.712C214.532 535.821 224.203 535.93 233.765 536.147C237.351 536.147 241.045 536.256 244.739 536.364C264.95 536.799 285.921 537.125 306.675 539.733C345.249 544.405 386.539 555.923 429.242 573.96C444.454 580.371 459.123 587.76 473.249 594.823C489.221 602.863 505.738 611.121 522.797 617.858C566.478 635.135 612.658 644.045 657.751 644.045C702.844 644.045 675.788 643.719 684.698 642.958C727.075 639.59 766.953 626.986 803.462 605.58C838.233 585.152 868.223 557.661 892.563 523.868C927.116 475.841 931.897 424.772 936.461 375.332C937.33 366.205 938.199 356.751 939.286 347.515C945.805 290.47 975.143 249.723 1009.04 202.565C1016.11 192.785 1023.28 182.68 1030.67 172.14C1060.88 128.459 1080.65 76.4119 1087.71 21.6479C1094.67 -32.1382 1089.02 -85.055 1071.31 -131.344V-131.452Z" fill="#FAFAFA"/>
<path d="M1052.73 -153.727H1049.14C1067.83 -109.612 1074.67 -58.6509 1068.92 -6.49474C1062.94 47.2913 1043.92 98.2523 1013.93 140.955C1006.87 150.952 999.917 160.514 993.181 169.75C958.736 216.908 928.963 257.655 925.269 317.091C924.617 327.414 924.291 337.953 923.965 348.167C922.335 396.303 920.705 445.96 888.977 492.792C866.05 526.585 837.364 553.967 803.462 574.069C768.04 595.149 729.031 607.101 687.524 609.709C635.042 612.969 580.495 602.646 529.751 579.936C513.561 572.656 497.914 563.964 482.811 555.488C468.794 547.665 454.233 539.515 438.912 532.344C397.405 512.894 357.092 500.833 319.062 496.487C301.676 494.422 284.291 494.096 267.34 494.096C250.39 494.096 259.3 494.096 255.388 494.096C252.78 494.096 250.172 494.096 247.564 494.096C236.59 494.096 225.507 494.313 213.772 494.531C134.994 495.834 47.8497 497.356 -10.5 447.264V451.61C48.6103 500.507 135.429 499.094 213.88 497.79C225.615 497.573 236.699 497.356 247.673 497.356C250.281 497.356 252.889 497.356 255.497 497.356C276.142 497.356 297.547 497.138 318.845 499.638C356.549 503.984 396.536 515.936 437.717 535.278C452.929 542.34 467.381 550.49 481.398 558.313C496.61 566.789 512.257 575.59 528.665 582.87C573.758 602.972 621.785 613.512 668.834 613.512C675.245 613.512 681.656 613.295 687.958 612.969C730.009 610.361 769.561 598.3 805.418 576.894C839.646 556.466 868.766 528.758 891.911 494.639C924.074 447.047 925.812 396.846 927.442 348.276C927.768 338.062 928.094 327.522 928.746 317.308C932.332 258.85 960.474 220.385 996.006 171.706C1002.74 162.47 1009.7 152.908 1016.76 142.911C1047.08 99.7735 1066.31 48.3779 1072.28 -5.95143C1078.15 -58.2163 1071.41 -109.177 1052.83 -153.619L1052.73 -153.727Z" fill="#FAFAFA"/>
<path d="M1043.92 -153.727H1040.45C1053.27 -116.892 1057.94 -76.0363 1053.92 -33.9854C1048.92 19.3661 1030.34 69.8924 1000.35 112.052C993.615 121.397 986.987 130.307 980.576 138.891C944.284 187.678 915.598 226.144 915.055 286.993C915.055 298.184 915.272 309.594 915.49 320.677C916.685 368.161 917.989 417.274 888.434 463.889C843.558 534.408 771.408 576.894 690.566 580.262C638.41 582.436 584.733 570.483 535.293 545.6C519.755 537.777 504.868 528.541 490.417 519.522C476.617 510.938 462.274 502.028 447.062 494.205C407.076 473.56 367.958 460.955 330.906 456.935C319.171 455.631 307.327 455.196 295.7 455.196C284.074 455.196 275.816 455.522 266.036 455.848H261.147C249.086 456.391 236.916 456.935 223.986 457.587C138.362 461.824 42.5255 466.497 -10.6086 396.521V401.845C43.8294 469.648 139.123 464.976 224.203 460.738C237.133 460.086 249.303 459.543 261.364 459.108H266.254C287.334 458.347 309.065 457.695 330.688 460.086C367.415 464.106 406.098 476.602 445.758 497.03C460.862 504.853 475.096 513.655 488.896 522.239C503.347 531.257 518.451 540.602 534.098 548.425C580.169 571.57 629.935 583.631 678.831 583.631C727.727 583.631 686.98 583.631 691.001 583.414C773.038 580.045 846.057 537.016 891.585 465.627C921.683 418.252 920.379 368.595 919.075 320.568C918.749 309.485 918.532 298.076 918.641 286.993C919.184 227.122 947.544 188.982 983.51 140.738C989.921 132.154 996.549 123.244 1003.29 113.79C1033.6 71.1963 1052.29 20.1267 1057.4 -33.8767C1061.31 -76.0363 1056.75 -116.892 1044.14 -153.945L1043.92 -153.727Z" fill="#FAFAFA"/>
<path d="M1034.14 -153.727H1030.78C1051.64 -75.7103 1036.1 15.237 986.878 83.1487C980.25 92.1674 973.839 100.751 967.537 109.118C931.136 157.145 902.451 195.067 905.058 257.111C905.602 268.955 906.58 281.234 907.666 293.077C911.687 340.127 915.924 388.806 888.325 435.203C845.622 507.026 774.777 549.186 694.043 550.924C642.213 552.12 589.405 538.429 541.16 511.373C526.165 503.006 511.931 493.227 498.023 483.665C484.44 474.32 470.423 464.758 455.537 456.283C417.072 434.334 379.259 421.295 343.076 417.6C334.057 416.622 325.147 416.296 316.128 416.296C302.98 416.296 289.941 417.057 277.228 417.818H274.946C262.233 418.687 249.086 419.773 235.286 420.969C143.469 428.683 39.3744 437.376 -4.52375 342.408C-6.58827 337.953 -8.54413 333.498 -10.6086 328.935V336.976C-9.63071 339.257 -8.54413 341.539 -7.5662 343.712C12.427 387.067 46.5458 413.037 96.6375 423.25C140.21 432.161 188.671 428.031 235.503 424.12C249.303 422.924 262.342 421.838 275.164 421.077H277.446C298.743 419.665 320.8 418.47 342.75 420.751C378.39 424.446 415.768 437.376 453.907 459.108C468.685 467.583 482.702 477.145 496.176 486.381C510.084 495.943 524.427 505.722 539.53 514.198C586.362 540.385 637.649 554.184 688.067 554.184C690.023 554.184 692.087 554.184 694.043 554.184C775.972 552.446 847.795 509.634 891.15 436.833C919.293 389.458 915.055 340.344 910.926 292.751C909.948 280.908 908.861 268.738 908.318 256.894C905.819 196.045 934.179 158.558 970.145 110.965C976.447 102.707 982.967 94.0146 989.595 84.9959C1039.14 16.4323 1055.01 -75.167 1034.25 -153.836L1034.14 -153.727Z" fill="#FAFAFA"/>
<path d="M1021 -153.727H1018.82C1024.15 -130.148 1026.21 -105.374 1024.8 -80.274C1021.76 -28.2265 1003.72 22.8432 973.948 63.3728C967.429 72.1742 961.018 80.5409 954.824 88.5817C918.532 135.74 889.846 173.118 895.605 235.814C896.8 248.31 898.648 261.24 900.495 273.736C907.34 320.568 914.294 368.921 888.542 415.427C869.201 450.198 842.145 479.101 810.308 498.877C776.406 519.957 738.485 530.714 697.412 530.823H696.977C645.581 530.823 593.643 515.502 546.702 486.381C532.25 477.362 518.451 467.04 505.194 457.043C491.938 447.047 478.356 436.724 463.687 427.597C426.743 404.453 390.342 390.979 355.245 387.502C348.182 386.741 341.12 386.524 334.057 386.524C318.845 386.524 303.741 387.828 289.072 389.132C275.816 390.327 262.125 391.957 247.673 393.695C202.363 399.128 155.639 404.779 113.914 397.281C66.4304 388.806 34.7021 364.14 16.8821 321.872C14.1656 315.352 11.4491 308.616 8.84131 302.096C3.0824 287.644 -2.78517 272.867 -10.0653 258.741V263.522C-3.65444 276.344 1.66983 289.709 6.88545 302.857C9.49326 309.376 12.1011 316.113 14.9262 322.633C33.0722 365.553 65.3438 390.653 113.588 399.346C155.639 406.843 202.58 401.193 247.999 395.76C262.451 394.021 276.142 392.391 289.398 391.196C310.913 389.349 333.079 387.284 355.245 389.566C390.016 393.043 426.091 406.408 462.709 429.335C477.269 438.463 490.851 448.677 504.108 458.673C517.473 468.778 531.272 479.101 545.833 488.12C593.099 517.458 645.473 532.887 697.303 532.887H697.738C739.245 532.887 777.602 522.021 811.829 500.616C844.101 480.514 871.374 451.393 890.824 416.296C917.011 369.138 909.948 320.351 903.103 273.193C901.255 260.697 899.408 247.875 898.213 235.38C892.454 173.444 920.923 136.5 956.997 89.6683C963.191 81.6275 969.602 73.2608 976.121 64.4594C1006.22 23.6038 1024.37 -27.9005 1027.41 -80.274C1028.82 -105.374 1026.76 -130.257 1021.54 -153.836L1021 -153.727Z" fill="#FAFAFA"/>
<path d="M1006.76 -153.727H1004.59C1019.15 -84.729 1004.05 -7.69 960.366 50.7684C953.846 59.3524 947.544 67.5018 941.35 75.3253C904.95 121.723 876.264 158.449 885.391 222.123C887.238 235.162 890.063 248.636 892.671 261.675C902.125 308.181 912.013 356.317 887.999 402.931C869.744 438.137 843.557 467.257 812.155 487.142C778.797 508.222 741.201 518.544 700.345 517.784C635.802 516.697 584.081 490.293 552.026 468.452C538.009 458.89 524.753 447.916 511.931 437.267C499.109 426.619 485.853 415.644 471.619 405.865C436.196 381.526 400.991 367.617 366.98 364.357C361.33 363.814 355.68 363.597 350.03 363.597C333.079 363.597 316.454 365.553 302.437 367.291C288.963 368.921 274.838 371.203 259.843 373.485C217.901 380.113 170.308 387.719 129.996 381.526C84.0331 374.463 53.826 350.666 37.8531 308.616C35.4626 302.205 33.0721 295.685 30.7903 289.274C22.6409 266.456 14.2742 242.768 -0.503398 222.449C-3.54584 218.32 -6.91426 214.3 -10.5 210.388V213.648C-7.56621 216.908 -4.84975 220.276 -2.24194 223.753C12.427 243.855 20.6851 267.325 28.8345 290.035C31.1163 296.446 33.3981 302.965 35.8973 309.376C52.1961 352.188 82.9465 376.527 129.778 383.699C170.525 389.892 218.227 382.395 260.386 375.658C275.381 373.267 289.398 371.094 302.872 369.464C321.452 367.183 344.597 364.466 366.872 366.531C400.556 369.682 435.435 383.481 470.532 407.604C484.658 417.383 497.914 428.249 510.736 438.897C523.558 449.546 536.814 460.52 550.94 470.191C597.228 501.811 648.95 519.087 700.454 519.957C701.975 519.957 703.496 519.957 705.018 519.957C744.569 519.957 780.97 509.525 813.459 488.989C845.187 468.887 871.7 439.441 890.063 403.909C914.512 356.643 904.515 308.181 894.953 261.24C892.345 248.201 889.52 234.728 887.673 221.797C878.654 159.101 907.123 122.7 943.198 76.7378C949.391 68.9144 955.693 60.765 962.213 52.0723C1006.22 -6.71207 1021.43 -84.1857 1006.87 -153.727H1006.76Z" fill="#FAFAFA"/>
<path d="M992.203 -153.727H991.116C994.376 -137.211 995.788 -120.043 995.462 -102.658C994.484 -51.1535 977.316 -1.0618 947.327 38.49C940.916 46.9653 934.505 54.8974 928.42 62.6122C892.128 108.14 863.442 144.106 875.938 208.324C878.546 221.797 882.023 235.162 885.826 249.288C897.996 295.685 910.709 343.712 888.216 390.653C852.359 465.519 783.252 508.33 703.605 505.179C639.496 502.789 588.644 474.32 557.35 450.85C543.768 440.636 531.055 429.118 518.777 417.926C506.281 406.626 493.459 394.999 479.551 384.568C445.758 359.033 411.856 344.69 378.933 341.756C374.369 341.322 369.914 341.213 365.35 341.213C349.16 341.213 332.862 343.495 316.345 345.994C302.763 348.059 288.42 350.992 273.208 354.035C232.352 362.184 185.955 371.42 146.729 366.531C101.962 360.989 73.1672 337.845 58.8242 295.685C56.6511 289.383 54.6952 282.863 52.6307 276.67C45.5679 253.96 38.1791 230.599 23.9448 210.714C15.1434 198.436 3.73428 187.678 -10.3914 178.334V179.638C3.29964 188.874 14.4915 199.414 23.0755 211.366C37.2012 231.033 44.59 254.395 51.6528 276.996C53.6086 283.298 55.6731 289.818 57.8463 296.12C72.4066 338.714 101.418 362.076 146.729 367.726C186.064 372.616 232.57 363.38 273.534 355.23C288.746 352.188 303.089 349.363 316.671 347.298C337.751 344.038 358.396 341.213 379.041 343.06C411.748 345.885 445.432 360.228 479.116 385.655C492.916 396.086 505.738 407.712 518.233 418.904C530.62 430.096 543.333 441.614 556.916 451.828C588.318 475.407 639.279 503.984 703.714 506.374C706.539 506.483 709.255 506.592 712.081 506.592C788.685 506.592 854.532 463.998 889.303 391.305C911.904 344.038 899.191 295.902 887.021 249.179C883.327 235.054 879.741 221.689 877.133 208.215C871.483 178.877 873.873 153.777 884.848 129.22C894.844 106.728 910.926 86.6258 929.398 63.3728C935.483 55.6581 941.894 47.726 948.305 39.2506C978.512 -0.518494 995.68 -50.8275 996.766 -102.549C997.092 -119.934 995.571 -137.103 992.42 -153.619L992.203 -153.727Z" fill="#FAFAFA"/>
<path d="M977.968 -153.727H976.773C979.272 -140.036 980.576 -126.019 980.576 -111.785C980.576 -60.6068 963.951 -10.9497 933.744 28.0587C927.333 36.4255 920.923 44.1402 914.838 51.7464C877.133 98.2523 849.968 131.828 865.724 196.806C869.092 210.605 873.547 224.514 878.22 239.074C893.106 285.363 908.535 333.281 887.673 380.33C871.7 416.514 847.035 446.177 816.61 466.062C784.665 486.924 746.634 496.704 706.648 494.205C656.773 491.271 605.704 470.191 562.783 434.986C549.527 424.011 537.14 411.841 525.187 399.997C513.235 388.154 500.848 375.984 487.592 365.009C455.32 338.279 422.722 323.393 390.777 320.785C387.082 320.459 383.497 320.351 379.802 320.351C362.743 320.351 345.901 323.284 329.928 326.327C316.454 328.935 302.002 332.412 286.682 336.106C246.804 345.777 201.602 356.643 163.571 353.166C119.999 349.145 92.7258 326.762 80.1214 284.602C78.2742 278.408 76.5356 271.889 74.7971 265.695C68.7122 243.203 62.41 219.95 48.719 200.717C35.6799 182.354 15.7954 167.685 -10.3914 156.928V158.123C15.4694 168.772 35.028 183.332 47.8497 201.369C61.4321 220.493 67.7343 243.638 73.8192 266.021C75.5577 272.215 77.2962 278.734 79.1434 284.928C91.9652 327.413 119.564 350.123 163.571 354.252C201.819 357.838 247.13 346.863 287.116 337.193C302.437 333.498 316.889 330.021 330.362 327.413C349.704 323.719 370.349 320.242 390.885 321.872C422.614 324.371 454.994 339.149 487.157 365.77C500.413 376.745 512.8 388.914 524.644 400.758C536.597 412.602 548.984 424.772 562.24 435.746C605.269 471.169 656.556 492.249 706.648 495.291C710.668 495.508 714.688 495.617 718.6 495.617C754.457 495.617 788.359 485.838 817.262 466.931C847.904 446.938 872.678 417.057 888.76 380.656C909.731 333.172 894.301 285.145 879.306 238.639C874.634 223.97 870.179 210.171 866.811 196.371C851.164 131.936 878.22 98.5782 915.707 52.2896C921.792 44.7922 928.203 36.9688 934.614 28.602C974.926 -23.5541 989.378 -91.4658 977.968 -153.836V-153.727Z" fill="#FAFAFA"/>
<path d="M966.668 -121.999C966.451 -132.756 965.473 -143.405 963.734 -153.836H962.647C964.386 -143.405 965.364 -132.756 965.581 -121.999C966.559 -71.2553 950.369 -22.0329 920.162 16.5409C913.751 24.6903 907.34 32.4051 901.255 39.7939C863.551 85.4306 836.386 118.463 855.51 184.093C859.639 198.327 865.072 212.561 870.831 227.556C888.434 273.736 906.58 321.546 887.347 368.812C872.461 405.43 848.664 435.312 818.675 455.305C787.272 476.167 749.676 485.403 709.799 482.252C660.033 478.232 609.833 455.414 568.325 418.035C555.395 406.3 543.333 393.369 531.707 380.874C520.298 368.595 508.454 355.882 495.85 344.364C464.991 316.439 433.697 301.009 402.729 298.836C399.795 298.619 396.97 298.51 394.036 298.51C376.325 298.51 358.94 302.205 343.619 305.682C330.362 308.724 315.911 312.853 300.699 317.2C244.631 333.281 181.065 351.427 139.449 327.631C120.651 316.874 108.264 298.945 101.418 272.541C99.7886 266.347 98.3761 259.828 96.8548 253.634C91.7479 231.359 86.5323 208.432 73.3846 189.634C56.8684 166.055 28.6172 149.757 -10.6086 141.064V142.15C28.1825 150.734 56.1078 166.925 72.5153 190.178C85.5543 208.867 90.7699 231.685 95.8769 253.852C97.2895 260.045 98.8107 266.565 100.441 272.758C107.286 299.054 120.216 317.852 139.014 328.5C180.957 352.514 244.848 334.259 301.133 318.178C316.345 313.831 330.797 309.702 344.053 306.66C361.765 302.531 382.41 298.293 402.838 299.814C433.588 302.096 464.665 317.308 495.306 345.125C507.911 356.643 519.755 369.247 531.164 381.526C542.79 394.13 554.851 407.06 567.89 418.796C609.507 456.283 659.924 479.21 709.907 483.23C715.123 483.665 720.23 483.882 725.337 483.882C759.673 483.882 791.945 474.429 819.544 456.174C849.751 436.181 873.547 406.082 888.542 369.247C907.883 321.546 889.737 273.627 872.135 227.122C866.376 212.127 861.052 197.892 856.923 183.767C837.907 118.68 864.963 85.8652 902.451 40.4459C908.535 33.0571 914.838 25.3423 921.357 17.1929C951.782 -21.4896 968.08 -70.9293 967.102 -121.999H966.668Z" fill="#FAFAFA"/>
</g>
<path style="mix-blend-mode:color-dodge" opacity="0.1" d="M1399.23 206.428C1544.91 60.7526 1544.91 -175.434 1399.23 -321.11C1253.56 -466.785 1017.37 -466.785 871.694 -321.11C726.018 -175.434 726.018 60.7525 871.694 206.428C1017.37 352.103 1253.56 352.103 1399.23 206.428Z" fill="url(#paint1_radial_26_96)"/>
<path style="mix-blend-mode:color-dodge" opacity="0.2" d="M1056.85 591.454C1012.85 776.5 903.211 791.169 811.938 624.269C720.773 457.369 682.525 172.14 726.641 -12.9056C770.648 -197.951 880.284 -212.62 971.557 -45.7205C1062.72 121.179 1100.97 406.408 1056.85 591.454Z" fill="url(#paint2_radial_26_96)"/>
<path style="mix-blend-mode:color-dodge" opacity="0.3" d="M855.727 211.583C858.335 173.987 876.481 169.532 896.366 201.478C916.25 233.424 930.159 289.818 927.551 327.413C924.943 365.009 906.797 369.464 886.912 337.519C867.028 305.573 853.12 249.179 855.727 211.583Z" fill="url(#paint3_radial_26_96)"/>
<path style="mix-blend-mode:color-dodge" opacity="0.4" d="M1256.46 19.3661C1275.48 115.964 1227.01 146.497 1148.13 87.4951C1069.24 28.4935 989.921 -97.6593 970.797 -194.257C951.782 -290.855 1000.24 -321.388 1079.13 -262.386C1158.02 -203.384 1237.34 -77.2314 1256.46 19.3661Z" fill="url(#paint4_radial_26_96)"/>
<path style="mix-blend-mode:overlay" opacity="0.7" d="M1394.13 -220.661H912.773V260.697H1394.13V-220.661Z" fill="url(#paint5_radial_26_96)"/>
</g>
</g>
<defs>
<radialGradient id="paint0_radial_26_96" cx="0" cy="0" r="1" gradientUnits="userSpaceOnUse" gradientTransform="translate(605.269 370.442) scale(827.219 827.219)">
<stop offset="0.6" stop-color="#EEEEEE" stop-opacity="0"/>
<stop offset="0.7" stop-color="#EEEEEE" stop-opacity="0.2"/>
<stop offset="0.8" stop-color="#EEEEEE" stop-opacity="0.7"/>
<stop offset="0.9" stop-color="#EEEEEE" stop-opacity="0.9"/>
<stop offset="1" stop-color="#EEEEEE"/>
</radialGradient>
<radialGradient id="paint1_radial_26_96" cx="0" cy="0" r="1" gradientUnits="userSpaceOnUse" gradientTransform="translate(1135.44 -57.3708) rotate(180) scale(373.025)">
<stop stop-color="#CFCFCF"/>
<stop offset="0.1" stop-color="#BCBCBC" stop-opacity="0.9"/>
<stop offset="0.4" stop-color="#8C8C8C" stop-opacity="0.7"/>
<stop offset="0.7" stop-color="#3F3F3F" stop-opacity="0.3"/>
<stop offset="1" stop-opacity="0"/>
</radialGradient>
<radialGradient id="paint2_radial_26_96" cx="0" cy="0" r="1" gradientUnits="userSpaceOnUse" gradientTransform="translate(719.804 -33.2315) rotate(61.3) scale(342.405 228.27)">
<stop stop-color="#EDF6F7"/>
<stop offset="0.1" stop-color="#DBE3E4" stop-opacity="0.9"/>
<stop offset="0.3" stop-color="#ADB3B4" stop-opacity="0.7"/>
<stop offset="0.6" stop-color="#626666" stop-opacity="0.4"/>
<stop offset="1" stop-opacity="0"/>
</radialGradient>
<radialGradient id="paint3_radial_26_96" cx="0" cy="0" r="1" gradientUnits="userSpaceOnUse" gradientTransform="translate(2534.9 2923.6) rotate(-121.8) scale(66.3361 39.8017)">
<stop stop-color="#FCFFFF"/>
<stop offset="0.1" stop-color="#E9ECEC" stop-opacity="0.9"/>
<stop offset="0.3" stop-color="#BABCBC" stop-opacity="0.7"/>
<stop offset="0.6" stop-color="#6D6E6E" stop-opacity="0.4"/>
<stop offset="1" stop-opacity="0"/>
</radialGradient>
<radialGradient id="paint4_radial_26_96" cx="0" cy="0" r="1" gradientUnits="userSpaceOnUse" gradientTransform="translate(1468.5 183.198) rotate(36.8) scale(177.331 118.221)">
<stop stop-color="#EDF6F7"/>
<stop offset="0.1" stop-color="#DBE3E4" stop-opacity="0.9"/>
<stop offset="0.3" stop-color="#ADB3B4" stop-opacity="0.7"/>
<stop offset="0.6" stop-color="#626666" stop-opacity="0.4"/>
<stop offset="1" stop-opacity="0"/>
</radialGradient>
<radialGradient id="paint5_radial_26_96" cx="0" cy="0" r="1" gradientUnits="userSpaceOnUse" gradientTransform="translate(1153.45 20.0179) scale(240.679 240.679)">
<stop stop-color="#FCFFFF"/>
<stop offset="0.1" stop-color="#E9ECEC" stop-opacity="0.9"/>
<stop offset="0.3" stop-color="#BABCBC" stop-opacity="0.7"/>
<stop offset="0.6" stop-color="#6D6E6E" stop-opacity="0.4"/>
<stop offset="1" stop-opacity="0"/>
</radialGradient>
<clipPath id="clip0_26_96">
<rect width="1280" height="512" fill="white"/>
</clipPath>
</defs>
</svg>
