<svg width="76" height="76" viewBox="0 0 76 76" fill="none" xmlns="http://www.w3.org/2000/svg">
<path d="M45.8819 52.8727V61.6818M54.2274 56.1182C60.5637 51.4818 72.9583 39.7982 71.8456 30.1545C70.4546 18.1 61.1819 13 52.8365 13C46.1601 13 40.4728 18.2545 38.4637 20.8818C36.6092 18.2545 30.8601 13 22.7001 13C12.5001 13 -2.33626 25.5182 8.32738 42.2091C16.8583 55.5618 26.1001 62.3 29.6546 64V49.1636C25.1728 45.9182 16.1165 37.5727 15.7455 30.1545C15.3746 22.7364 19.3001 24.5909 21.3092 26.4455C23.5414 30.6618 28.699 38.2613 34.291 41.0998C35.668 41.7988 37.0713 42.2091 38.4637 42.2091C47.2728 42.2091 55.6183 42.6727 54.2274 56.1182Z" stroke="#2F2760" stroke-width="1.5"/>
<circle cx="40.3183" cy="34.3273" r="7.59545" stroke="#2F2760" stroke-width="1.5"/>
</svg>
