<svg width="76" height="76" viewBox="0 0 76 76" fill="none" xmlns="http://www.w3.org/2000/svg">
<path d="M21 74H8C8.96031 64.8776 5.67894 47.1799 21 44.7248M21 74H47.5V54C53.6667 49.3334 66.5 37.1 68.5 25.5C71 11 59 15.5 58 23.5C57.3755 28.496 52.461 34.857 43.5001 39.295M21 74V60M43.5001 39.295C38.112 41.9635 31.261 43.9367 23 44.5C22.3004 44.5477 21.6343 44.6232 21 44.7248M43.5001 39.295C44.1667 34.6967 43.4001 25.1 35.0001 23.5C24.5001 21.5 17.0001 28.5 18.5001 39C18.9473 42.1305 21 44.7248 21 44.7248M47.5 1V25.5M41.0001 7.5H53.5001" stroke="#2F2760" stroke-width="1.5"/>
</svg>
