<svg width="24" height="24" viewBox="0 0 24 24" fill="none" xmlns="http://www.w3.org/2000/svg">
<path fill-rule="evenodd" clip-rule="evenodd" d="M12 6C12.684 6 13.3856 6.0176 14.0656 6.0464L14.8688 6.0848L15.6376 6.1304L16.3576 6.1792L17.0152 6.2304C17.7288 6.28502 18.4004 6.58956 18.9116 7.09043C19.4229 7.59131 19.7411 8.25643 19.8104 8.9688L19.8424 9.3088L19.9024 10.0368C19.9584 10.7912 20 11.6136 20 12.4C20 13.1864 19.9584 14.0088 19.9024 14.7632L19.8424 15.4912C19.832 15.608 19.8216 15.7208 19.8104 15.8312C19.7411 16.5437 19.4227 17.2089 18.9113 17.7098C18.3999 18.2107 17.7282 18.5152 17.0144 18.5696L16.3584 18.62L15.6384 18.6696L14.8688 18.7152L14.0656 18.7536C13.3775 18.7835 12.6888 18.799 12 18.8C11.3112 18.799 10.6225 18.7835 9.9344 18.7536L9.1312 18.7152L8.3624 18.6696L7.6424 18.62L6.9848 18.5696C6.27116 18.515 5.59964 18.2104 5.08838 17.7096C4.57711 17.2087 4.25886 16.5436 4.1896 15.8312L4.1576 15.4912L4.0976 14.7632C4.03643 13.9769 4.00388 13.1887 4 12.4C4 11.6136 4.0416 10.7912 4.0976 10.0368L4.1576 9.3088C4.168 9.192 4.1784 9.0792 4.1896 8.9688C4.25883 8.25656 4.57697 7.59153 5.08807 7.09067C5.59917 6.58982 6.2705 6.2852 6.984 6.2304L7.6408 6.1792L8.3608 6.1304L9.1304 6.0848L9.9336 6.0464C10.622 6.01651 11.311 6.00104 12 6ZM10.4 10.46V14.34C10.4 14.7096 10.8 14.94 11.12 14.756L14.48 12.816C14.5531 12.7739 14.6138 12.7133 14.6561 12.6403C14.6983 12.5672 14.7205 12.4844 14.7205 12.4C14.7205 12.3156 14.6983 12.2328 14.6561 12.1597C14.6138 12.0867 14.5531 12.0261 14.48 11.984L11.12 10.0448C11.047 10.0027 10.9642 9.98048 10.8799 9.98049C10.7956 9.98051 10.7128 10.0027 10.6399 10.0449C10.5669 10.087 10.5063 10.1477 10.4642 10.2207C10.4221 10.2937 10.3999 10.3765 10.4 10.4608V10.46Z" fill="white"/>
</svg>
