<svg width="52" height="58" viewBox="0 0 52 58" fill="none" xmlns="http://www.w3.org/2000/svg">
<path fill-rule="evenodd" clip-rule="evenodd" d="M19.3334 15.2868H31.4729V23.3798V47.2093H23.3799V23.3798H19.3334V15.2868ZM31.0233 57.9938C33.8564 57.8478 39.0587 56.7742 43.5838 53.4059C47.8307 50.2446 51.2621 45.2035 51.6865 37.7674H51.7055V37.3866C51.7386 36.6115 51.7394 35.8109 51.7055 34.9841V29.6744H39.5659V37.7674H43.5747C43.187 42.4486 41.0656 45.1914 38.7515 46.9139C35.8661 49.0618 32.3903 49.8023 30.6869 49.907H23.3799V58H31.0233V57.9938Z" fill="#2A3629"/>
<path fill-rule="evenodd" clip-rule="evenodd" d="M23.3798 8.09302C14.9811 8.09302 8.09302 14.9936 8.09302 23.6047C8.09302 31.0262 13.2096 37.1772 20 38.7349V46.9649C8.6577 45.3094 0 35.4454 0 23.6047C0 10.763 10.1832 0.2464 22.9302 0.00426675V0H23.3798H31.4729V8.09302H23.3798Z" fill="#2A3629"/>
</svg>
