<svg width="100" height="100" viewBox="0 0 100 100" fill="none" xmlns="http://www.w3.org/2000/svg">
<path d="M39.4835 68.6396C39.4835 68.6396 40.6453 69.9175 40.5942 71.2626C40.5471 72.5006 39.4835 73.5108 39.4835 73.5108C39.4835 73.5108 38.5121 74.4375 38.4654 75.5717C38.4143 76.8134 39.4835 78.0073 39.4835 78.0073C39.4835 78.0073 40.5016 79.0645 40.5016 80.2555C40.5016 81.4466 39.4835 82.5038 39.4835 82.5038C39.4835 82.5038 38.4654 83.561 38.4654 84.752C38.4654 85.9431 39.4835 87.0003 39.4835 87.0003" stroke="#131313" stroke-width="1.49017" stroke-linecap="round" stroke-linejoin="round"/>
<ellipse cx="39.8259" cy="42.9347" rx="17.2353" ry="21.2035" fill="#E84779"/>
<path d="M56.3161 42.9347C56.3161 54.3853 48.7963 63.3932 39.8259 63.3932C30.8554 63.3932 23.3357 54.3853 23.3357 42.9347C23.3357 31.4841 30.8554 22.4763 39.8259 22.4763C48.7963 22.4763 56.3161 31.4841 56.3161 42.9347Z" stroke="black" stroke-opacity="0.15" stroke-width="1.49017"/>
<path d="M39.826 62.9536L43.3652 69.0837H36.2868L39.826 62.9536Z" fill="#E84779"/>
<path d="M37.5773 68.3386L39.826 64.4438L42.0746 68.3386H37.5773Z" stroke="black" stroke-opacity="0.15" stroke-width="1.49017"/>
<path d="M27.8026 35.7679C28.0869 31.9774 30.9614 30.5164 32.3632 30.2598C30.0888 32.6763 29.7571 34.9388 29.8756 35.7679H27.8026Z" fill="white" fill-opacity="0.5"/>
<path d="M29.8756 36.6564H27.8026V37.7817H29.8756V36.6564Z" fill="white" fill-opacity="0.5"/>
<path d="M60.8055 59.3999C60.8055 59.3999 61.9673 60.6777 61.9162 62.0228C61.8692 63.2609 60.8055 64.2711 60.8055 64.2711C60.8055 64.2711 59.8341 65.1977 59.7874 66.332C59.7363 67.5736 60.8055 68.7676 60.8055 68.7676C60.8055 68.7676 61.8236 69.8247 61.8236 71.0158C61.8236 72.2069 60.8055 73.264 60.8055 73.264C60.8055 73.264 59.7874 74.3212 59.7874 75.5123C59.7874 76.7033 60.8055 77.7605 60.8055 77.7605" stroke="#131313" stroke-width="1.49017" stroke-linecap="round" stroke-linejoin="round"/>
<ellipse cx="61.1479" cy="33.695" rx="17.2353" ry="21.2035" fill="#9A2247"/>
<path d="M77.6381 33.695C77.6381 45.1456 70.1183 54.1535 61.1479 54.1535C52.1774 54.1535 44.6577 45.1456 44.6577 33.695C44.6577 22.2444 52.1774 13.2365 61.1479 13.2365C70.1183 13.2365 77.6381 22.2444 77.6381 33.695Z" stroke="black" stroke-opacity="0.15" stroke-width="1.49017"/>
<path d="M61.1479 53.7141L64.6871 59.8442H57.6087L61.1479 53.7141Z" fill="#9A2247"/>
<path d="M58.8992 59.0991L61.1479 55.2043L63.3965 59.0991H58.8992Z" stroke="black" stroke-opacity="0.15" stroke-width="1.49017"/>
<path d="M49.1246 26.5284C49.4089 22.7379 52.2834 21.2769 53.6852 21.0203C51.4108 23.4368 51.0791 25.6993 51.1976 26.5284H49.1246Z" fill="white" fill-opacity="0.5"/>
<path d="M51.1976 27.4169H49.1246V28.5422H51.1976V27.4169Z" fill="white" fill-opacity="0.5"/>
</svg>
