<svg width="100" height="100" viewBox="0 0 100 100" fill="none" xmlns="http://www.w3.org/2000/svg">
<path d="M42.3882 80.0666L39.1819 19.5641C40.1856 19.8986 40.9942 21.2835 41.273 21.9341C41.6912 25.1404 42.6949 32.3617 43.3641 35.5959C44.0332 38.8302 44.8511 40.1034 45.1764 40.3358C46.1058 41.451 48.7452 43.4027 51.8679 42.2875C54.9906 41.1722 55.8642 37.9194 55.9107 36.4324C56.3289 34.713 57.3048 30.0475 57.8624 25.1404C58.42 20.2333 59.9535 19.3782 60.6505 19.5641L57.1654 80.0666H42.3882Z" fill="#0D489D"/>
<circle cx="49.9163" cy="36.4325" r="4.46102" fill="#0D489D"/>
<path d="M42.5275 80.0667L29.2839 79.7879C33.048 52.8824 19.2466 36.0141 17.5737 34.2018C15.9008 32.3896 12.1368 25.698 16.319 27.5103C19.6648 28.9601 25.3804 37.1294 28.1685 41.1722C34.3024 45.4938 37.4624 39.4528 37.5089 37.2688C37.323 33.226 36.9791 24.4992 37.0907 21.9341C37.2022 19.369 38.5312 19.2853 39.1818 19.5642C40.297 25.5865 41.877 62.4085 42.5275 80.0667Z" fill="#2F7CEA"/>
<circle cx="31.7933" cy="36.4325" r="4.73983" fill="#2F7CEA"/>
<path d="M56.8863 80.0364L70.1299 79.7576C66.3659 52.8521 80.1672 35.9839 81.8401 34.1716C83.513 32.3593 87.277 25.6678 83.0948 27.48C79.749 28.9299 74.0334 37.0991 71.2453 41.1419C65.1114 45.4635 61.9514 39.4226 61.9049 37.2385C62.0908 33.1957 62.4347 24.4689 62.3232 21.9038C62.2116 19.3387 60.8826 19.2551 60.2321 19.5339C59.1168 25.5563 57.5369 62.3782 56.8863 80.0364Z" fill="#0A2D5F"/>
<circle cx="4.73983" cy="4.73983" r="4.73983" transform="matrix(-1 0 0 1 72.3606 31.6624)" fill="#0A2D5F"/>
</svg>
