<svg width="101" height="100" viewBox="0 0 101 100" fill="none" xmlns="http://www.w3.org/2000/svg">
<path d="M45.4794 47.5985H51.746C52.2411 46.6174 52.6972 45.5948 53.0296 44.6076C54.3674 40.6306 50.6143 37.8379 50.6143 37.8379L48.613 37.8409L46.6117 37.8385C46.6117 37.8385 42.858 40.6313 44.1964 44.6082C44.5287 45.5954 44.9842 46.6174 45.4794 47.5985Z" fill="#DD813A"/>
<path d="M50.0665 38.7207C49.7384 40.0445 49.2104 40.908 48.6128 40.908C48.0152 40.908 47.4871 40.0451 47.1591 38.7219C46.7066 39.589 46.3597 40.5195 46.7072 41.5543C47.0963 42.7111 47.7451 44.0983 48.6122 45.6343C49.4793 44.0977 50.1281 42.7104 50.5171 41.5543C50.8665 40.5183 50.5189 39.5878 50.0665 38.7207Z" fill="#FF0000" fill-opacity="0.3"/>
<path d="M43.7037 32.376L42.0494 31.1534C41.2365 30.5528 40.0749 30.9571 39.8145 31.9339C39.3048 33.8455 38.781 36.8834 39.4804 39.8097C39.759 40.975 41.264 41.3012 42.0024 40.3585L44.5281 37.1341C44.7256 36.8822 44.8324 36.5712 44.8324 36.2511V36.1968C44.3519 35.1059 43.9659 33.8132 43.7037 32.376Z" fill="#704E10"/>
<path d="M57.4113 31.9335C57.1509 30.9573 55.9893 30.5524 55.1764 31.153L53.5221 32.3756C53.2599 33.8129 52.8739 35.1056 52.3928 36.1965V36.2501C52.3928 36.5702 52.5001 36.8812 52.6971 37.1331L55.2228 40.3575C55.9612 41.3009 57.4667 40.974 57.7448 39.8088C58.4448 36.8831 57.921 33.8452 57.4113 31.9335Z" fill="#704E10"/>
<path d="M51.8857 19.8757H45.3404C44.2495 22.327 43.3129 25.2381 43.3129 27.9766C43.3129 31.3821 43.9665 34.4475 45.0086 36.5981C45.2251 37.0573 45.4678 37.4725 45.7196 37.839H51.5058C51.7576 37.4725 52.0003 37.0573 52.2168 36.5981C53.2595 34.4469 53.9132 31.3815 53.9132 27.9766C53.9132 25.2381 52.9772 22.327 51.8857 19.8757Z" fill="#704E10"/>
<path d="M51.8855 19.8756H45.3402C46.2701 17.7713 47.311 16.0042 47.9641 14.9706C48.2659 14.4925 48.9598 14.4925 49.2617 14.9706C49.9147 16.0042 50.9562 17.7713 51.8855 19.8756Z" fill="#FAC666"/>
<path d="M48.6128 26.4448C49.6079 26.4448 50.4147 25.6381 50.4147 24.6429C50.4147 23.6478 49.6079 22.8411 48.6128 22.8411C47.6176 22.8411 46.8109 23.6478 46.8109 24.6429C46.8109 25.6381 47.6176 26.4448 48.6128 26.4448Z" fill="#FAC666"/>
<path d="M48.6129 30.2571C47.6178 30.2571 46.8104 32.6413 46.8104 35.5828C46.8104 38.5244 47.6172 40.9086 48.6129 40.9086C49.6081 40.9086 50.4154 38.5244 50.4154 35.5828C50.4154 32.6413 49.6081 30.2571 48.6129 30.2571Z" fill="#704E10"/>
<path d="M34.1564 57.7036V82.7811C34.1564 83.9415 35.0966 84.8818 36.257 84.8818H60.9687C62.1291 84.8818 63.0693 83.9415 63.0693 82.7811V57.7036H34.1564Z" fill="#704E10"/>
<path d="M65.5017 50.3302L63.0688 57.7048L34.1564 57.7011L31.7325 50.3241C32.0252 49.7936 32.5862 49.4277 33.257 49.4277H63.9712C64.6481 49.4277 65.2091 49.7997 65.5017 50.3302Z" fill="#D4A338"/>
<path d="M51.9836 79.3635C56.4437 77.5148 58.5606 72.4005 56.7119 67.9405C54.8632 63.4804 49.749 61.3635 45.2889 63.2122C40.8288 65.0609 38.7119 70.1752 40.5606 74.6352C42.4093 79.0953 47.5236 81.2122 51.9836 79.3635Z" fill="#FAC666"/>
<path d="M31.5656 25.8135L32.0522 26.2958C32.1754 26.4184 32.3516 26.4721 32.5217 26.4397L33.1949 26.3123C33.6248 26.2306 33.9614 26.6776 33.7645 27.0684L33.4559 27.6806C33.3779 27.8355 33.3809 28.0197 33.4644 28.1721L33.7937 28.7727C34.0041 29.1563 33.6834 29.6148 33.2504 29.5484L32.573 29.4441C32.401 29.4179 32.2278 29.4776 32.1083 29.6039L31.6388 30.1026C31.3388 30.4209 30.804 30.2575 30.7333 29.8258L30.6229 29.1496C30.5949 28.9782 30.4845 28.8313 30.3272 28.7575L29.7076 28.4648C29.3119 28.2782 29.3021 27.7184 29.6912 27.5184L30.3003 27.2044C30.4546 27.1245 30.5601 26.9745 30.582 26.8019L30.6686 26.122C30.726 25.6873 31.2546 25.5056 31.5656 25.8135Z" fill="#131313"/>
<path d="M65.3999 20.2178L65.2667 20.3614C65.233 20.3979 65.1848 20.4139 65.1382 20.4043L64.9539 20.3663C64.8362 20.342 64.7441 20.475 64.798 20.5914L64.8825 20.7736C64.9038 20.8197 64.903 20.8745 64.8801 20.9199L64.79 21.0987C64.7324 21.2129 64.8202 21.3494 64.9387 21.3296L65.1242 21.2985C65.1712 21.2907 65.2186 21.3085 65.2514 21.3461L65.3799 21.4946C65.462 21.5893 65.6084 21.5407 65.6278 21.4122L65.658 21.2109C65.6657 21.1599 65.6959 21.1161 65.739 21.0942L65.9086 21.007C66.0169 20.9515 66.0196 20.7849 65.9131 20.7253L65.7463 20.6319C65.7041 20.6081 65.6752 20.5634 65.6692 20.5121L65.645 20.3095C65.6298 20.1803 65.4851 20.1262 65.3999 20.2178Z" fill="#131313"/>
<path d="M63.0695 64.2209C62.7323 64.2209 62.4597 64.4935 62.4597 64.8307V69.5565C62.4597 69.8937 62.7323 70.1662 63.0695 70.1662C63.4067 70.1662 63.6793 69.8937 63.6793 69.5565V64.8307C63.6793 64.4935 63.4067 64.2209 63.0695 64.2209Z" fill="#FAC666"/>
<path d="M73.2252 47.6021C72.9874 47.3631 72.602 47.3613 72.363 47.5997L64.4427 55.4804L66.222 50.0766C66.4555 49.3491 66.3317 48.5778 65.8811 47.9595C65.4311 47.3424 64.7341 46.9881 63.9701 46.9881H52.7198C53.0576 46.2625 53.3643 45.5246 53.6076 44.8021C54.6009 41.8489 53.0503 39.4848 51.9405 38.261C51.9643 38.2366 51.9887 38.2129 52.0082 38.1842C52.1247 38.0153 52.232 37.8384 52.3369 37.6604L54.743 40.733C55.1369 41.2361 55.7241 41.5172 56.3437 41.5172C56.49 41.5172 56.6388 41.5014 56.7876 41.469C57.5602 41.3007 58.1541 40.719 58.3382 39.9507C59.0584 36.9409 58.5517 33.8444 58.0004 31.7761C57.8266 31.1236 57.3419 30.5998 56.7047 30.3767C56.0644 30.1541 55.3589 30.2596 54.8138 30.6633L54.3436 31.0108C54.4576 30.0309 54.5235 29.0175 54.5235 27.976C54.5235 25.5387 53.8241 22.7313 52.4448 19.6306C52.4442 19.63 52.4442 19.6288 52.4442 19.6276C51.5173 17.5257 50.4899 15.7677 49.7801 14.6445C49.5264 14.2415 49.091 14.0006 48.6154 14C48.6148 14 48.6142 14 48.6136 14C48.1386 14 47.7038 14.2396 47.4495 14.6415C46.7452 15.7555 45.7111 17.5251 44.7824 19.627C44.7818 19.6288 44.7818 19.63 44.7812 19.6319C43.4025 22.7313 42.7031 25.5387 42.7031 27.9754C42.7031 29.0163 42.7689 30.0303 42.8829 31.0102L42.4122 30.662C41.8677 30.259 41.1616 30.1523 40.5225 30.3754C39.8847 30.5986 39.3999 31.1218 39.2255 31.7749C38.6743 33.8432 38.1682 36.9403 38.8877 39.9501C39.0712 40.7184 39.6652 41.3001 40.4377 41.4684C40.5859 41.5007 40.7347 41.5166 40.8817 41.5166C41.5012 41.5166 42.0884 41.2355 42.4823 40.7324L44.8885 37.6598C44.994 37.8372 45.1007 38.0141 45.2165 38.1824C45.2361 38.211 45.2611 38.2354 45.2848 38.2598C44.175 39.4836 42.6244 41.8471 43.6177 44.7996C43.861 45.5228 44.1677 46.26 44.5055 46.9863H33.2552C32.4845 46.9863 31.7851 47.3454 31.3357 47.9704C30.8863 48.5961 30.7692 49.3747 31.0143 50.1016L32.7827 55.4712L24.8642 47.5997C24.6257 47.3619 24.2398 47.3637 24.0019 47.6021C23.7641 47.8412 23.7653 48.2265 24.0044 48.4643L33.5467 57.9536V82.7811C33.5467 84.2757 34.7626 85.4916 36.2571 85.4916H60.9688C62.4633 85.4916 63.6792 84.2757 63.6792 82.7811V72.1479C63.6792 71.8107 63.4067 71.5381 63.0695 71.5381C62.7323 71.5381 62.4597 71.8107 62.4597 72.1479V82.7811C62.4597 83.6037 61.7908 84.272 60.9688 84.272H36.2571C35.4352 84.272 34.7663 83.6031 34.7663 82.7811V58.3134L62.4597 58.3152V62.3928C62.4597 62.73 62.7323 63.0025 63.0695 63.0025C63.4067 63.0025 63.6792 62.73 63.6792 62.3928V57.9597L73.2228 48.4643C73.4618 48.2271 73.463 47.8412 73.2252 47.6021ZM55.5388 31.6432C55.6839 31.5358 55.8534 31.4803 56.026 31.4803C56.1174 31.4803 56.2101 31.4956 56.301 31.5273C56.5608 31.6182 56.7504 31.8237 56.8217 32.0901C57.337 34.0219 57.812 36.9049 57.1516 39.6678C57.0766 39.9812 56.8431 40.2092 56.5272 40.2781C56.2083 40.3471 55.9022 40.2361 55.7028 39.9824L53.1771 36.7567C53.0753 36.6274 53.0216 36.4671 53.0107 36.303C53.468 35.2353 53.832 34.0292 54.0851 32.7176L55.5388 31.6432ZM48.48 15.2939C48.5185 15.233 48.5733 15.2208 48.613 15.2208C48.6526 15.2208 48.7081 15.2336 48.7593 15.3153C49.3386 16.2312 50.1514 17.6111 50.935 19.2648H46.2891C47.0776 17.608 47.8959 16.2184 48.48 15.2939ZM45.7385 20.4855H51.4874C52.693 23.2856 53.304 25.804 53.304 27.9766C53.304 31.1419 52.7076 34.1884 51.6655 36.339C51.5204 36.6463 51.357 36.9451 51.1771 37.2299H50.9399C50.9966 36.6884 51.0252 36.1317 51.0252 35.5829C51.0252 32.7243 50.2703 29.648 48.613 29.648C46.9556 29.648 46.2007 32.7249 46.2007 35.5829C46.2007 36.1317 46.2294 36.6884 46.2861 37.2299H46.0483C45.869 36.9445 45.7044 36.6445 45.5574 36.3329C44.5183 34.1877 43.922 31.1419 43.922 27.9766C43.9226 25.8034 44.5336 23.2844 45.7385 20.4855ZM49.8057 35.5823C49.8057 38.6763 48.9197 40.2977 48.613 40.2977C48.3063 40.2977 47.4203 38.6763 47.4203 35.5823C47.4203 32.4883 48.3063 30.8669 48.613 30.8669C48.9197 30.8669 49.8057 32.4883 49.8057 35.5823ZM41.5231 39.9824C41.3238 40.2367 41.0152 40.3483 40.6981 40.2781C40.3823 40.2092 40.1487 39.9812 40.0743 39.6678C39.4139 36.9055 39.889 34.0225 40.4042 32.0901C40.4756 31.8237 40.6652 31.6188 40.9256 31.5273C41.0158 31.4956 41.1091 31.4803 41.2006 31.4803C41.3731 31.4803 41.542 31.5358 41.6872 31.6432L43.1403 32.7176C43.3933 34.0298 43.7574 35.2366 44.2147 36.3037C44.2037 36.4677 44.15 36.6274 44.0488 36.7573L41.5231 39.9824ZM44.7745 44.413C43.8513 41.669 45.6434 39.5519 46.5269 38.7153C46.8934 40.3153 47.577 41.5178 48.613 41.5178C49.6478 41.5178 50.3313 40.3178 50.6978 38.7202C51.5765 39.5641 53.3649 41.6983 52.4509 44.4136C52.1655 45.263 51.785 46.1368 51.3679 46.9887H45.8574C45.4403 46.1362 45.0598 45.2624 44.7745 44.413ZM32.3266 48.6845C32.5436 48.382 32.8827 48.2082 33.2552 48.2082H63.9707C64.3408 48.2082 64.678 48.3796 64.8963 48.6784C65.1146 48.9772 65.1744 49.3516 65.0622 49.6997L62.6274 57.0938H34.5998L32.1717 49.7187C32.0522 49.3644 32.1089 48.9875 32.3266 48.6845Z" fill="#FAC666"/>
<path d="M69.3574 31.8541C69.7402 32.4139 70.3835 32.6982 71.0501 32.5948L72.0211 32.4417L72.6961 33.1766C73.0313 33.5422 73.4878 33.7394 73.9593 33.7394C74.1311 33.7394 74.3038 33.7135 74.4747 33.6599C75.1133 33.4599 75.5763 32.9154 75.6837 32.2407L75.8424 31.2454L76.7322 30.8157C77.3353 30.5229 77.7181 29.9162 77.7293 29.2319C77.7405 28.5477 77.3792 27.9285 76.7854 27.6146L75.9115 27.1533L75.7864 26.1532C75.7014 25.4747 75.257 24.9139 74.6259 24.691C73.991 24.4689 73.3067 24.6297 72.8324 25.1101L72.1341 25.8193L71.1687 25.6326C70.5133 25.5054 69.8541 25.7666 69.4527 26.3131C69.0503 26.8595 68.9877 27.5792 69.2884 28.1907L69.7309 29.0903L69.2576 29.9745C68.9355 30.5727 68.9737 31.2933 69.3574 31.8541ZM71.4264 28.2883L71.0688 27.56L71.8474 27.7112C72.416 27.8232 72.9939 27.6395 73.4001 27.226L73.9649 26.6518L74.0648 27.4605C74.1376 28.0452 74.4859 28.5553 74.9947 28.8214L75.7015 29.1955L74.9816 29.5439C74.4635 29.7946 74.1003 30.2903 74.0069 30.8703L73.8781 31.6751L73.3347 31.0827C73.0033 30.721 72.5421 30.52 72.065 30.52C71.9772 30.52 71.8894 30.5267 71.8008 30.5401L71.0156 30.6636L71.3974 29.9487C71.6738 29.4329 71.685 28.8127 71.4264 28.2883Z" fill="#131313"/>
</svg>
