<svg width="101" height="100" viewBox="0 0 101 100" fill="none" xmlns="http://www.w3.org/2000/svg">
<path fill-rule="evenodd" clip-rule="evenodd" d="M71.3527 42.5205L83.7108 33.9425L82.4825 32.4083L71.3527 42.5205ZM60.7909 24.3341L62.7259 24L64.3089 38.9562L60.7909 24.3341ZM67.8424 37.4914L68.6236 30.0519L70.5355 30.5118L67.8424 37.4914ZM71.1369 35.8699L72.5965 37.183L68.2716 40.5263L71.1369 35.8699Z" fill="#131313"/>
<path fill-rule="evenodd" clip-rule="evenodd" d="M65.3495 64.9342C65.0463 63.6673 64.8638 62.4415 64.7739 61.2594L60.8961 59.4554C60.3102 60.0464 59.6138 60.3086 59.0741 60.0593C58.5344 59.8074 58.2826 59.1085 58.3597 58.2759L54.541 56.4976C53.5465 57.2274 52.4672 57.8724 51.3005 58.3992L38.1406 86.6849C37.2283 88.6533 38.0789 90.9893 40.0448 91.9041L46.9678 95.1241C48.9337 96.0389 51.2696 95.1857 52.1871 93.2199L65.3495 64.9342ZM49.6738 69.5521L57.8663 73.3657L51.2414 87.6049L43.0489 83.7939L49.6738 69.5521Z" fill="#62D18A"/>
<path fill-rule="evenodd" clip-rule="evenodd" d="M63.9594 42.6054C64.679 41.2152 66.375 40.6241 67.809 41.2923C69.2789 41.981 69.9162 43.731 69.2378 45.2061C69.2378 45.2061 64.9514 50.5615 64.7098 58.6589L61.973 57.3869C62.1632 56.4078 61.9267 55.5417 61.31 55.2565C60.6958 54.9713 59.8812 55.3464 59.2542 56.1251L56.5173 54.8505C62.0321 49.6364 64.2318 42.2482 63.9594 42.6054Z" fill="#62D18A"/>
<path d="M57.8635 73.4006L49.7135 69.54L42.9933 83.7669L51.1433 87.6989L57.8635 73.4006Z" fill="#085122"/>
</svg>
