<svg width="100" height="100" viewBox="0 0 100 100" fill="none" xmlns="http://www.w3.org/2000/svg">
<path d="M16 84.0001L23.004 40.4568H77.132L82.98 84.0001H16Z" fill="#3B0D80" stroke="#131313" stroke-width="0.68"/>
<path d="M19.8761 83.6764L26.8801 39.0332H32.2521L25.1121 83.6764H19.8761Z" fill="#8C54E0"/>
<path d="M32.2521 83.6764L39.2561 39.0332H44.6281L37.4881 83.6764H32.2521Z" fill="#8C54E0"/>
<path d="M78.6279 83.6764L71.6239 39.0332H66.2519L73.3919 83.6764H78.6279Z" fill="#8C54E0"/>
<path d="M66.2521 83.6764L59.2481 39.0332H53.8761L61.0161 83.6764H66.2521Z" fill="#8C54E0"/>
<path d="M33.4761 83.6765L50.712 48.0913L65.9801 83.6765H33.4761Z" fill="#0E082D"/>
<path d="M29.5018 41.9645L29.2005 41.6598L28.9723 42.0226C28.5025 42.7695 27.5593 43.4037 26.359 43.7337C25.1656 44.0617 23.7544 44.0777 22.3907 43.6276C21.1173 43.2073 19.4362 42.2193 18.4418 41.1634C17.9395 40.6301 17.6607 40.1303 17.6342 39.7173C17.6216 39.5208 17.6652 39.3378 17.7792 39.1632C17.8961 38.9843 18.098 38.7978 18.4265 38.621L25.6856 34.7147L26.5929 34.2264L26.7064 34.1654L26.7196 34.1583L26.7205 34.1577L50.5391 21.9489L80.4652 38.2965L80.4658 38.2968L82.6062 39.4605C82.578 39.5549 82.5427 39.6694 82.5018 39.7945C82.3908 40.1339 82.245 40.5318 82.0954 40.8159C81.463 42.0165 80.6423 42.9042 79.6378 43.4938C78.6325 44.0838 77.4234 44.3869 75.9974 44.3869C73.6873 44.3869 71.68 43.3489 70.5599 41.8168L70.2854 41.4414L70.0109 41.8168C68.8909 43.3489 66.8836 44.3869 64.5734 44.3869C61.9411 44.3869 59.7066 43.0406 58.7232 41.1538L58.4644 40.6573L58.1432 41.116C56.8193 43.0067 53.7759 44.3869 50.1574 44.3869C46.259 44.3869 43.0423 42.788 41.9034 40.6831L41.5427 40.0164L41.2847 40.7292C40.9121 41.7584 40.0104 42.6747 38.8518 43.338C37.6965 43.9994 36.3229 44.3869 35.0614 44.3869C32.6994 44.3869 30.5487 43.0228 29.5018 41.9645ZM26.4888 33.8963L26.5153 34.0059C26.4793 34.0314 26.4299 34.0064 26.3949 33.9469C26.4351 33.9252 26.4657 33.9088 26.4888 33.8963Z" fill="#3B0D80" stroke="#131313" stroke-width="0.68"/>
<path fill-rule="evenodd" clip-rule="evenodd" d="M50.544 22.0818C50.544 22.0818 37.7092 33.5792 29.4868 41.2764C30.4218 43.3077 32.5533 44.7269 35.0332 44.7269C37.6852 44.7269 40.7583 43.1039 41.5762 40.8449C41.5801 40.8521 41.584 40.8593 41.588 40.8665L50.544 22.0818Z" fill="#8C54E0" stroke="#131313" stroke-width="0.68"/>
<path fill-rule="evenodd" clip-rule="evenodd" d="M50.6799 22.0818L58.4462 41.2979V41.371C59.5106 43.3518 61.8507 44.727 64.5662 44.727C66.9752 44.727 70.264 41.371 70.264 41.371L50.6799 22.0818Z" fill="#8C54E0" stroke="#131313" stroke-width="0.68"/>
<path d="M63.3961 16L50.4761 21.6936V16H63.3961Z" fill="#8C54E0"/>
</svg>
